M48
; DRILL file {KiCad 8.0.4} date 2024-10-21T15:09:49+0200
; FORMAT={-:-/ absolute / inch / decimal}
; #@! TF.CreationDate,2024-10-21T15:09:49+02:00
; #@! TF.GenerationSoftware,Kicad,Pcbnew,8.0.4
; #@! TF.FileFunction,Plated,1,2,PTH
FMAT,2
INCH
; #@! TA.AperFunction,Plated,PTH,ComponentDrill
T1C0.0295
; #@! TA.AperFunction,Plated,PTH,ComponentDrill
T2C0.0315
; #@! TA.AperFunction,Plated,PTH,ComponentDrill
T3C0.0394
; #@! TA.AperFunction,Plated,PTH,ComponentDrill
T4C0.0433
%
G90
G05
T1
X3.6709Y-2.5012
X3.6709Y-2.5512
X3.6709Y-2.6012
X3.7008Y-2.9787
X3.7008Y-3.0287
X3.7008Y-3.0787
X3.7008Y-3.4303
X3.7008Y-3.4803
X3.7008Y-3.5303
X4.0551Y-3.4276
X4.0551Y-3.4776
X4.0551Y-3.5276
X4.0567Y-2.5012
X4.0567Y-2.5512
X4.0567Y-2.6012
X4.063Y-2.9787
X4.063Y-3.0287
X4.063Y-3.0787
X4.7441Y-3.522
X4.7441Y-3.572
X4.7441Y-3.622
X4.9449Y-2.5039
X4.9449Y-2.5539
X4.9449Y-2.6039
X5.0787Y-3.522
X5.0787Y-3.572
X5.0787Y-3.622
X5.6614Y-3.5012
X5.6614Y-3.5512
X5.6614Y-3.6012
X5.6929Y-2.5039
X5.6929Y-2.5539
X5.6929Y-2.6039
T2
X3.3858Y-3.1512
X3.3858Y-3.5512
X4.3937Y-2.5984
X4.4094Y-2.9134
X4.4094Y-3.3134
X4.5906Y-2.5984
X5.4457Y-2.9606
X5.4457Y-3.1496
X5.8457Y-2.9606
X5.8457Y-3.1496
T3
X2.9921Y-2.8449
X2.9921Y-2.9449
X2.9921Y-3.1939
X2.9921Y-3.2939
X6.1811Y-3.0118
T4
X4.6976Y-2.9213
X4.6976Y-3.1417
X5.0976Y-2.9213
X5.0976Y-3.1417
M30
