%TF.GenerationSoftware,KiCad,Pcbnew,8.0.4*%
%TF.CreationDate,2024-10-21T15:03:49+02:00*%
%TF.ProjectId,GiugPamp_101,47697567-5061-46d7-905f-3130312e6b69,rev?*%
%TF.SameCoordinates,Original*%
%TF.FileFunction,Legend,Top*%
%TF.FilePolarity,Positive*%
%FSLAX46Y46*%
G04 Gerber Fmt 4.6, Leading zero omitted, Abs format (unit mm)*
G04 Created by KiCad (PCBNEW 8.0.4) date 2024-10-21 15:03:49*
%MOMM*%
%LPD*%
G01*
G04 APERTURE LIST*
%ADD10C,0.200000*%
%ADD11C,0.150000*%
%ADD12C,0.300000*%
%ADD13C,0.120000*%
%ADD14C,0.000000*%
G04 APERTURE END LIST*
D10*
G36*
X99637364Y-83390030D02*
G01*
X99639928Y-83494077D01*
X99640596Y-83591908D01*
X99640567Y-83608352D01*
X99638703Y-83717632D01*
X99633941Y-83816721D01*
X99624950Y-83917487D01*
X99610310Y-84014937D01*
X99600163Y-84062213D01*
X99569000Y-84157869D01*
X99516521Y-84242083D01*
X99448264Y-84291170D01*
X99350924Y-84310471D01*
X99250785Y-84299235D01*
X99175558Y-84257226D01*
X99633757Y-83314448D01*
X99637364Y-83390030D01*
G37*
G36*
X99377611Y-82866389D02*
G01*
X99475000Y-82889954D01*
X99496454Y-82902533D01*
X99560484Y-82978370D01*
X99074930Y-83989535D01*
X99068003Y-83912348D01*
X99062229Y-83813192D01*
X99061199Y-83787844D01*
X99058558Y-83685040D01*
X99057833Y-83586046D01*
X99057901Y-83561843D01*
X99060306Y-83447452D01*
X99066145Y-83344104D01*
X99077685Y-83234664D01*
X99097400Y-83127083D01*
X99128175Y-83030638D01*
X99168475Y-82958403D01*
X99248159Y-82888748D01*
X99350924Y-82865530D01*
X99377611Y-82866389D01*
G37*
G36*
X94158429Y-82921532D02*
G01*
X94258356Y-82932552D01*
X94355128Y-82966555D01*
X94436121Y-83034876D01*
X94482754Y-83134052D01*
X94495376Y-83243618D01*
X94489850Y-83327912D01*
X94464206Y-83423976D01*
X94406960Y-83507889D01*
X94358417Y-83544433D01*
X94261042Y-83581549D01*
X94160764Y-83591420D01*
X93975628Y-83591420D01*
X93975628Y-82921217D01*
X94136339Y-82921217D01*
X94158429Y-82921532D01*
G37*
G36*
X90953367Y-83810261D02*
G01*
X90522522Y-83810261D01*
X90737944Y-82920240D01*
X90953367Y-83810261D01*
G37*
G36*
X102015086Y-85338694D02*
G01*
X81117258Y-85338694D01*
X81117258Y-85116472D01*
X88304309Y-85116472D01*
X89739968Y-85116472D01*
X95190003Y-85116472D01*
X96625662Y-85116472D01*
X96625662Y-84741315D01*
X95190003Y-84741315D01*
X95190003Y-85116472D01*
X89739968Y-85116472D01*
X89739968Y-84741315D01*
X88304309Y-84741315D01*
X88304309Y-85116472D01*
X81117258Y-85116472D01*
X81117258Y-83581161D01*
X81339480Y-83581161D01*
X81340352Y-83645342D01*
X81347328Y-83767876D01*
X81361280Y-83882639D01*
X81382209Y-83989633D01*
X81410113Y-84088856D01*
X81444994Y-84180310D01*
X81498406Y-84283701D01*
X81562718Y-84374951D01*
X81606339Y-84423663D01*
X81686885Y-84494202D01*
X81777233Y-84551432D01*
X81877384Y-84595353D01*
X81987339Y-84625965D01*
X82107097Y-84643267D01*
X82209961Y-84647526D01*
X82272830Y-84646238D01*
X82382026Y-84637428D01*
X82486122Y-84620272D01*
X82585118Y-84594769D01*
X82627746Y-84581137D01*
X82721036Y-84546336D01*
X82810694Y-84505815D01*
X82906053Y-84454085D01*
X82906053Y-83435104D01*
X82165020Y-83435104D01*
X82211427Y-83772159D01*
X82461043Y-83772159D01*
X82461043Y-84247944D01*
X82440767Y-84258174D01*
X82345760Y-84293374D01*
X82314436Y-84300853D01*
X82213869Y-84310471D01*
X82189539Y-84309865D01*
X82086556Y-84291032D01*
X81995516Y-84241594D01*
X81955246Y-84201294D01*
X81901399Y-84111844D01*
X81867044Y-84012983D01*
X81864460Y-84002923D01*
X81844891Y-83902720D01*
X81833075Y-83799055D01*
X81827045Y-83697077D01*
X81825034Y-83584581D01*
X81825093Y-83568497D01*
X81828790Y-83461330D01*
X81838236Y-83363653D01*
X81856074Y-83263643D01*
X81885118Y-83165949D01*
X81922629Y-83082701D01*
X81977816Y-82999634D01*
X82049738Y-82932452D01*
X82089786Y-82907385D01*
X82183627Y-82870865D01*
X82287142Y-82858691D01*
X82381824Y-82867707D01*
X82476674Y-82899724D01*
X82487142Y-82905027D01*
X82572811Y-82959951D01*
X82650575Y-83026242D01*
X82748987Y-82921217D01*
X83211845Y-82921217D01*
X83622662Y-82921217D01*
X83622662Y-84247944D01*
X83211845Y-84247944D01*
X83211845Y-84585000D01*
X84503890Y-84585000D01*
X84503890Y-84247944D01*
X84093562Y-84247944D01*
X84093562Y-83924078D01*
X84838503Y-83924078D01*
X84841371Y-84002841D01*
X84854117Y-84102141D01*
X84880646Y-84206044D01*
X84920080Y-84301678D01*
X84947729Y-84350782D01*
X85007595Y-84430453D01*
X85080444Y-84498919D01*
X85166277Y-84556179D01*
X85265521Y-84600336D01*
X85364897Y-84627454D01*
X85474776Y-84643155D01*
X85579535Y-84647526D01*
X85683510Y-84642968D01*
X85792664Y-84626596D01*
X85891498Y-84598317D01*
X85990352Y-84552271D01*
X86039792Y-84520846D01*
X86118686Y-84455927D01*
X86184597Y-84380265D01*
X86237526Y-84293862D01*
X86265581Y-84231002D01*
X86296781Y-84131109D01*
X86314920Y-84024493D01*
X86320080Y-83924078D01*
X86320080Y-83581161D01*
X86503750Y-83581161D01*
X86504622Y-83645342D01*
X86511599Y-83767876D01*
X86525551Y-83882639D01*
X86546480Y-83989633D01*
X86574384Y-84088856D01*
X86609265Y-84180310D01*
X86662677Y-84283701D01*
X86726988Y-84374951D01*
X86770610Y-84423663D01*
X86851155Y-84494202D01*
X86941504Y-84551432D01*
X87041655Y-84595353D01*
X87151610Y-84625965D01*
X87271367Y-84643267D01*
X87374232Y-84647526D01*
X87437101Y-84646238D01*
X87546297Y-84637428D01*
X87650393Y-84620272D01*
X87749389Y-84594769D01*
X87779937Y-84585000D01*
X91653855Y-84585000D01*
X92057344Y-84585000D01*
X92071510Y-83741873D01*
X92072640Y-83664692D01*
X92073096Y-83566545D01*
X92071999Y-83462459D01*
X92071426Y-83432471D01*
X92068100Y-83330276D01*
X92062718Y-83232383D01*
X92060461Y-83197678D01*
X92052874Y-83096699D01*
X92044155Y-82997909D01*
X92285467Y-84244036D01*
X92641573Y-84244036D01*
X92865788Y-82997909D01*
X92862654Y-83038939D01*
X92855175Y-83139589D01*
X92848203Y-83238244D01*
X92846959Y-83258297D01*
X92841900Y-83361137D01*
X92838921Y-83460994D01*
X92838325Y-83529674D01*
X92839092Y-83631466D01*
X92841364Y-83735034D01*
X92865788Y-84585000D01*
X93276116Y-84585000D01*
X93220567Y-83591420D01*
X93504239Y-83591420D01*
X93504239Y-84600143D01*
X93975628Y-84600143D01*
X93975628Y-83928475D01*
X94191050Y-83928475D01*
X94205709Y-83928402D01*
X94305172Y-83923804D01*
X94412090Y-83909790D01*
X94511802Y-83886434D01*
X94604309Y-83853736D01*
X94658083Y-83828484D01*
X94745078Y-83773474D01*
X94819478Y-83706176D01*
X94881280Y-83626591D01*
X94924664Y-83545075D01*
X94958654Y-83441253D01*
X94975698Y-83338198D01*
X94980443Y-83239710D01*
X94979573Y-83199087D01*
X94966521Y-83085074D01*
X94937807Y-82982841D01*
X94934655Y-82976416D01*
X96934385Y-82976416D01*
X97126849Y-83291978D01*
X97536200Y-83033080D01*
X97536200Y-84247944D01*
X97056507Y-84247944D01*
X97056507Y-84585000D01*
X98350017Y-84585000D01*
X98350017Y-84247944D01*
X97978279Y-84247944D01*
X97978279Y-83584581D01*
X98631385Y-83584581D01*
X98631393Y-83586046D01*
X98631561Y-83615571D01*
X98635785Y-83735284D01*
X98645643Y-83848204D01*
X98661133Y-83954332D01*
X98682256Y-84053666D01*
X98716582Y-84168281D01*
X98753465Y-84257226D01*
X98759708Y-84272282D01*
X98811636Y-84365669D01*
X98859492Y-84431729D01*
X98941752Y-84514305D01*
X99036584Y-84577062D01*
X99143986Y-84620001D01*
X99243090Y-84640644D01*
X99350924Y-84647526D01*
X99437218Y-84643122D01*
X99537401Y-84625230D01*
X99646348Y-84585594D01*
X99743000Y-84526140D01*
X99827355Y-84446868D01*
X99888258Y-84365669D01*
X99899438Y-84347841D01*
X99950014Y-84252331D01*
X99991716Y-84146207D01*
X100024546Y-84029469D01*
X100044421Y-83928437D01*
X100058618Y-83820611D01*
X100067136Y-83705992D01*
X100069975Y-83584581D01*
X100069798Y-83553654D01*
X100065539Y-83434231D01*
X100055601Y-83321661D01*
X100039985Y-83215946D01*
X100018690Y-83117085D01*
X99984086Y-83003147D01*
X99972827Y-82976416D01*
X100377233Y-82976416D01*
X100569696Y-83291978D01*
X100979047Y-83033080D01*
X100979047Y-84247944D01*
X100499354Y-84247944D01*
X100499354Y-84585000D01*
X101792864Y-84585000D01*
X101792864Y-84247944D01*
X101421127Y-84247944D01*
X101421127Y-82568531D01*
X101019103Y-82568531D01*
X100377233Y-82976416D01*
X99972827Y-82976416D01*
X99940608Y-82899919D01*
X99888258Y-82807400D01*
X99840219Y-82742027D01*
X99757913Y-82660311D01*
X99663311Y-82598206D01*
X99556413Y-82555714D01*
X99457938Y-82535284D01*
X99350924Y-82528475D01*
X99263958Y-82532833D01*
X99163108Y-82550538D01*
X99053611Y-82589762D01*
X98956685Y-82648598D01*
X98872329Y-82727046D01*
X98811636Y-82807400D01*
X98800546Y-82825047D01*
X98750379Y-82919708D01*
X98709012Y-83025078D01*
X98676448Y-83141158D01*
X98656733Y-83241733D01*
X98642650Y-83349161D01*
X98634201Y-83463444D01*
X98631385Y-83584581D01*
X97978279Y-83584581D01*
X97978279Y-82568531D01*
X97576256Y-82568531D01*
X96934385Y-82976416D01*
X94934655Y-82976416D01*
X94893431Y-82892389D01*
X94833393Y-82813718D01*
X94757693Y-82746828D01*
X94743623Y-82736820D01*
X94651712Y-82683445D01*
X94546955Y-82641508D01*
X94449844Y-82615297D01*
X94343813Y-82597029D01*
X94228862Y-82586704D01*
X94130478Y-82584162D01*
X93504239Y-82584162D01*
X93504239Y-83591420D01*
X93220567Y-83591420D01*
X93164253Y-82584162D01*
X92680652Y-82584162D01*
X92470603Y-83881092D01*
X92249808Y-82584162D01*
X91765718Y-82584162D01*
X91653855Y-84585000D01*
X87779937Y-84585000D01*
X87781466Y-84584511D01*
X89850366Y-84584511D01*
X90343248Y-84584511D01*
X90447784Y-84147316D01*
X91031036Y-84147316D01*
X91135572Y-84584511D01*
X91639689Y-84584511D01*
X91031036Y-82568531D01*
X90459508Y-82568531D01*
X90084311Y-83810261D01*
X89850366Y-84584511D01*
X87781466Y-84584511D01*
X87792017Y-84581137D01*
X87885307Y-84546336D01*
X87974964Y-84505815D01*
X88070324Y-84454085D01*
X88070324Y-83435104D01*
X87329291Y-83435104D01*
X87375697Y-83772159D01*
X87625314Y-83772159D01*
X87625314Y-84247944D01*
X87605038Y-84258174D01*
X87510031Y-84293374D01*
X87478707Y-84300853D01*
X87378140Y-84310471D01*
X87353809Y-84309865D01*
X87250827Y-84291032D01*
X87159787Y-84241594D01*
X87119517Y-84201294D01*
X87065670Y-84111844D01*
X87031315Y-84012983D01*
X87028730Y-84002923D01*
X87009161Y-83902720D01*
X86997346Y-83799055D01*
X86991315Y-83697077D01*
X86989305Y-83584581D01*
X86989364Y-83568497D01*
X86993060Y-83461330D01*
X87002507Y-83363653D01*
X87020345Y-83263643D01*
X87049389Y-83165949D01*
X87086900Y-83082701D01*
X87142087Y-82999634D01*
X87214009Y-82932452D01*
X87254057Y-82907385D01*
X87347898Y-82870865D01*
X87451413Y-82858691D01*
X87546095Y-82867707D01*
X87640945Y-82899724D01*
X87651413Y-82905027D01*
X87737081Y-82959951D01*
X87814846Y-83026242D01*
X88062020Y-82762459D01*
X88047358Y-82749070D01*
X87970154Y-82687103D01*
X87886463Y-82633436D01*
X87796284Y-82588070D01*
X87737808Y-82565493D01*
X87641015Y-82540385D01*
X87533326Y-82525788D01*
X87428454Y-82521636D01*
X87364615Y-82523536D01*
X87256570Y-82536009D01*
X87153200Y-82560121D01*
X87054505Y-82595875D01*
X86960484Y-82643269D01*
X86897096Y-82683929D01*
X86815404Y-82750270D01*
X86741941Y-82827597D01*
X86676705Y-82915911D01*
X86627337Y-83000352D01*
X86598372Y-83061039D01*
X86562164Y-83158451D01*
X86534647Y-83263524D01*
X86515819Y-83376255D01*
X86506768Y-83476049D01*
X86503750Y-83581161D01*
X86320080Y-83581161D01*
X86320080Y-82584162D01*
X85847714Y-82584162D01*
X85847714Y-83758482D01*
X85845377Y-83872090D01*
X85838364Y-83972702D01*
X85824626Y-84071773D01*
X85798866Y-84171741D01*
X85766839Y-84232435D01*
X85682369Y-84294078D01*
X85579535Y-84310471D01*
X85501683Y-84301800D01*
X85413527Y-84256279D01*
X85359717Y-84171741D01*
X85356712Y-84162937D01*
X85331906Y-84060317D01*
X85318930Y-83959124D01*
X85312586Y-83856656D01*
X85310868Y-83758482D01*
X85310868Y-82584162D01*
X84838503Y-82584162D01*
X84838503Y-83924078D01*
X84093562Y-83924078D01*
X84093562Y-82921217D01*
X84503890Y-82921217D01*
X84503890Y-82584162D01*
X83211845Y-82584162D01*
X83211845Y-82921217D01*
X82748987Y-82921217D01*
X82897749Y-82762459D01*
X82883087Y-82749070D01*
X82805883Y-82687103D01*
X82722192Y-82633436D01*
X82632013Y-82588070D01*
X82573538Y-82565493D01*
X82476744Y-82540385D01*
X82369055Y-82525788D01*
X82264183Y-82521636D01*
X82200344Y-82523536D01*
X82092299Y-82536009D01*
X81988929Y-82560121D01*
X81890234Y-82595875D01*
X81796214Y-82643269D01*
X81732825Y-82683929D01*
X81651133Y-82750270D01*
X81577670Y-82827597D01*
X81512434Y-82915911D01*
X81463066Y-83000352D01*
X81434101Y-83061039D01*
X81397894Y-83158451D01*
X81370376Y-83263524D01*
X81351549Y-83376255D01*
X81342497Y-83476049D01*
X81339480Y-83581161D01*
X81117258Y-83581161D01*
X81117258Y-82299414D01*
X102015086Y-82299414D01*
X102015086Y-85338694D01*
G37*
D11*
X47477619Y-62124819D02*
X47810952Y-63124819D01*
X47810952Y-63124819D02*
X48144285Y-62124819D01*
X48477619Y-62743866D02*
X49239524Y-62743866D01*
X48858571Y-63124819D02*
X48858571Y-62362914D01*
D12*
G36*
X91802721Y-58628234D02*
G01*
X91833564Y-58630547D01*
X91904937Y-58654246D01*
X91909418Y-58657307D01*
X91941939Y-58723489D01*
X91931681Y-58772948D01*
X91896510Y-58815446D01*
X91831664Y-58845854D01*
X91807694Y-58851522D01*
X91732745Y-58857578D01*
X91657923Y-58852599D01*
X91585833Y-58831566D01*
X91568153Y-58820962D01*
X91533810Y-58755362D01*
X91536741Y-58724221D01*
X91549930Y-58693080D01*
X91575575Y-58659741D01*
X91618440Y-58623105D01*
X91802721Y-58628234D01*
G37*
G36*
X91771195Y-57853759D02*
G01*
X91839724Y-57886713D01*
X91864951Y-57918638D01*
X91881123Y-57990394D01*
X91871231Y-58043883D01*
X91842655Y-58088946D01*
X91794661Y-58119720D01*
X91726517Y-58130711D01*
X91680117Y-58126382D01*
X91612212Y-58094075D01*
X91588850Y-58065727D01*
X91571179Y-57994057D01*
X91580338Y-57939103D01*
X91608548Y-57892575D01*
X91656542Y-57861067D01*
X91723586Y-57849344D01*
X91771195Y-57853759D01*
G37*
G36*
X96260214Y-57849588D02*
G01*
X96333273Y-57865006D01*
X96392899Y-57911992D01*
X96408733Y-57937009D01*
X96432054Y-58008306D01*
X96436863Y-58083817D01*
X96049249Y-58083817D01*
X96050447Y-58065750D01*
X96064270Y-57992226D01*
X96066774Y-57984288D01*
X96101273Y-57917854D01*
X96104344Y-57913967D01*
X96162090Y-57868028D01*
X96173851Y-57862645D01*
X96248185Y-57849344D01*
X96260214Y-57849588D01*
G37*
G36*
X99416841Y-59211824D02*
G01*
X88183437Y-59211824D01*
X88183437Y-58796029D01*
X91283583Y-58796029D01*
X91285496Y-58826039D01*
X91307763Y-58896413D01*
X91327807Y-58926382D01*
X91385066Y-58975181D01*
X91449884Y-59006079D01*
X91520987Y-59026472D01*
X91570462Y-59035504D01*
X91644814Y-59042949D01*
X91721388Y-59045157D01*
X91786783Y-59043099D01*
X91860177Y-59034996D01*
X91932048Y-59019145D01*
X91943239Y-59015865D01*
X92014846Y-58988736D01*
X92082257Y-58948803D01*
X92128760Y-58906608D01*
X92171650Y-58843290D01*
X92192186Y-58788853D01*
X92201692Y-58714330D01*
X92199509Y-58676727D01*
X92179344Y-58603321D01*
X92165414Y-58577043D01*
X92115596Y-58520157D01*
X92081490Y-58496268D01*
X92040203Y-58478391D01*
X92315631Y-58478391D01*
X92321127Y-58550931D01*
X92340177Y-58589766D01*
X92384141Y-58620907D01*
X92391978Y-58625280D01*
X92459979Y-58654612D01*
X92492813Y-58665132D01*
X92564392Y-58682090D01*
X92618218Y-58689853D01*
X92692986Y-58693447D01*
X92730755Y-58692507D01*
X92809670Y-58684018D01*
X92884595Y-58666702D01*
X92906674Y-58659518D01*
X92978271Y-58627972D01*
X93041032Y-58586468D01*
X93057358Y-58572776D01*
X93107648Y-58518359D01*
X93147278Y-58453845D01*
X93162553Y-58417836D01*
X93180966Y-58344450D01*
X93186479Y-58269197D01*
X93181710Y-58202739D01*
X93161566Y-58129246D01*
X93140941Y-58086896D01*
X93096720Y-58025931D01*
X93065121Y-57994710D01*
X93005129Y-57950460D01*
X92966128Y-57927808D01*
X92899982Y-57894406D01*
X92863425Y-57877625D01*
X92794836Y-57847512D01*
X92769694Y-57836154D01*
X92702512Y-57799884D01*
X92692603Y-57793450D01*
X92637665Y-57741999D01*
X92633344Y-57735782D01*
X92632826Y-57733939D01*
X93236304Y-57733939D01*
X93249494Y-57788161D01*
X93566032Y-58624204D01*
X93581786Y-58651315D01*
X93606332Y-58670000D01*
X93483600Y-58978845D01*
X93477372Y-59008886D01*
X93490561Y-59029403D01*
X93527564Y-59041493D01*
X93593876Y-59045157D01*
X93639807Y-59044047D01*
X93714410Y-59033799D01*
X93764968Y-58996430D01*
X93875976Y-58670000D01*
X93931893Y-58507334D01*
X94269085Y-58507334D01*
X94275314Y-58576577D01*
X94292899Y-58611748D01*
X94328803Y-58637027D01*
X94390718Y-58663771D01*
X94402523Y-58667671D01*
X94474616Y-58685020D01*
X94498361Y-58688707D01*
X94573168Y-58693447D01*
X94578513Y-58693427D01*
X94655691Y-58688409D01*
X94731803Y-58673297D01*
X94792130Y-58652129D01*
X94858565Y-58613579D01*
X94898272Y-58577691D01*
X94941730Y-58513928D01*
X94963712Y-58449906D01*
X94971039Y-58376542D01*
X94969474Y-58342664D01*
X94951256Y-58268464D01*
X94943536Y-58251755D01*
X94899965Y-58190062D01*
X94887690Y-58178071D01*
X94827058Y-58134741D01*
X94811770Y-58126429D01*
X94744626Y-58095174D01*
X94731698Y-58089865D01*
X94662194Y-58063667D01*
X94657145Y-58061872D01*
X94589654Y-58032892D01*
X94537997Y-57995157D01*
X94518579Y-57941667D01*
X94526639Y-57905397D01*
X94551552Y-57875722D01*
X94593684Y-57856304D01*
X94654501Y-57849344D01*
X94669688Y-57849621D01*
X94742428Y-57860701D01*
X94810572Y-57884515D01*
X94859298Y-57908695D01*
X94888607Y-57919685D01*
X94902896Y-57916022D01*
X94912787Y-57901734D01*
X94917916Y-57873524D01*
X94919382Y-57826995D01*
X94918063Y-57790725D01*
X95031123Y-57790725D01*
X95031163Y-57797698D01*
X95041381Y-57872058D01*
X95071423Y-57896238D01*
X95181332Y-57896238D01*
X95181332Y-58365551D01*
X95185196Y-58439638D01*
X95198918Y-58511730D01*
X95213302Y-58551578D01*
X95253506Y-58613946D01*
X95281240Y-58639184D01*
X95346929Y-58673663D01*
X95404674Y-58687863D01*
X95481018Y-58693447D01*
X95538171Y-58690516D01*
X95590928Y-58682090D01*
X95633060Y-58669267D01*
X95660170Y-58652048D01*
X95675191Y-58619075D01*
X95681053Y-58551297D01*
X95678489Y-58505502D01*
X95672627Y-58476926D01*
X95663834Y-58462271D01*
X95652110Y-58458607D01*
X95636357Y-58462271D01*
X95614375Y-58470697D01*
X95585066Y-58478757D01*
X95548063Y-58482421D01*
X95529961Y-58481500D01*
X95463433Y-58444685D01*
X95447404Y-58404194D01*
X95439986Y-58331113D01*
X95439986Y-58187864D01*
X95785467Y-58187864D01*
X95787872Y-58257413D01*
X95797345Y-58335412D01*
X95815875Y-58411713D01*
X95826147Y-58440684D01*
X95860054Y-58508557D01*
X95908199Y-58569616D01*
X95928281Y-58588310D01*
X95992315Y-58632468D01*
X96062072Y-58662672D01*
X96129138Y-58680193D01*
X96203390Y-58690441D01*
X96277128Y-58693447D01*
X96330867Y-58691875D01*
X96404623Y-58683921D01*
X96437319Y-58678509D01*
X96510868Y-58662306D01*
X96516619Y-58660702D01*
X96587072Y-58636294D01*
X96623709Y-58616144D01*
X96634699Y-58601856D01*
X96640561Y-58583171D01*
X96643859Y-58556427D01*
X96644958Y-58518691D01*
X96643492Y-58477292D01*
X96637630Y-58451646D01*
X96627372Y-58439190D01*
X96611985Y-58435526D01*
X96571685Y-58446517D01*
X96509403Y-58470697D01*
X96492227Y-58476362D01*
X96420010Y-58494877D01*
X96375555Y-58501994D01*
X96300575Y-58505868D01*
X96260726Y-58504151D01*
X96185903Y-58488283D01*
X96168524Y-58481122D01*
X96107501Y-58436992D01*
X96094987Y-58421562D01*
X96063171Y-58355293D01*
X96055830Y-58324030D01*
X96049249Y-58247948D01*
X96608688Y-58247948D01*
X96666939Y-58225233D01*
X96688189Y-58154891D01*
X96688189Y-58113492D01*
X96687580Y-58083501D01*
X96680306Y-58008791D01*
X96663276Y-57933607D01*
X96660097Y-57923345D01*
X96629234Y-57851941D01*
X96585973Y-57790359D01*
X96575889Y-57779256D01*
X96517645Y-57730699D01*
X96508502Y-57725879D01*
X96895551Y-57725879D01*
X96895551Y-58629333D01*
X96901779Y-58647285D01*
X96922662Y-58660108D01*
X96962229Y-58667435D01*
X97025244Y-58670000D01*
X97088258Y-58667435D01*
X97127826Y-58660108D01*
X97149075Y-58647651D01*
X97155303Y-58629699D01*
X97155303Y-58033991D01*
X97201665Y-57981177D01*
X97257152Y-57931409D01*
X97280943Y-57916022D01*
X97352041Y-57896238D01*
X97417254Y-57910893D01*
X97462316Y-57952292D01*
X97488695Y-58016039D01*
X97490266Y-58023048D01*
X97497487Y-58098105D01*
X97497487Y-58629699D01*
X97503715Y-58647651D01*
X97524598Y-58660108D01*
X97564166Y-58667435D01*
X97627180Y-58670000D01*
X97689096Y-58667435D01*
X97728663Y-58660108D01*
X97749912Y-58647651D01*
X97756140Y-58629699D01*
X97756140Y-58033991D01*
X97803254Y-57981177D01*
X97859089Y-57931409D01*
X97879730Y-57917705D01*
X97952878Y-57896238D01*
X98018091Y-57910893D01*
X98063520Y-57952292D01*
X98090265Y-58016039D01*
X98091836Y-58023048D01*
X98099057Y-58098105D01*
X98099057Y-58629699D01*
X98104553Y-58647651D01*
X98125436Y-58660108D01*
X98165003Y-58667435D01*
X98228750Y-58670000D01*
X98291399Y-58667435D01*
X98330600Y-58659741D01*
X98351482Y-58647285D01*
X98357711Y-58629333D01*
X98357711Y-58507334D01*
X98548220Y-58507334D01*
X98554448Y-58576577D01*
X98572034Y-58611748D01*
X98607937Y-58637027D01*
X98669853Y-58663771D01*
X98681658Y-58667671D01*
X98753750Y-58685020D01*
X98777495Y-58688707D01*
X98852302Y-58693447D01*
X98857648Y-58693427D01*
X98934826Y-58688409D01*
X99010938Y-58673297D01*
X99071265Y-58652129D01*
X99137700Y-58613579D01*
X99177407Y-58577691D01*
X99220865Y-58513928D01*
X99242847Y-58449906D01*
X99250174Y-58376542D01*
X99248609Y-58342664D01*
X99230390Y-58268464D01*
X99222671Y-58251755D01*
X99179099Y-58190062D01*
X99166825Y-58178071D01*
X99106193Y-58134741D01*
X99090904Y-58126429D01*
X99023761Y-58095174D01*
X99010833Y-58089865D01*
X98941329Y-58063667D01*
X98936280Y-58061872D01*
X98868789Y-58032892D01*
X98817131Y-57995157D01*
X98797714Y-57941667D01*
X98805774Y-57905397D01*
X98830687Y-57875722D01*
X98872819Y-57856304D01*
X98933635Y-57849344D01*
X98948823Y-57849621D01*
X99021563Y-57860701D01*
X99089706Y-57884515D01*
X99138433Y-57908695D01*
X99167742Y-57919685D01*
X99182030Y-57916022D01*
X99191922Y-57901734D01*
X99197051Y-57873524D01*
X99198517Y-57826995D01*
X99197051Y-57786695D01*
X99193387Y-57759218D01*
X99187159Y-57740167D01*
X99173237Y-57724047D01*
X99140631Y-57704996D01*
X99085310Y-57684113D01*
X99083241Y-57683521D01*
X99011304Y-57668360D01*
X99001098Y-57666814D01*
X98927407Y-57661765D01*
X98922020Y-57661786D01*
X98845158Y-57667169D01*
X98771336Y-57683381D01*
X98718285Y-57703785D01*
X98653367Y-57743831D01*
X98620239Y-57775223D01*
X98578995Y-57837620D01*
X98562390Y-57884024D01*
X98553349Y-57958154D01*
X98555210Y-57996665D01*
X98572400Y-58068796D01*
X98579982Y-58085643D01*
X98622958Y-58147930D01*
X98633001Y-58157878D01*
X98694033Y-58203251D01*
X98709060Y-58211589D01*
X98775366Y-58243551D01*
X98785773Y-58247810D01*
X98856699Y-58275059D01*
X98859186Y-58275954D01*
X98928140Y-58305833D01*
X98978698Y-58344302D01*
X98997749Y-58397058D01*
X98987491Y-58444319D01*
X98957083Y-58478391D01*
X98909455Y-58498907D01*
X98847173Y-58505868D01*
X98820062Y-58504929D01*
X98747522Y-58490847D01*
X98739441Y-58488012D01*
X98670952Y-58458607D01*
X98615631Y-58426734D01*
X98582292Y-58412079D01*
X98566905Y-58415743D01*
X98556280Y-58430397D01*
X98550052Y-58459340D01*
X98548220Y-58507334D01*
X98357711Y-58507334D01*
X98357711Y-58047180D01*
X98353589Y-57970793D01*
X98341224Y-57898436D01*
X98322521Y-57840323D01*
X98285903Y-57775704D01*
X98247545Y-57733820D01*
X98184420Y-57692540D01*
X98176476Y-57688813D01*
X98104783Y-57667655D01*
X98030181Y-57661765D01*
X98025149Y-57661805D01*
X97951046Y-57672023D01*
X97943830Y-57673971D01*
X97873743Y-57702431D01*
X97856861Y-57711986D01*
X97795708Y-57755554D01*
X97768289Y-57779443D01*
X97714741Y-57833224D01*
X97711373Y-57826006D01*
X97671510Y-57762882D01*
X97666615Y-57756989D01*
X97610327Y-57708660D01*
X97598981Y-57701821D01*
X97529361Y-57673855D01*
X97502909Y-57668011D01*
X97427145Y-57661765D01*
X97411747Y-57662135D01*
X97336496Y-57675096D01*
X97268876Y-57703897D01*
X97226366Y-57730900D01*
X97169505Y-57777182D01*
X97117201Y-57829926D01*
X97117201Y-57725512D01*
X97112072Y-57707927D01*
X97094853Y-57695471D01*
X97061514Y-57687777D01*
X97006926Y-57685212D01*
X96953803Y-57687777D01*
X96918998Y-57695471D01*
X96900680Y-57707927D01*
X96895551Y-57725879D01*
X96508502Y-57725879D01*
X96451517Y-57695837D01*
X96402895Y-57679367D01*
X96329771Y-57665791D01*
X96254413Y-57661765D01*
X96207700Y-57663483D01*
X96132516Y-57674422D01*
X96058042Y-57697669D01*
X96026271Y-57712266D01*
X95963798Y-57751670D01*
X95910031Y-57801716D01*
X95884809Y-57832967D01*
X95845316Y-57898631D01*
X95817341Y-57968046D01*
X95799194Y-58038154D01*
X95792802Y-58083817D01*
X95788580Y-58113976D01*
X95785467Y-58187864D01*
X95439986Y-58187864D01*
X95439986Y-57896238D01*
X95640753Y-57896238D01*
X95670795Y-57872058D01*
X95673199Y-57865418D01*
X95681053Y-57790725D01*
X95678489Y-57740167D01*
X95670795Y-57707561D01*
X95657972Y-57690341D01*
X95640020Y-57685212D01*
X95439986Y-57685212D01*
X95439986Y-57472355D01*
X95433757Y-57452937D01*
X95412875Y-57438649D01*
X95373307Y-57430223D01*
X95310293Y-57427292D01*
X95247644Y-57430223D01*
X95207711Y-57438649D01*
X95186828Y-57452937D01*
X95181332Y-57472355D01*
X95181332Y-57685212D01*
X95072156Y-57685212D01*
X95054204Y-57690341D01*
X95041381Y-57707561D01*
X95033688Y-57740167D01*
X95031123Y-57790725D01*
X94918063Y-57790725D01*
X94917916Y-57786695D01*
X94914253Y-57759218D01*
X94908025Y-57740167D01*
X94894103Y-57724047D01*
X94861496Y-57704996D01*
X94806175Y-57684113D01*
X94804107Y-57683521D01*
X94732170Y-57668360D01*
X94721963Y-57666814D01*
X94648272Y-57661765D01*
X94642885Y-57661786D01*
X94566024Y-57667169D01*
X94492201Y-57683381D01*
X94439151Y-57703785D01*
X94374232Y-57743831D01*
X94341105Y-57775223D01*
X94299860Y-57837620D01*
X94283255Y-57884024D01*
X94274214Y-57958154D01*
X94276075Y-57996665D01*
X94293265Y-58068796D01*
X94300847Y-58085643D01*
X94343824Y-58147930D01*
X94353866Y-58157878D01*
X94414898Y-58203251D01*
X94429925Y-58211589D01*
X94496231Y-58243551D01*
X94506638Y-58247810D01*
X94577564Y-58275059D01*
X94580052Y-58275954D01*
X94649005Y-58305833D01*
X94699563Y-58344302D01*
X94718614Y-58397058D01*
X94708356Y-58444319D01*
X94677948Y-58478391D01*
X94630321Y-58498907D01*
X94568039Y-58505868D01*
X94540928Y-58504929D01*
X94468387Y-58490847D01*
X94460306Y-58488012D01*
X94391817Y-58458607D01*
X94336496Y-58426734D01*
X94303157Y-58412079D01*
X94287770Y-58415743D01*
X94277145Y-58430397D01*
X94270917Y-58459340D01*
X94269085Y-58507334D01*
X93931893Y-58507334D01*
X94182257Y-57779002D01*
X94190317Y-57734672D01*
X94176395Y-57704630D01*
X94133164Y-57689242D01*
X94059525Y-57685212D01*
X94056009Y-57685216D01*
X93980024Y-57689242D01*
X93947418Y-57702065D01*
X93931664Y-57737236D01*
X93733827Y-58358224D01*
X93730896Y-58358224D01*
X93514375Y-57749326D01*
X93499720Y-57713422D01*
X93478105Y-57694371D01*
X93437805Y-57686678D01*
X93368196Y-57685212D01*
X93365169Y-57685216D01*
X93290160Y-57689242D01*
X93248394Y-57704263D01*
X93236304Y-57733939D01*
X92632826Y-57733939D01*
X92613485Y-57665062D01*
X92624110Y-57608276D01*
X92657083Y-57562114D01*
X92712404Y-57532072D01*
X92716570Y-57530741D01*
X92789706Y-57521081D01*
X92820895Y-57522240D01*
X92893754Y-57535736D01*
X92908351Y-57540281D01*
X92977285Y-57567609D01*
X93037735Y-57600216D01*
X93074005Y-57614870D01*
X93091957Y-57608642D01*
X93102581Y-57589225D01*
X93107711Y-57555153D01*
X93109176Y-57504595D01*
X93108077Y-57459898D01*
X93104413Y-57430223D01*
X93098185Y-57411172D01*
X93084263Y-57393220D01*
X93042131Y-57366842D01*
X93038110Y-57364840D01*
X92968859Y-57337899D01*
X92953239Y-57333284D01*
X92880198Y-57317749D01*
X92859522Y-57314751D01*
X92785676Y-57310055D01*
X92762842Y-57310427D01*
X92685354Y-57317590D01*
X92611653Y-57333869D01*
X92606568Y-57335381D01*
X92535266Y-57363728D01*
X92469504Y-57405676D01*
X92465773Y-57408700D01*
X92412593Y-57463701D01*
X92373883Y-57526577D01*
X92363645Y-57549818D01*
X92344211Y-57620984D01*
X92338346Y-57695104D01*
X92343044Y-57763706D01*
X92362892Y-57838719D01*
X92383637Y-57881292D01*
X92427372Y-57942400D01*
X92458765Y-57973621D01*
X92517498Y-58017871D01*
X92555829Y-58040574D01*
X92621545Y-58074291D01*
X92658138Y-58090907D01*
X92725593Y-58121186D01*
X92750185Y-58132383D01*
X92815718Y-58168447D01*
X92825461Y-58174881D01*
X92880198Y-58226332D01*
X92884651Y-58232559D01*
X92905111Y-58304368D01*
X92905097Y-58306925D01*
X92890457Y-58379106D01*
X92848691Y-58435160D01*
X92782379Y-58469965D01*
X92767318Y-58474198D01*
X92693719Y-58482421D01*
X92635659Y-58479398D01*
X92561461Y-58464103D01*
X92530559Y-58453509D01*
X92462909Y-58423803D01*
X92460359Y-58422432D01*
X92395498Y-58383503D01*
X92354832Y-58365184D01*
X92336880Y-58371046D01*
X92324424Y-58390097D01*
X92317463Y-58424902D01*
X92315631Y-58478391D01*
X92040203Y-58478391D01*
X92012281Y-58466301D01*
X91946885Y-58451005D01*
X91873063Y-58443953D01*
X91649214Y-58435526D01*
X91646281Y-58435371D01*
X91575575Y-58413178D01*
X91549563Y-58360788D01*
X91559089Y-58317191D01*
X91581437Y-58283119D01*
X91642986Y-58307665D01*
X91653124Y-58310155D01*
X91727616Y-58318290D01*
X91733005Y-58318269D01*
X91810140Y-58312886D01*
X91884787Y-58296674D01*
X91942659Y-58273904D01*
X92005321Y-58233293D01*
X92042232Y-58196215D01*
X92082257Y-58130711D01*
X92102315Y-58065224D01*
X92109002Y-57991127D01*
X92099110Y-57927745D01*
X92066503Y-57872791D01*
X92174947Y-57872791D01*
X92202791Y-57850076D01*
X92214148Y-57780101D01*
X92203157Y-57707194D01*
X92174947Y-57685212D01*
X91883321Y-57685212D01*
X91881186Y-57684530D01*
X91809316Y-57667993D01*
X91801865Y-57666880D01*
X91726517Y-57661765D01*
X91721264Y-57661787D01*
X91645734Y-57667444D01*
X91571912Y-57684480D01*
X91514400Y-57708212D01*
X91451378Y-57750059D01*
X91411597Y-57790961D01*
X91372609Y-57854473D01*
X91351452Y-57920601D01*
X91344503Y-57994057D01*
X91344399Y-57995157D01*
X91347439Y-58046762D01*
X91366015Y-58117889D01*
X91377716Y-58141725D01*
X91423534Y-58202519D01*
X91395214Y-58232193D01*
X91351727Y-58295575D01*
X91334759Y-58335864D01*
X91323883Y-58409881D01*
X91325040Y-58431454D01*
X91348063Y-58502205D01*
X91359606Y-58519653D01*
X91416573Y-58568517D01*
X91359787Y-58617976D01*
X91318021Y-58671831D01*
X91292376Y-58731182D01*
X91289097Y-58755362D01*
X91283583Y-58796029D01*
X88183437Y-58796029D01*
X88183437Y-58016406D01*
X88350104Y-58016406D01*
X88351727Y-58074859D01*
X88358940Y-58149151D01*
X88373951Y-58227748D01*
X88396266Y-58301071D01*
X88402242Y-58316630D01*
X88436933Y-58389960D01*
X88479637Y-58455848D01*
X88530355Y-58514295D01*
X88547114Y-58530283D01*
X88607908Y-58578368D01*
X88676286Y-58618439D01*
X88744312Y-58647651D01*
X88801206Y-58665495D01*
X88879043Y-58681998D01*
X88952659Y-58690585D01*
X89030443Y-58693447D01*
X89064489Y-58692946D01*
X89138886Y-58688318D01*
X89172668Y-58684611D01*
X89246231Y-58672930D01*
X89275823Y-58666841D01*
X89348813Y-58648384D01*
X89360926Y-58644829D01*
X89431612Y-58620907D01*
X89475942Y-58585003D01*
X89486933Y-58531147D01*
X89486933Y-58005415D01*
X89481803Y-57969145D01*
X89466782Y-57942400D01*
X89444068Y-57925547D01*
X89414759Y-57919685D01*
X88964497Y-57919685D01*
X88948011Y-57925547D01*
X88935554Y-57943499D01*
X88927861Y-57975739D01*
X88925296Y-58025565D01*
X88925336Y-58032623D01*
X88935554Y-58106898D01*
X88964497Y-58130711D01*
X89216922Y-58130711D01*
X89216922Y-58420505D01*
X89204863Y-58426235D01*
X89134490Y-58449448D01*
X89117828Y-58452685D01*
X89044731Y-58458974D01*
X89027490Y-58458710D01*
X88950694Y-58450495D01*
X88875104Y-58428932D01*
X88865619Y-58425064D01*
X88799952Y-58388844D01*
X88743946Y-58339905D01*
X88733923Y-58328529D01*
X88690185Y-58264210D01*
X88658949Y-58192993D01*
X88644250Y-58141390D01*
X88632134Y-58065913D01*
X88628541Y-57990027D01*
X88629961Y-57945063D01*
X88639003Y-57872059D01*
X88658217Y-57798785D01*
X88664075Y-57782727D01*
X88690602Y-57727711D01*
X89742655Y-57727711D01*
X89742655Y-58629333D01*
X89748883Y-58647285D01*
X89769766Y-58660108D01*
X89809333Y-58667435D01*
X89872348Y-58670000D01*
X89935362Y-58667435D01*
X89974930Y-58660108D01*
X89996179Y-58647285D01*
X90002407Y-58629333D01*
X90002407Y-57727711D01*
X90001758Y-57725879D01*
X90253367Y-57725879D01*
X90253367Y-58282752D01*
X90253630Y-58308146D01*
X90258123Y-58383401D01*
X90270219Y-58456409D01*
X90289564Y-58514412D01*
X90327006Y-58579508D01*
X90366396Y-58621462D01*
X90431053Y-58663039D01*
X90439232Y-58666721D01*
X90513215Y-58687626D01*
X90590422Y-58693447D01*
X90606173Y-58693080D01*
X90683480Y-58680232D01*
X90753454Y-58651681D01*
X90797735Y-58624649D01*
X90856056Y-58578238D01*
X90908792Y-58525286D01*
X90908792Y-58629699D01*
X90913921Y-58647285D01*
X90931507Y-58660108D01*
X90964846Y-58667435D01*
X91020167Y-58670000D01*
X91073290Y-58667435D01*
X91107362Y-58660108D01*
X91125314Y-58647285D01*
X91130443Y-58629333D01*
X91130443Y-57725879D01*
X91124214Y-57707927D01*
X91103698Y-57695471D01*
X91064497Y-57687777D01*
X91001482Y-57685212D01*
X90938468Y-57687777D01*
X90898900Y-57695471D01*
X90878384Y-57707927D01*
X90872889Y-57725879D01*
X90872889Y-58326716D01*
X90824463Y-58377496D01*
X90765910Y-58425268D01*
X90737912Y-58441561D01*
X90666625Y-58458974D01*
X90598115Y-58444319D01*
X90549755Y-58403286D01*
X90521179Y-58339539D01*
X90515598Y-58306875D01*
X90512020Y-58231828D01*
X90512020Y-57725512D01*
X90505792Y-57707927D01*
X90484542Y-57695471D01*
X90444975Y-57687777D01*
X90382327Y-57685212D01*
X90319678Y-57687777D01*
X90279745Y-57695471D01*
X90258862Y-57708293D01*
X90253367Y-57725879D01*
X90001758Y-57725879D01*
X89996179Y-57710125D01*
X89974930Y-57696936D01*
X89935362Y-57688510D01*
X89872348Y-57685212D01*
X89809333Y-57688510D01*
X89769766Y-57696936D01*
X89748883Y-57710125D01*
X89742655Y-57727711D01*
X88690602Y-57727711D01*
X88697374Y-57713665D01*
X88743946Y-57650408D01*
X88750994Y-57642778D01*
X88809421Y-57592584D01*
X88877669Y-57554787D01*
X88902626Y-57545077D01*
X88977358Y-57526644D01*
X89053157Y-57521081D01*
X89064383Y-57521154D01*
X89138154Y-57525752D01*
X89212159Y-57539766D01*
X89260863Y-57553968D01*
X89330129Y-57579699D01*
X89342184Y-57585058D01*
X89409263Y-57620000D01*
X89452861Y-57638318D01*
X89468614Y-57633189D01*
X89479972Y-57615603D01*
X89487299Y-57581531D01*
X89489863Y-57530240D01*
X89489857Y-57527082D01*
X89483635Y-57453304D01*
X89463485Y-57414103D01*
X89452764Y-57407142D01*
X89723237Y-57407142D01*
X89725643Y-57447063D01*
X89753646Y-57514853D01*
X89798342Y-57537110D01*
X89871615Y-57544528D01*
X89920516Y-57541523D01*
X89990317Y-57513754D01*
X90012106Y-57476969D01*
X90022191Y-57401646D01*
X90019727Y-57361696D01*
X89991050Y-57293569D01*
X89949963Y-57271743D01*
X89873813Y-57263161D01*
X89824562Y-57266238D01*
X89754745Y-57294668D01*
X89733207Y-57331704D01*
X89723237Y-57407142D01*
X89452764Y-57407142D01*
X89414392Y-57382229D01*
X89395845Y-57373230D01*
X89326465Y-57348157D01*
X89276546Y-57335034D01*
X89202267Y-57321046D01*
X89197810Y-57320370D01*
X89122408Y-57312470D01*
X89044731Y-57310055D01*
X88986560Y-57311768D01*
X88912246Y-57319382D01*
X88833076Y-57335227D01*
X88758600Y-57358782D01*
X88734886Y-57368229D01*
X88667685Y-57401131D01*
X88599950Y-57445710D01*
X88539515Y-57498733D01*
X88517533Y-57522243D01*
X88468188Y-57586378D01*
X88430630Y-57650646D01*
X88399563Y-57721116D01*
X88377925Y-57788619D01*
X88362469Y-57860334D01*
X88353195Y-57936263D01*
X88350104Y-58016406D01*
X88183437Y-58016406D01*
X88183437Y-57096494D01*
X99416841Y-57096494D01*
X99416841Y-59211824D01*
G37*
D11*
X47201905Y-75074819D02*
X47535238Y-76074819D01*
X47535238Y-76074819D02*
X47868571Y-75074819D01*
X48201905Y-75551009D02*
X48535238Y-75551009D01*
X48678095Y-76074819D02*
X48201905Y-76074819D01*
X48201905Y-76074819D02*
X48201905Y-75074819D01*
X48201905Y-75074819D02*
X48678095Y-75074819D01*
X49106667Y-75551009D02*
X49440000Y-75551009D01*
X49582857Y-76074819D02*
X49106667Y-76074819D01*
X49106667Y-76074819D02*
X49106667Y-75074819D01*
X49106667Y-75074819D02*
X49582857Y-75074819D01*
X47026667Y-72554819D02*
X47360000Y-73554819D01*
X47360000Y-73554819D02*
X47693333Y-72554819D01*
X48598095Y-73459580D02*
X48550476Y-73507200D01*
X48550476Y-73507200D02*
X48407619Y-73554819D01*
X48407619Y-73554819D02*
X48312381Y-73554819D01*
X48312381Y-73554819D02*
X48169524Y-73507200D01*
X48169524Y-73507200D02*
X48074286Y-73411961D01*
X48074286Y-73411961D02*
X48026667Y-73316723D01*
X48026667Y-73316723D02*
X47979048Y-73126247D01*
X47979048Y-73126247D02*
X47979048Y-72983390D01*
X47979048Y-72983390D02*
X48026667Y-72792914D01*
X48026667Y-72792914D02*
X48074286Y-72697676D01*
X48074286Y-72697676D02*
X48169524Y-72602438D01*
X48169524Y-72602438D02*
X48312381Y-72554819D01*
X48312381Y-72554819D02*
X48407619Y-72554819D01*
X48407619Y-72554819D02*
X48550476Y-72602438D01*
X48550476Y-72602438D02*
X48598095Y-72650057D01*
X49598095Y-73459580D02*
X49550476Y-73507200D01*
X49550476Y-73507200D02*
X49407619Y-73554819D01*
X49407619Y-73554819D02*
X49312381Y-73554819D01*
X49312381Y-73554819D02*
X49169524Y-73507200D01*
X49169524Y-73507200D02*
X49074286Y-73411961D01*
X49074286Y-73411961D02*
X49026667Y-73316723D01*
X49026667Y-73316723D02*
X48979048Y-73126247D01*
X48979048Y-73126247D02*
X48979048Y-72983390D01*
X48979048Y-72983390D02*
X49026667Y-72792914D01*
X49026667Y-72792914D02*
X49074286Y-72697676D01*
X49074286Y-72697676D02*
X49169524Y-72602438D01*
X49169524Y-72602438D02*
X49312381Y-72554819D01*
X49312381Y-72554819D02*
X49407619Y-72554819D01*
X49407619Y-72554819D02*
X49550476Y-72602438D01*
X49550476Y-72602438D02*
X49598095Y-72650057D01*
X47487619Y-64874819D02*
X47820952Y-65874819D01*
X47820952Y-65874819D02*
X48154285Y-64874819D01*
X48487619Y-65493866D02*
X49249524Y-65493866D01*
X80333333Y-49649819D02*
X80000000Y-49173628D01*
X79761905Y-49649819D02*
X79761905Y-48649819D01*
X79761905Y-48649819D02*
X80142857Y-48649819D01*
X80142857Y-48649819D02*
X80238095Y-48697438D01*
X80238095Y-48697438D02*
X80285714Y-48745057D01*
X80285714Y-48745057D02*
X80333333Y-48840295D01*
X80333333Y-48840295D02*
X80333333Y-48983152D01*
X80333333Y-48983152D02*
X80285714Y-49078390D01*
X80285714Y-49078390D02*
X80238095Y-49126009D01*
X80238095Y-49126009D02*
X80142857Y-49173628D01*
X80142857Y-49173628D02*
X79761905Y-49173628D01*
X80714286Y-48745057D02*
X80761905Y-48697438D01*
X80761905Y-48697438D02*
X80857143Y-48649819D01*
X80857143Y-48649819D02*
X81095238Y-48649819D01*
X81095238Y-48649819D02*
X81190476Y-48697438D01*
X81190476Y-48697438D02*
X81238095Y-48745057D01*
X81238095Y-48745057D02*
X81285714Y-48840295D01*
X81285714Y-48840295D02*
X81285714Y-48935533D01*
X81285714Y-48935533D02*
X81238095Y-49078390D01*
X81238095Y-49078390D02*
X80666667Y-49649819D01*
X80666667Y-49649819D02*
X81285714Y-49649819D01*
X80954819Y-56369047D02*
X80954819Y-56940475D01*
X80954819Y-56654761D02*
X79954819Y-56654761D01*
X79954819Y-56654761D02*
X80097676Y-56749999D01*
X80097676Y-56749999D02*
X80192914Y-56845237D01*
X80192914Y-56845237D02*
X80240533Y-56940475D01*
X80954819Y-55940475D02*
X79954819Y-55940475D01*
X80573866Y-55845237D02*
X80954819Y-55559523D01*
X80288152Y-55559523D02*
X80669104Y-55940475D01*
X80294761Y-67550057D02*
X80199523Y-67502438D01*
X80199523Y-67502438D02*
X80104285Y-67407200D01*
X80104285Y-67407200D02*
X79961428Y-67264342D01*
X79961428Y-67264342D02*
X79866190Y-67216723D01*
X79866190Y-67216723D02*
X79770952Y-67216723D01*
X79818571Y-67454819D02*
X79723333Y-67407200D01*
X79723333Y-67407200D02*
X79628095Y-67311961D01*
X79628095Y-67311961D02*
X79580476Y-67121485D01*
X79580476Y-67121485D02*
X79580476Y-66788152D01*
X79580476Y-66788152D02*
X79628095Y-66597676D01*
X79628095Y-66597676D02*
X79723333Y-66502438D01*
X79723333Y-66502438D02*
X79818571Y-66454819D01*
X79818571Y-66454819D02*
X80009047Y-66454819D01*
X80009047Y-66454819D02*
X80104285Y-66502438D01*
X80104285Y-66502438D02*
X80199523Y-66597676D01*
X80199523Y-66597676D02*
X80247142Y-66788152D01*
X80247142Y-66788152D02*
X80247142Y-67121485D01*
X80247142Y-67121485D02*
X80199523Y-67311961D01*
X80199523Y-67311961D02*
X80104285Y-67407200D01*
X80104285Y-67407200D02*
X80009047Y-67454819D01*
X80009047Y-67454819D02*
X79818571Y-67454819D01*
X80628095Y-66550057D02*
X80675714Y-66502438D01*
X80675714Y-66502438D02*
X80770952Y-66454819D01*
X80770952Y-66454819D02*
X81009047Y-66454819D01*
X81009047Y-66454819D02*
X81104285Y-66502438D01*
X81104285Y-66502438D02*
X81151904Y-66550057D01*
X81151904Y-66550057D02*
X81199523Y-66645295D01*
X81199523Y-66645295D02*
X81199523Y-66740533D01*
X81199523Y-66740533D02*
X81151904Y-66883390D01*
X81151904Y-66883390D02*
X80580476Y-67454819D01*
X80580476Y-67454819D02*
X81199523Y-67454819D01*
X77645714Y-74050057D02*
X77693333Y-74002438D01*
X77693333Y-74002438D02*
X77788571Y-73954819D01*
X77788571Y-73954819D02*
X78026666Y-73954819D01*
X78026666Y-73954819D02*
X78121904Y-74002438D01*
X78121904Y-74002438D02*
X78169523Y-74050057D01*
X78169523Y-74050057D02*
X78217142Y-74145295D01*
X78217142Y-74145295D02*
X78217142Y-74240533D01*
X78217142Y-74240533D02*
X78169523Y-74383390D01*
X78169523Y-74383390D02*
X77598095Y-74954819D01*
X77598095Y-74954819D02*
X78217142Y-74954819D01*
X78645714Y-74954819D02*
X78645714Y-73954819D01*
X78645714Y-73954819D02*
X79217142Y-74954819D01*
X79217142Y-74954819D02*
X79217142Y-73954819D01*
X79598095Y-73954819D02*
X80217142Y-73954819D01*
X80217142Y-73954819D02*
X79883809Y-74335771D01*
X79883809Y-74335771D02*
X80026666Y-74335771D01*
X80026666Y-74335771D02*
X80121904Y-74383390D01*
X80121904Y-74383390D02*
X80169523Y-74431009D01*
X80169523Y-74431009D02*
X80217142Y-74526247D01*
X80217142Y-74526247D02*
X80217142Y-74764342D01*
X80217142Y-74764342D02*
X80169523Y-74859580D01*
X80169523Y-74859580D02*
X80121904Y-74907200D01*
X80121904Y-74907200D02*
X80026666Y-74954819D01*
X80026666Y-74954819D02*
X79740952Y-74954819D01*
X79740952Y-74954819D02*
X79645714Y-74907200D01*
X79645714Y-74907200D02*
X79598095Y-74859580D01*
X80693333Y-74954819D02*
X80883809Y-74954819D01*
X80883809Y-74954819D02*
X80979047Y-74907200D01*
X80979047Y-74907200D02*
X81026666Y-74859580D01*
X81026666Y-74859580D02*
X81121904Y-74716723D01*
X81121904Y-74716723D02*
X81169523Y-74526247D01*
X81169523Y-74526247D02*
X81169523Y-74145295D01*
X81169523Y-74145295D02*
X81121904Y-74050057D01*
X81121904Y-74050057D02*
X81074285Y-74002438D01*
X81074285Y-74002438D02*
X80979047Y-73954819D01*
X80979047Y-73954819D02*
X80788571Y-73954819D01*
X80788571Y-73954819D02*
X80693333Y-74002438D01*
X80693333Y-74002438D02*
X80645714Y-74050057D01*
X80645714Y-74050057D02*
X80598095Y-74145295D01*
X80598095Y-74145295D02*
X80598095Y-74383390D01*
X80598095Y-74383390D02*
X80645714Y-74478628D01*
X80645714Y-74478628D02*
X80693333Y-74526247D01*
X80693333Y-74526247D02*
X80788571Y-74573866D01*
X80788571Y-74573866D02*
X80979047Y-74573866D01*
X80979047Y-74573866D02*
X81074285Y-74526247D01*
X81074285Y-74526247D02*
X81121904Y-74478628D01*
X81121904Y-74478628D02*
X81169523Y-74383390D01*
X81788571Y-73954819D02*
X81883809Y-73954819D01*
X81883809Y-73954819D02*
X81979047Y-74002438D01*
X81979047Y-74002438D02*
X82026666Y-74050057D01*
X82026666Y-74050057D02*
X82074285Y-74145295D01*
X82074285Y-74145295D02*
X82121904Y-74335771D01*
X82121904Y-74335771D02*
X82121904Y-74573866D01*
X82121904Y-74573866D02*
X82074285Y-74764342D01*
X82074285Y-74764342D02*
X82026666Y-74859580D01*
X82026666Y-74859580D02*
X81979047Y-74907200D01*
X81979047Y-74907200D02*
X81883809Y-74954819D01*
X81883809Y-74954819D02*
X81788571Y-74954819D01*
X81788571Y-74954819D02*
X81693333Y-74907200D01*
X81693333Y-74907200D02*
X81645714Y-74859580D01*
X81645714Y-74859580D02*
X81598095Y-74764342D01*
X81598095Y-74764342D02*
X81550476Y-74573866D01*
X81550476Y-74573866D02*
X81550476Y-74335771D01*
X81550476Y-74335771D02*
X81598095Y-74145295D01*
X81598095Y-74145295D02*
X81645714Y-74050057D01*
X81645714Y-74050057D02*
X81693333Y-74002438D01*
X81693333Y-74002438D02*
X81788571Y-73954819D01*
X82979047Y-74288152D02*
X82979047Y-74954819D01*
X82740952Y-73907200D02*
X82502857Y-74621485D01*
X82502857Y-74621485D02*
X83121904Y-74621485D01*
X98613333Y-77829580D02*
X98565714Y-77877200D01*
X98565714Y-77877200D02*
X98422857Y-77924819D01*
X98422857Y-77924819D02*
X98327619Y-77924819D01*
X98327619Y-77924819D02*
X98184762Y-77877200D01*
X98184762Y-77877200D02*
X98089524Y-77781961D01*
X98089524Y-77781961D02*
X98041905Y-77686723D01*
X98041905Y-77686723D02*
X97994286Y-77496247D01*
X97994286Y-77496247D02*
X97994286Y-77353390D01*
X97994286Y-77353390D02*
X98041905Y-77162914D01*
X98041905Y-77162914D02*
X98089524Y-77067676D01*
X98089524Y-77067676D02*
X98184762Y-76972438D01*
X98184762Y-76972438D02*
X98327619Y-76924819D01*
X98327619Y-76924819D02*
X98422857Y-76924819D01*
X98422857Y-76924819D02*
X98565714Y-76972438D01*
X98565714Y-76972438D02*
X98613333Y-77020057D01*
X99565714Y-77924819D02*
X98994286Y-77924819D01*
X99280000Y-77924819D02*
X99280000Y-76924819D01*
X99280000Y-76924819D02*
X99184762Y-77067676D01*
X99184762Y-77067676D02*
X99089524Y-77162914D01*
X99089524Y-77162914D02*
X98994286Y-77210533D01*
X97488095Y-74474819D02*
X98107142Y-74474819D01*
X98107142Y-74474819D02*
X97773809Y-74855771D01*
X97773809Y-74855771D02*
X97916666Y-74855771D01*
X97916666Y-74855771D02*
X98011904Y-74903390D01*
X98011904Y-74903390D02*
X98059523Y-74951009D01*
X98059523Y-74951009D02*
X98107142Y-75046247D01*
X98107142Y-75046247D02*
X98107142Y-75284342D01*
X98107142Y-75284342D02*
X98059523Y-75379580D01*
X98059523Y-75379580D02*
X98011904Y-75427200D01*
X98011904Y-75427200D02*
X97916666Y-75474819D01*
X97916666Y-75474819D02*
X97630952Y-75474819D01*
X97630952Y-75474819D02*
X97535714Y-75427200D01*
X97535714Y-75427200D02*
X97488095Y-75379580D01*
X98726190Y-74474819D02*
X98821428Y-74474819D01*
X98821428Y-74474819D02*
X98916666Y-74522438D01*
X98916666Y-74522438D02*
X98964285Y-74570057D01*
X98964285Y-74570057D02*
X99011904Y-74665295D01*
X99011904Y-74665295D02*
X99059523Y-74855771D01*
X99059523Y-74855771D02*
X99059523Y-75093866D01*
X99059523Y-75093866D02*
X99011904Y-75284342D01*
X99011904Y-75284342D02*
X98964285Y-75379580D01*
X98964285Y-75379580D02*
X98916666Y-75427200D01*
X98916666Y-75427200D02*
X98821428Y-75474819D01*
X98821428Y-75474819D02*
X98726190Y-75474819D01*
X98726190Y-75474819D02*
X98630952Y-75427200D01*
X98630952Y-75427200D02*
X98583333Y-75379580D01*
X98583333Y-75379580D02*
X98535714Y-75284342D01*
X98535714Y-75284342D02*
X98488095Y-75093866D01*
X98488095Y-75093866D02*
X98488095Y-74855771D01*
X98488095Y-74855771D02*
X98535714Y-74665295D01*
X98535714Y-74665295D02*
X98583333Y-74570057D01*
X98583333Y-74570057D02*
X98630952Y-74522438D01*
X98630952Y-74522438D02*
X98726190Y-74474819D01*
X99488095Y-74808152D02*
X99488095Y-75808152D01*
X99488095Y-74855771D02*
X99583333Y-74808152D01*
X99583333Y-74808152D02*
X99773809Y-74808152D01*
X99773809Y-74808152D02*
X99869047Y-74855771D01*
X99869047Y-74855771D02*
X99916666Y-74903390D01*
X99916666Y-74903390D02*
X99964285Y-74998628D01*
X99964285Y-74998628D02*
X99964285Y-75284342D01*
X99964285Y-75284342D02*
X99916666Y-75379580D01*
X99916666Y-75379580D02*
X99869047Y-75427200D01*
X99869047Y-75427200D02*
X99773809Y-75474819D01*
X99773809Y-75474819D02*
X99583333Y-75474819D01*
X99583333Y-75474819D02*
X99488095Y-75427200D01*
X106343333Y-49834819D02*
X106010000Y-49358628D01*
X105771905Y-49834819D02*
X105771905Y-48834819D01*
X105771905Y-48834819D02*
X106152857Y-48834819D01*
X106152857Y-48834819D02*
X106248095Y-48882438D01*
X106248095Y-48882438D02*
X106295714Y-48930057D01*
X106295714Y-48930057D02*
X106343333Y-49025295D01*
X106343333Y-49025295D02*
X106343333Y-49168152D01*
X106343333Y-49168152D02*
X106295714Y-49263390D01*
X106295714Y-49263390D02*
X106248095Y-49311009D01*
X106248095Y-49311009D02*
X106152857Y-49358628D01*
X106152857Y-49358628D02*
X105771905Y-49358628D01*
X107248095Y-48834819D02*
X106771905Y-48834819D01*
X106771905Y-48834819D02*
X106724286Y-49311009D01*
X106724286Y-49311009D02*
X106771905Y-49263390D01*
X106771905Y-49263390D02*
X106867143Y-49215771D01*
X106867143Y-49215771D02*
X107105238Y-49215771D01*
X107105238Y-49215771D02*
X107200476Y-49263390D01*
X107200476Y-49263390D02*
X107248095Y-49311009D01*
X107248095Y-49311009D02*
X107295714Y-49406247D01*
X107295714Y-49406247D02*
X107295714Y-49644342D01*
X107295714Y-49644342D02*
X107248095Y-49739580D01*
X107248095Y-49739580D02*
X107200476Y-49787200D01*
X107200476Y-49787200D02*
X107105238Y-49834819D01*
X107105238Y-49834819D02*
X106867143Y-49834819D01*
X106867143Y-49834819D02*
X106771905Y-49787200D01*
X106771905Y-49787200D02*
X106724286Y-49739580D01*
X106060057Y-57538094D02*
X106012438Y-57490475D01*
X106012438Y-57490475D02*
X105964819Y-57395237D01*
X105964819Y-57395237D02*
X105964819Y-57157142D01*
X105964819Y-57157142D02*
X106012438Y-57061904D01*
X106012438Y-57061904D02*
X106060057Y-57014285D01*
X106060057Y-57014285D02*
X106155295Y-56966666D01*
X106155295Y-56966666D02*
X106250533Y-56966666D01*
X106250533Y-56966666D02*
X106393390Y-57014285D01*
X106393390Y-57014285D02*
X106964819Y-57585713D01*
X106964819Y-57585713D02*
X106964819Y-56966666D01*
X105964819Y-56347618D02*
X105964819Y-56252380D01*
X105964819Y-56252380D02*
X106012438Y-56157142D01*
X106012438Y-56157142D02*
X106060057Y-56109523D01*
X106060057Y-56109523D02*
X106155295Y-56061904D01*
X106155295Y-56061904D02*
X106345771Y-56014285D01*
X106345771Y-56014285D02*
X106583866Y-56014285D01*
X106583866Y-56014285D02*
X106774342Y-56061904D01*
X106774342Y-56061904D02*
X106869580Y-56109523D01*
X106869580Y-56109523D02*
X106917200Y-56157142D01*
X106917200Y-56157142D02*
X106964819Y-56252380D01*
X106964819Y-56252380D02*
X106964819Y-56347618D01*
X106964819Y-56347618D02*
X106917200Y-56442856D01*
X106917200Y-56442856D02*
X106869580Y-56490475D01*
X106869580Y-56490475D02*
X106774342Y-56538094D01*
X106774342Y-56538094D02*
X106583866Y-56585713D01*
X106583866Y-56585713D02*
X106345771Y-56585713D01*
X106345771Y-56585713D02*
X106155295Y-56538094D01*
X106155295Y-56538094D02*
X106060057Y-56490475D01*
X106060057Y-56490475D02*
X106012438Y-56442856D01*
X106012438Y-56442856D02*
X105964819Y-56347618D01*
X105964819Y-55395237D02*
X105964819Y-55299999D01*
X105964819Y-55299999D02*
X106012438Y-55204761D01*
X106012438Y-55204761D02*
X106060057Y-55157142D01*
X106060057Y-55157142D02*
X106155295Y-55109523D01*
X106155295Y-55109523D02*
X106345771Y-55061904D01*
X106345771Y-55061904D02*
X106583866Y-55061904D01*
X106583866Y-55061904D02*
X106774342Y-55109523D01*
X106774342Y-55109523D02*
X106869580Y-55157142D01*
X106869580Y-55157142D02*
X106917200Y-55204761D01*
X106917200Y-55204761D02*
X106964819Y-55299999D01*
X106964819Y-55299999D02*
X106964819Y-55395237D01*
X106964819Y-55395237D02*
X106917200Y-55490475D01*
X106917200Y-55490475D02*
X106869580Y-55538094D01*
X106869580Y-55538094D02*
X106774342Y-55585713D01*
X106774342Y-55585713D02*
X106583866Y-55633332D01*
X106583866Y-55633332D02*
X106345771Y-55633332D01*
X106345771Y-55633332D02*
X106155295Y-55585713D01*
X106155295Y-55585713D02*
X106060057Y-55538094D01*
X106060057Y-55538094D02*
X106012438Y-55490475D01*
X106012438Y-55490475D02*
X105964819Y-55395237D01*
X106083333Y-87154819D02*
X105750000Y-86678628D01*
X105511905Y-87154819D02*
X105511905Y-86154819D01*
X105511905Y-86154819D02*
X105892857Y-86154819D01*
X105892857Y-86154819D02*
X105988095Y-86202438D01*
X105988095Y-86202438D02*
X106035714Y-86250057D01*
X106035714Y-86250057D02*
X106083333Y-86345295D01*
X106083333Y-86345295D02*
X106083333Y-86488152D01*
X106083333Y-86488152D02*
X106035714Y-86583390D01*
X106035714Y-86583390D02*
X105988095Y-86631009D01*
X105988095Y-86631009D02*
X105892857Y-86678628D01*
X105892857Y-86678628D02*
X105511905Y-86678628D01*
X106940476Y-86154819D02*
X106750000Y-86154819D01*
X106750000Y-86154819D02*
X106654762Y-86202438D01*
X106654762Y-86202438D02*
X106607143Y-86250057D01*
X106607143Y-86250057D02*
X106511905Y-86392914D01*
X106511905Y-86392914D02*
X106464286Y-86583390D01*
X106464286Y-86583390D02*
X106464286Y-86964342D01*
X106464286Y-86964342D02*
X106511905Y-87059580D01*
X106511905Y-87059580D02*
X106559524Y-87107200D01*
X106559524Y-87107200D02*
X106654762Y-87154819D01*
X106654762Y-87154819D02*
X106845238Y-87154819D01*
X106845238Y-87154819D02*
X106940476Y-87107200D01*
X106940476Y-87107200D02*
X106988095Y-87059580D01*
X106988095Y-87059580D02*
X107035714Y-86964342D01*
X107035714Y-86964342D02*
X107035714Y-86726247D01*
X107035714Y-86726247D02*
X106988095Y-86631009D01*
X106988095Y-86631009D02*
X106940476Y-86583390D01*
X106940476Y-86583390D02*
X106845238Y-86535771D01*
X106845238Y-86535771D02*
X106654762Y-86535771D01*
X106654762Y-86535771D02*
X106559524Y-86583390D01*
X106559524Y-86583390D02*
X106511905Y-86631009D01*
X106511905Y-86631009D02*
X106464286Y-86726247D01*
X105704819Y-80392857D02*
X105704819Y-80869047D01*
X105704819Y-80869047D02*
X106181009Y-80916666D01*
X106181009Y-80916666D02*
X106133390Y-80869047D01*
X106133390Y-80869047D02*
X106085771Y-80773809D01*
X106085771Y-80773809D02*
X106085771Y-80535714D01*
X106085771Y-80535714D02*
X106133390Y-80440476D01*
X106133390Y-80440476D02*
X106181009Y-80392857D01*
X106181009Y-80392857D02*
X106276247Y-80345238D01*
X106276247Y-80345238D02*
X106514342Y-80345238D01*
X106514342Y-80345238D02*
X106609580Y-80392857D01*
X106609580Y-80392857D02*
X106657200Y-80440476D01*
X106657200Y-80440476D02*
X106704819Y-80535714D01*
X106704819Y-80535714D02*
X106704819Y-80773809D01*
X106704819Y-80773809D02*
X106657200Y-80869047D01*
X106657200Y-80869047D02*
X106609580Y-80916666D01*
X106704819Y-79392857D02*
X106704819Y-79964285D01*
X106704819Y-79678571D02*
X105704819Y-79678571D01*
X105704819Y-79678571D02*
X105847676Y-79773809D01*
X105847676Y-79773809D02*
X105942914Y-79869047D01*
X105942914Y-79869047D02*
X105990533Y-79964285D01*
X106704819Y-78964285D02*
X105704819Y-78964285D01*
X106323866Y-78869047D02*
X106704819Y-78583333D01*
X106038152Y-78583333D02*
X106419104Y-78964285D01*
X125625000Y-65004819D02*
X125815476Y-65004819D01*
X125815476Y-65004819D02*
X125910714Y-65052438D01*
X125910714Y-65052438D02*
X126005952Y-65147676D01*
X126005952Y-65147676D02*
X126053571Y-65338152D01*
X126053571Y-65338152D02*
X126053571Y-65671485D01*
X126053571Y-65671485D02*
X126005952Y-65861961D01*
X126005952Y-65861961D02*
X125910714Y-65957200D01*
X125910714Y-65957200D02*
X125815476Y-66004819D01*
X125815476Y-66004819D02*
X125625000Y-66004819D01*
X125625000Y-66004819D02*
X125529762Y-65957200D01*
X125529762Y-65957200D02*
X125434524Y-65861961D01*
X125434524Y-65861961D02*
X125386905Y-65671485D01*
X125386905Y-65671485D02*
X125386905Y-65338152D01*
X125386905Y-65338152D02*
X125434524Y-65147676D01*
X125434524Y-65147676D02*
X125529762Y-65052438D01*
X125529762Y-65052438D02*
X125625000Y-65004819D01*
X126482143Y-65004819D02*
X126482143Y-65814342D01*
X126482143Y-65814342D02*
X126529762Y-65909580D01*
X126529762Y-65909580D02*
X126577381Y-65957200D01*
X126577381Y-65957200D02*
X126672619Y-66004819D01*
X126672619Y-66004819D02*
X126863095Y-66004819D01*
X126863095Y-66004819D02*
X126958333Y-65957200D01*
X126958333Y-65957200D02*
X127005952Y-65909580D01*
X127005952Y-65909580D02*
X127053571Y-65814342D01*
X127053571Y-65814342D02*
X127053571Y-65004819D01*
X127386905Y-65004819D02*
X127958333Y-65004819D01*
X127672619Y-66004819D02*
X127672619Y-65004819D01*
X92583333Y-65334819D02*
X92250000Y-64858628D01*
X92011905Y-65334819D02*
X92011905Y-64334819D01*
X92011905Y-64334819D02*
X92392857Y-64334819D01*
X92392857Y-64334819D02*
X92488095Y-64382438D01*
X92488095Y-64382438D02*
X92535714Y-64430057D01*
X92535714Y-64430057D02*
X92583333Y-64525295D01*
X92583333Y-64525295D02*
X92583333Y-64668152D01*
X92583333Y-64668152D02*
X92535714Y-64763390D01*
X92535714Y-64763390D02*
X92488095Y-64811009D01*
X92488095Y-64811009D02*
X92392857Y-64858628D01*
X92392857Y-64858628D02*
X92011905Y-64858628D01*
X93440476Y-64668152D02*
X93440476Y-65334819D01*
X93202381Y-64287200D02*
X92964286Y-65001485D01*
X92964286Y-65001485D02*
X93583333Y-65001485D01*
X92630952Y-67704819D02*
X92059524Y-67704819D01*
X92345238Y-67704819D02*
X92345238Y-66704819D01*
X92345238Y-66704819D02*
X92250000Y-66847676D01*
X92250000Y-66847676D02*
X92154762Y-66942914D01*
X92154762Y-66942914D02*
X92059524Y-66990533D01*
X93059524Y-67704819D02*
X93059524Y-66704819D01*
X93154762Y-67323866D02*
X93440476Y-67704819D01*
X93440476Y-67038152D02*
X93059524Y-67419104D01*
X74654761Y-79800057D02*
X74559523Y-79752438D01*
X74559523Y-79752438D02*
X74464285Y-79657200D01*
X74464285Y-79657200D02*
X74321428Y-79514342D01*
X74321428Y-79514342D02*
X74226190Y-79466723D01*
X74226190Y-79466723D02*
X74130952Y-79466723D01*
X74178571Y-79704819D02*
X74083333Y-79657200D01*
X74083333Y-79657200D02*
X73988095Y-79561961D01*
X73988095Y-79561961D02*
X73940476Y-79371485D01*
X73940476Y-79371485D02*
X73940476Y-79038152D01*
X73940476Y-79038152D02*
X73988095Y-78847676D01*
X73988095Y-78847676D02*
X74083333Y-78752438D01*
X74083333Y-78752438D02*
X74178571Y-78704819D01*
X74178571Y-78704819D02*
X74369047Y-78704819D01*
X74369047Y-78704819D02*
X74464285Y-78752438D01*
X74464285Y-78752438D02*
X74559523Y-78847676D01*
X74559523Y-78847676D02*
X74607142Y-79038152D01*
X74607142Y-79038152D02*
X74607142Y-79371485D01*
X74607142Y-79371485D02*
X74559523Y-79561961D01*
X74559523Y-79561961D02*
X74464285Y-79657200D01*
X74464285Y-79657200D02*
X74369047Y-79704819D01*
X74369047Y-79704819D02*
X74178571Y-79704819D01*
X74940476Y-78704819D02*
X75559523Y-78704819D01*
X75559523Y-78704819D02*
X75226190Y-79085771D01*
X75226190Y-79085771D02*
X75369047Y-79085771D01*
X75369047Y-79085771D02*
X75464285Y-79133390D01*
X75464285Y-79133390D02*
X75511904Y-79181009D01*
X75511904Y-79181009D02*
X75559523Y-79276247D01*
X75559523Y-79276247D02*
X75559523Y-79514342D01*
X75559523Y-79514342D02*
X75511904Y-79609580D01*
X75511904Y-79609580D02*
X75464285Y-79657200D01*
X75464285Y-79657200D02*
X75369047Y-79704819D01*
X75369047Y-79704819D02*
X75083333Y-79704819D01*
X75083333Y-79704819D02*
X74988095Y-79657200D01*
X74988095Y-79657200D02*
X74940476Y-79609580D01*
X71885714Y-85900057D02*
X71933333Y-85852438D01*
X71933333Y-85852438D02*
X72028571Y-85804819D01*
X72028571Y-85804819D02*
X72266666Y-85804819D01*
X72266666Y-85804819D02*
X72361904Y-85852438D01*
X72361904Y-85852438D02*
X72409523Y-85900057D01*
X72409523Y-85900057D02*
X72457142Y-85995295D01*
X72457142Y-85995295D02*
X72457142Y-86090533D01*
X72457142Y-86090533D02*
X72409523Y-86233390D01*
X72409523Y-86233390D02*
X71838095Y-86804819D01*
X71838095Y-86804819D02*
X72457142Y-86804819D01*
X72885714Y-86804819D02*
X72885714Y-85804819D01*
X72885714Y-85804819D02*
X73457142Y-86804819D01*
X73457142Y-86804819D02*
X73457142Y-85804819D01*
X73838095Y-85804819D02*
X74457142Y-85804819D01*
X74457142Y-85804819D02*
X74123809Y-86185771D01*
X74123809Y-86185771D02*
X74266666Y-86185771D01*
X74266666Y-86185771D02*
X74361904Y-86233390D01*
X74361904Y-86233390D02*
X74409523Y-86281009D01*
X74409523Y-86281009D02*
X74457142Y-86376247D01*
X74457142Y-86376247D02*
X74457142Y-86614342D01*
X74457142Y-86614342D02*
X74409523Y-86709580D01*
X74409523Y-86709580D02*
X74361904Y-86757200D01*
X74361904Y-86757200D02*
X74266666Y-86804819D01*
X74266666Y-86804819D02*
X73980952Y-86804819D01*
X73980952Y-86804819D02*
X73885714Y-86757200D01*
X73885714Y-86757200D02*
X73838095Y-86709580D01*
X74933333Y-86804819D02*
X75123809Y-86804819D01*
X75123809Y-86804819D02*
X75219047Y-86757200D01*
X75219047Y-86757200D02*
X75266666Y-86709580D01*
X75266666Y-86709580D02*
X75361904Y-86566723D01*
X75361904Y-86566723D02*
X75409523Y-86376247D01*
X75409523Y-86376247D02*
X75409523Y-85995295D01*
X75409523Y-85995295D02*
X75361904Y-85900057D01*
X75361904Y-85900057D02*
X75314285Y-85852438D01*
X75314285Y-85852438D02*
X75219047Y-85804819D01*
X75219047Y-85804819D02*
X75028571Y-85804819D01*
X75028571Y-85804819D02*
X74933333Y-85852438D01*
X74933333Y-85852438D02*
X74885714Y-85900057D01*
X74885714Y-85900057D02*
X74838095Y-85995295D01*
X74838095Y-85995295D02*
X74838095Y-86233390D01*
X74838095Y-86233390D02*
X74885714Y-86328628D01*
X74885714Y-86328628D02*
X74933333Y-86376247D01*
X74933333Y-86376247D02*
X75028571Y-86423866D01*
X75028571Y-86423866D02*
X75219047Y-86423866D01*
X75219047Y-86423866D02*
X75314285Y-86376247D01*
X75314285Y-86376247D02*
X75361904Y-86328628D01*
X75361904Y-86328628D02*
X75409523Y-86233390D01*
X76028571Y-85804819D02*
X76123809Y-85804819D01*
X76123809Y-85804819D02*
X76219047Y-85852438D01*
X76219047Y-85852438D02*
X76266666Y-85900057D01*
X76266666Y-85900057D02*
X76314285Y-85995295D01*
X76314285Y-85995295D02*
X76361904Y-86185771D01*
X76361904Y-86185771D02*
X76361904Y-86423866D01*
X76361904Y-86423866D02*
X76314285Y-86614342D01*
X76314285Y-86614342D02*
X76266666Y-86709580D01*
X76266666Y-86709580D02*
X76219047Y-86757200D01*
X76219047Y-86757200D02*
X76123809Y-86804819D01*
X76123809Y-86804819D02*
X76028571Y-86804819D01*
X76028571Y-86804819D02*
X75933333Y-86757200D01*
X75933333Y-86757200D02*
X75885714Y-86709580D01*
X75885714Y-86709580D02*
X75838095Y-86614342D01*
X75838095Y-86614342D02*
X75790476Y-86423866D01*
X75790476Y-86423866D02*
X75790476Y-86185771D01*
X75790476Y-86185771D02*
X75838095Y-85995295D01*
X75838095Y-85995295D02*
X75885714Y-85900057D01*
X75885714Y-85900057D02*
X75933333Y-85852438D01*
X75933333Y-85852438D02*
X76028571Y-85804819D01*
X77219047Y-86138152D02*
X77219047Y-86804819D01*
X76980952Y-85757200D02*
X76742857Y-86471485D01*
X76742857Y-86471485D02*
X77361904Y-86471485D01*
X69193333Y-49704819D02*
X68860000Y-49228628D01*
X68621905Y-49704819D02*
X68621905Y-48704819D01*
X68621905Y-48704819D02*
X69002857Y-48704819D01*
X69002857Y-48704819D02*
X69098095Y-48752438D01*
X69098095Y-48752438D02*
X69145714Y-48800057D01*
X69145714Y-48800057D02*
X69193333Y-48895295D01*
X69193333Y-48895295D02*
X69193333Y-49038152D01*
X69193333Y-49038152D02*
X69145714Y-49133390D01*
X69145714Y-49133390D02*
X69098095Y-49181009D01*
X69098095Y-49181009D02*
X69002857Y-49228628D01*
X69002857Y-49228628D02*
X68621905Y-49228628D01*
X70145714Y-49704819D02*
X69574286Y-49704819D01*
X69860000Y-49704819D02*
X69860000Y-48704819D01*
X69860000Y-48704819D02*
X69764762Y-48847676D01*
X69764762Y-48847676D02*
X69669524Y-48942914D01*
X69669524Y-48942914D02*
X69574286Y-48990533D01*
X69704819Y-56419047D02*
X69704819Y-56990475D01*
X69704819Y-56704761D02*
X68704819Y-56704761D01*
X68704819Y-56704761D02*
X68847676Y-56799999D01*
X68847676Y-56799999D02*
X68942914Y-56895237D01*
X68942914Y-56895237D02*
X68990533Y-56990475D01*
X69704819Y-55990475D02*
X68704819Y-55990475D01*
X69323866Y-55895237D02*
X69704819Y-55609523D01*
X69038152Y-55609523D02*
X69419104Y-55990475D01*
X58954761Y-79600057D02*
X58859523Y-79552438D01*
X58859523Y-79552438D02*
X58764285Y-79457200D01*
X58764285Y-79457200D02*
X58621428Y-79314342D01*
X58621428Y-79314342D02*
X58526190Y-79266723D01*
X58526190Y-79266723D02*
X58430952Y-79266723D01*
X58478571Y-79504819D02*
X58383333Y-79457200D01*
X58383333Y-79457200D02*
X58288095Y-79361961D01*
X58288095Y-79361961D02*
X58240476Y-79171485D01*
X58240476Y-79171485D02*
X58240476Y-78838152D01*
X58240476Y-78838152D02*
X58288095Y-78647676D01*
X58288095Y-78647676D02*
X58383333Y-78552438D01*
X58383333Y-78552438D02*
X58478571Y-78504819D01*
X58478571Y-78504819D02*
X58669047Y-78504819D01*
X58669047Y-78504819D02*
X58764285Y-78552438D01*
X58764285Y-78552438D02*
X58859523Y-78647676D01*
X58859523Y-78647676D02*
X58907142Y-78838152D01*
X58907142Y-78838152D02*
X58907142Y-79171485D01*
X58907142Y-79171485D02*
X58859523Y-79361961D01*
X58859523Y-79361961D02*
X58764285Y-79457200D01*
X58764285Y-79457200D02*
X58669047Y-79504819D01*
X58669047Y-79504819D02*
X58478571Y-79504819D01*
X59764285Y-78838152D02*
X59764285Y-79504819D01*
X59526190Y-78457200D02*
X59288095Y-79171485D01*
X59288095Y-79171485D02*
X59907142Y-79171485D01*
X56310714Y-85950057D02*
X56358333Y-85902438D01*
X56358333Y-85902438D02*
X56453571Y-85854819D01*
X56453571Y-85854819D02*
X56691666Y-85854819D01*
X56691666Y-85854819D02*
X56786904Y-85902438D01*
X56786904Y-85902438D02*
X56834523Y-85950057D01*
X56834523Y-85950057D02*
X56882142Y-86045295D01*
X56882142Y-86045295D02*
X56882142Y-86140533D01*
X56882142Y-86140533D02*
X56834523Y-86283390D01*
X56834523Y-86283390D02*
X56263095Y-86854819D01*
X56263095Y-86854819D02*
X56882142Y-86854819D01*
X57310714Y-86854819D02*
X57310714Y-85854819D01*
X57310714Y-85854819D02*
X57882142Y-86854819D01*
X57882142Y-86854819D02*
X57882142Y-85854819D01*
X58263095Y-85854819D02*
X58882142Y-85854819D01*
X58882142Y-85854819D02*
X58548809Y-86235771D01*
X58548809Y-86235771D02*
X58691666Y-86235771D01*
X58691666Y-86235771D02*
X58786904Y-86283390D01*
X58786904Y-86283390D02*
X58834523Y-86331009D01*
X58834523Y-86331009D02*
X58882142Y-86426247D01*
X58882142Y-86426247D02*
X58882142Y-86664342D01*
X58882142Y-86664342D02*
X58834523Y-86759580D01*
X58834523Y-86759580D02*
X58786904Y-86807200D01*
X58786904Y-86807200D02*
X58691666Y-86854819D01*
X58691666Y-86854819D02*
X58405952Y-86854819D01*
X58405952Y-86854819D02*
X58310714Y-86807200D01*
X58310714Y-86807200D02*
X58263095Y-86759580D01*
X59358333Y-86854819D02*
X59548809Y-86854819D01*
X59548809Y-86854819D02*
X59644047Y-86807200D01*
X59644047Y-86807200D02*
X59691666Y-86759580D01*
X59691666Y-86759580D02*
X59786904Y-86616723D01*
X59786904Y-86616723D02*
X59834523Y-86426247D01*
X59834523Y-86426247D02*
X59834523Y-86045295D01*
X59834523Y-86045295D02*
X59786904Y-85950057D01*
X59786904Y-85950057D02*
X59739285Y-85902438D01*
X59739285Y-85902438D02*
X59644047Y-85854819D01*
X59644047Y-85854819D02*
X59453571Y-85854819D01*
X59453571Y-85854819D02*
X59358333Y-85902438D01*
X59358333Y-85902438D02*
X59310714Y-85950057D01*
X59310714Y-85950057D02*
X59263095Y-86045295D01*
X59263095Y-86045295D02*
X59263095Y-86283390D01*
X59263095Y-86283390D02*
X59310714Y-86378628D01*
X59310714Y-86378628D02*
X59358333Y-86426247D01*
X59358333Y-86426247D02*
X59453571Y-86473866D01*
X59453571Y-86473866D02*
X59644047Y-86473866D01*
X59644047Y-86473866D02*
X59739285Y-86426247D01*
X59739285Y-86426247D02*
X59786904Y-86378628D01*
X59786904Y-86378628D02*
X59834523Y-86283390D01*
X60453571Y-85854819D02*
X60548809Y-85854819D01*
X60548809Y-85854819D02*
X60644047Y-85902438D01*
X60644047Y-85902438D02*
X60691666Y-85950057D01*
X60691666Y-85950057D02*
X60739285Y-86045295D01*
X60739285Y-86045295D02*
X60786904Y-86235771D01*
X60786904Y-86235771D02*
X60786904Y-86473866D01*
X60786904Y-86473866D02*
X60739285Y-86664342D01*
X60739285Y-86664342D02*
X60691666Y-86759580D01*
X60691666Y-86759580D02*
X60644047Y-86807200D01*
X60644047Y-86807200D02*
X60548809Y-86854819D01*
X60548809Y-86854819D02*
X60453571Y-86854819D01*
X60453571Y-86854819D02*
X60358333Y-86807200D01*
X60358333Y-86807200D02*
X60310714Y-86759580D01*
X60310714Y-86759580D02*
X60263095Y-86664342D01*
X60263095Y-86664342D02*
X60215476Y-86473866D01*
X60215476Y-86473866D02*
X60215476Y-86235771D01*
X60215476Y-86235771D02*
X60263095Y-86045295D01*
X60263095Y-86045295D02*
X60310714Y-85950057D01*
X60310714Y-85950057D02*
X60358333Y-85902438D01*
X60358333Y-85902438D02*
X60453571Y-85854819D01*
X61644047Y-86188152D02*
X61644047Y-86854819D01*
X61405952Y-85807200D02*
X61167857Y-86521485D01*
X61167857Y-86521485D02*
X61786904Y-86521485D01*
X43099048Y-70474819D02*
X43099048Y-69474819D01*
X43099048Y-69474819D02*
X43403810Y-69474819D01*
X43403810Y-69474819D02*
X43480000Y-69522438D01*
X43480000Y-69522438D02*
X43518095Y-69570057D01*
X43518095Y-69570057D02*
X43556191Y-69665295D01*
X43556191Y-69665295D02*
X43556191Y-69808152D01*
X43556191Y-69808152D02*
X43518095Y-69903390D01*
X43518095Y-69903390D02*
X43480000Y-69951009D01*
X43480000Y-69951009D02*
X43403810Y-69998628D01*
X43403810Y-69998628D02*
X43099048Y-69998628D01*
X43822857Y-69474819D02*
X44013333Y-70474819D01*
X44013333Y-70474819D02*
X44165714Y-69760533D01*
X44165714Y-69760533D02*
X44318095Y-70474819D01*
X44318095Y-70474819D02*
X44508572Y-69474819D01*
X45270477Y-70474819D02*
X45003810Y-69998628D01*
X44813334Y-70474819D02*
X44813334Y-69474819D01*
X44813334Y-69474819D02*
X45118096Y-69474819D01*
X45118096Y-69474819D02*
X45194286Y-69522438D01*
X45194286Y-69522438D02*
X45232381Y-69570057D01*
X45232381Y-69570057D02*
X45270477Y-69665295D01*
X45270477Y-69665295D02*
X45270477Y-69808152D01*
X45270477Y-69808152D02*
X45232381Y-69903390D01*
X45232381Y-69903390D02*
X45194286Y-69951009D01*
X45194286Y-69951009D02*
X45118096Y-69998628D01*
X45118096Y-69998628D02*
X44813334Y-69998628D01*
X45422858Y-70570057D02*
X46032381Y-70570057D01*
X46222858Y-70474819D02*
X46222858Y-69474819D01*
X46603810Y-70474819D02*
X46603810Y-69474819D01*
X46603810Y-69474819D02*
X47060953Y-70474819D01*
X47060953Y-70474819D02*
X47060953Y-69474819D01*
X69204761Y-67530057D02*
X69109523Y-67482438D01*
X69109523Y-67482438D02*
X69014285Y-67387200D01*
X69014285Y-67387200D02*
X68871428Y-67244342D01*
X68871428Y-67244342D02*
X68776190Y-67196723D01*
X68776190Y-67196723D02*
X68680952Y-67196723D01*
X68728571Y-67434819D02*
X68633333Y-67387200D01*
X68633333Y-67387200D02*
X68538095Y-67291961D01*
X68538095Y-67291961D02*
X68490476Y-67101485D01*
X68490476Y-67101485D02*
X68490476Y-66768152D01*
X68490476Y-66768152D02*
X68538095Y-66577676D01*
X68538095Y-66577676D02*
X68633333Y-66482438D01*
X68633333Y-66482438D02*
X68728571Y-66434819D01*
X68728571Y-66434819D02*
X68919047Y-66434819D01*
X68919047Y-66434819D02*
X69014285Y-66482438D01*
X69014285Y-66482438D02*
X69109523Y-66577676D01*
X69109523Y-66577676D02*
X69157142Y-66768152D01*
X69157142Y-66768152D02*
X69157142Y-67101485D01*
X69157142Y-67101485D02*
X69109523Y-67291961D01*
X69109523Y-67291961D02*
X69014285Y-67387200D01*
X69014285Y-67387200D02*
X68919047Y-67434819D01*
X68919047Y-67434819D02*
X68728571Y-67434819D01*
X70109523Y-67434819D02*
X69538095Y-67434819D01*
X69823809Y-67434819D02*
X69823809Y-66434819D01*
X69823809Y-66434819D02*
X69728571Y-66577676D01*
X69728571Y-66577676D02*
X69633333Y-66672914D01*
X69633333Y-66672914D02*
X69538095Y-66720533D01*
X66335714Y-74030057D02*
X66383333Y-73982438D01*
X66383333Y-73982438D02*
X66478571Y-73934819D01*
X66478571Y-73934819D02*
X66716666Y-73934819D01*
X66716666Y-73934819D02*
X66811904Y-73982438D01*
X66811904Y-73982438D02*
X66859523Y-74030057D01*
X66859523Y-74030057D02*
X66907142Y-74125295D01*
X66907142Y-74125295D02*
X66907142Y-74220533D01*
X66907142Y-74220533D02*
X66859523Y-74363390D01*
X66859523Y-74363390D02*
X66288095Y-74934819D01*
X66288095Y-74934819D02*
X66907142Y-74934819D01*
X67335714Y-74934819D02*
X67335714Y-73934819D01*
X67335714Y-73934819D02*
X67907142Y-74934819D01*
X67907142Y-74934819D02*
X67907142Y-73934819D01*
X68288095Y-73934819D02*
X68907142Y-73934819D01*
X68907142Y-73934819D02*
X68573809Y-74315771D01*
X68573809Y-74315771D02*
X68716666Y-74315771D01*
X68716666Y-74315771D02*
X68811904Y-74363390D01*
X68811904Y-74363390D02*
X68859523Y-74411009D01*
X68859523Y-74411009D02*
X68907142Y-74506247D01*
X68907142Y-74506247D02*
X68907142Y-74744342D01*
X68907142Y-74744342D02*
X68859523Y-74839580D01*
X68859523Y-74839580D02*
X68811904Y-74887200D01*
X68811904Y-74887200D02*
X68716666Y-74934819D01*
X68716666Y-74934819D02*
X68430952Y-74934819D01*
X68430952Y-74934819D02*
X68335714Y-74887200D01*
X68335714Y-74887200D02*
X68288095Y-74839580D01*
X69383333Y-74934819D02*
X69573809Y-74934819D01*
X69573809Y-74934819D02*
X69669047Y-74887200D01*
X69669047Y-74887200D02*
X69716666Y-74839580D01*
X69716666Y-74839580D02*
X69811904Y-74696723D01*
X69811904Y-74696723D02*
X69859523Y-74506247D01*
X69859523Y-74506247D02*
X69859523Y-74125295D01*
X69859523Y-74125295D02*
X69811904Y-74030057D01*
X69811904Y-74030057D02*
X69764285Y-73982438D01*
X69764285Y-73982438D02*
X69669047Y-73934819D01*
X69669047Y-73934819D02*
X69478571Y-73934819D01*
X69478571Y-73934819D02*
X69383333Y-73982438D01*
X69383333Y-73982438D02*
X69335714Y-74030057D01*
X69335714Y-74030057D02*
X69288095Y-74125295D01*
X69288095Y-74125295D02*
X69288095Y-74363390D01*
X69288095Y-74363390D02*
X69335714Y-74458628D01*
X69335714Y-74458628D02*
X69383333Y-74506247D01*
X69383333Y-74506247D02*
X69478571Y-74553866D01*
X69478571Y-74553866D02*
X69669047Y-74553866D01*
X69669047Y-74553866D02*
X69764285Y-74506247D01*
X69764285Y-74506247D02*
X69811904Y-74458628D01*
X69811904Y-74458628D02*
X69859523Y-74363390D01*
X70478571Y-73934819D02*
X70573809Y-73934819D01*
X70573809Y-73934819D02*
X70669047Y-73982438D01*
X70669047Y-73982438D02*
X70716666Y-74030057D01*
X70716666Y-74030057D02*
X70764285Y-74125295D01*
X70764285Y-74125295D02*
X70811904Y-74315771D01*
X70811904Y-74315771D02*
X70811904Y-74553866D01*
X70811904Y-74553866D02*
X70764285Y-74744342D01*
X70764285Y-74744342D02*
X70716666Y-74839580D01*
X70716666Y-74839580D02*
X70669047Y-74887200D01*
X70669047Y-74887200D02*
X70573809Y-74934819D01*
X70573809Y-74934819D02*
X70478571Y-74934819D01*
X70478571Y-74934819D02*
X70383333Y-74887200D01*
X70383333Y-74887200D02*
X70335714Y-74839580D01*
X70335714Y-74839580D02*
X70288095Y-74744342D01*
X70288095Y-74744342D02*
X70240476Y-74553866D01*
X70240476Y-74553866D02*
X70240476Y-74315771D01*
X70240476Y-74315771D02*
X70288095Y-74125295D01*
X70288095Y-74125295D02*
X70335714Y-74030057D01*
X70335714Y-74030057D02*
X70383333Y-73982438D01*
X70383333Y-73982438D02*
X70478571Y-73934819D01*
X71669047Y-74268152D02*
X71669047Y-74934819D01*
X71430952Y-73887200D02*
X71192857Y-74601485D01*
X71192857Y-74601485D02*
X71811904Y-74601485D01*
X59083333Y-58954819D02*
X58750000Y-58478628D01*
X58511905Y-58954819D02*
X58511905Y-57954819D01*
X58511905Y-57954819D02*
X58892857Y-57954819D01*
X58892857Y-57954819D02*
X58988095Y-58002438D01*
X58988095Y-58002438D02*
X59035714Y-58050057D01*
X59035714Y-58050057D02*
X59083333Y-58145295D01*
X59083333Y-58145295D02*
X59083333Y-58288152D01*
X59083333Y-58288152D02*
X59035714Y-58383390D01*
X59035714Y-58383390D02*
X58988095Y-58431009D01*
X58988095Y-58431009D02*
X58892857Y-58478628D01*
X58892857Y-58478628D02*
X58511905Y-58478628D01*
X59416667Y-57954819D02*
X60035714Y-57954819D01*
X60035714Y-57954819D02*
X59702381Y-58335771D01*
X59702381Y-58335771D02*
X59845238Y-58335771D01*
X59845238Y-58335771D02*
X59940476Y-58383390D01*
X59940476Y-58383390D02*
X59988095Y-58431009D01*
X59988095Y-58431009D02*
X60035714Y-58526247D01*
X60035714Y-58526247D02*
X60035714Y-58764342D01*
X60035714Y-58764342D02*
X59988095Y-58859580D01*
X59988095Y-58859580D02*
X59940476Y-58907200D01*
X59940476Y-58907200D02*
X59845238Y-58954819D01*
X59845238Y-58954819D02*
X59559524Y-58954819D01*
X59559524Y-58954819D02*
X59464286Y-58907200D01*
X59464286Y-58907200D02*
X59416667Y-58859580D01*
X58650057Y-66866666D02*
X58602438Y-66819047D01*
X58602438Y-66819047D02*
X58554819Y-66723809D01*
X58554819Y-66723809D02*
X58554819Y-66485714D01*
X58554819Y-66485714D02*
X58602438Y-66390476D01*
X58602438Y-66390476D02*
X58650057Y-66342857D01*
X58650057Y-66342857D02*
X58745295Y-66295238D01*
X58745295Y-66295238D02*
X58840533Y-66295238D01*
X58840533Y-66295238D02*
X58983390Y-66342857D01*
X58983390Y-66342857D02*
X59554819Y-66914285D01*
X59554819Y-66914285D02*
X59554819Y-66295238D01*
X58650057Y-65914285D02*
X58602438Y-65866666D01*
X58602438Y-65866666D02*
X58554819Y-65771428D01*
X58554819Y-65771428D02*
X58554819Y-65533333D01*
X58554819Y-65533333D02*
X58602438Y-65438095D01*
X58602438Y-65438095D02*
X58650057Y-65390476D01*
X58650057Y-65390476D02*
X58745295Y-65342857D01*
X58745295Y-65342857D02*
X58840533Y-65342857D01*
X58840533Y-65342857D02*
X58983390Y-65390476D01*
X58983390Y-65390476D02*
X59554819Y-65961904D01*
X59554819Y-65961904D02*
X59554819Y-65342857D01*
X59554819Y-64914285D02*
X58554819Y-64914285D01*
X59173866Y-64819047D02*
X59554819Y-64533333D01*
X58888152Y-64533333D02*
X59269104Y-64914285D01*
X106629761Y-64450057D02*
X106534523Y-64402438D01*
X106534523Y-64402438D02*
X106439285Y-64307200D01*
X106439285Y-64307200D02*
X106296428Y-64164342D01*
X106296428Y-64164342D02*
X106201190Y-64116723D01*
X106201190Y-64116723D02*
X106105952Y-64116723D01*
X106153571Y-64354819D02*
X106058333Y-64307200D01*
X106058333Y-64307200D02*
X105963095Y-64211961D01*
X105963095Y-64211961D02*
X105915476Y-64021485D01*
X105915476Y-64021485D02*
X105915476Y-63688152D01*
X105915476Y-63688152D02*
X105963095Y-63497676D01*
X105963095Y-63497676D02*
X106058333Y-63402438D01*
X106058333Y-63402438D02*
X106153571Y-63354819D01*
X106153571Y-63354819D02*
X106344047Y-63354819D01*
X106344047Y-63354819D02*
X106439285Y-63402438D01*
X106439285Y-63402438D02*
X106534523Y-63497676D01*
X106534523Y-63497676D02*
X106582142Y-63688152D01*
X106582142Y-63688152D02*
X106582142Y-64021485D01*
X106582142Y-64021485D02*
X106534523Y-64211961D01*
X106534523Y-64211961D02*
X106439285Y-64307200D01*
X106439285Y-64307200D02*
X106344047Y-64354819D01*
X106344047Y-64354819D02*
X106153571Y-64354819D01*
X107486904Y-63354819D02*
X107010714Y-63354819D01*
X107010714Y-63354819D02*
X106963095Y-63831009D01*
X106963095Y-63831009D02*
X107010714Y-63783390D01*
X107010714Y-63783390D02*
X107105952Y-63735771D01*
X107105952Y-63735771D02*
X107344047Y-63735771D01*
X107344047Y-63735771D02*
X107439285Y-63783390D01*
X107439285Y-63783390D02*
X107486904Y-63831009D01*
X107486904Y-63831009D02*
X107534523Y-63926247D01*
X107534523Y-63926247D02*
X107534523Y-64164342D01*
X107534523Y-64164342D02*
X107486904Y-64259580D01*
X107486904Y-64259580D02*
X107439285Y-64307200D01*
X107439285Y-64307200D02*
X107344047Y-64354819D01*
X107344047Y-64354819D02*
X107105952Y-64354819D01*
X107105952Y-64354819D02*
X107010714Y-64307200D01*
X107010714Y-64307200D02*
X106963095Y-64259580D01*
X103960714Y-70775057D02*
X104008333Y-70727438D01*
X104008333Y-70727438D02*
X104103571Y-70679819D01*
X104103571Y-70679819D02*
X104341666Y-70679819D01*
X104341666Y-70679819D02*
X104436904Y-70727438D01*
X104436904Y-70727438D02*
X104484523Y-70775057D01*
X104484523Y-70775057D02*
X104532142Y-70870295D01*
X104532142Y-70870295D02*
X104532142Y-70965533D01*
X104532142Y-70965533D02*
X104484523Y-71108390D01*
X104484523Y-71108390D02*
X103913095Y-71679819D01*
X103913095Y-71679819D02*
X104532142Y-71679819D01*
X104960714Y-71679819D02*
X104960714Y-70679819D01*
X104960714Y-70679819D02*
X105532142Y-71679819D01*
X105532142Y-71679819D02*
X105532142Y-70679819D01*
X105913095Y-70679819D02*
X106532142Y-70679819D01*
X106532142Y-70679819D02*
X106198809Y-71060771D01*
X106198809Y-71060771D02*
X106341666Y-71060771D01*
X106341666Y-71060771D02*
X106436904Y-71108390D01*
X106436904Y-71108390D02*
X106484523Y-71156009D01*
X106484523Y-71156009D02*
X106532142Y-71251247D01*
X106532142Y-71251247D02*
X106532142Y-71489342D01*
X106532142Y-71489342D02*
X106484523Y-71584580D01*
X106484523Y-71584580D02*
X106436904Y-71632200D01*
X106436904Y-71632200D02*
X106341666Y-71679819D01*
X106341666Y-71679819D02*
X106055952Y-71679819D01*
X106055952Y-71679819D02*
X105960714Y-71632200D01*
X105960714Y-71632200D02*
X105913095Y-71584580D01*
X107008333Y-71679819D02*
X107198809Y-71679819D01*
X107198809Y-71679819D02*
X107294047Y-71632200D01*
X107294047Y-71632200D02*
X107341666Y-71584580D01*
X107341666Y-71584580D02*
X107436904Y-71441723D01*
X107436904Y-71441723D02*
X107484523Y-71251247D01*
X107484523Y-71251247D02*
X107484523Y-70870295D01*
X107484523Y-70870295D02*
X107436904Y-70775057D01*
X107436904Y-70775057D02*
X107389285Y-70727438D01*
X107389285Y-70727438D02*
X107294047Y-70679819D01*
X107294047Y-70679819D02*
X107103571Y-70679819D01*
X107103571Y-70679819D02*
X107008333Y-70727438D01*
X107008333Y-70727438D02*
X106960714Y-70775057D01*
X106960714Y-70775057D02*
X106913095Y-70870295D01*
X106913095Y-70870295D02*
X106913095Y-71108390D01*
X106913095Y-71108390D02*
X106960714Y-71203628D01*
X106960714Y-71203628D02*
X107008333Y-71251247D01*
X107008333Y-71251247D02*
X107103571Y-71298866D01*
X107103571Y-71298866D02*
X107294047Y-71298866D01*
X107294047Y-71298866D02*
X107389285Y-71251247D01*
X107389285Y-71251247D02*
X107436904Y-71203628D01*
X107436904Y-71203628D02*
X107484523Y-71108390D01*
X108103571Y-70679819D02*
X108198809Y-70679819D01*
X108198809Y-70679819D02*
X108294047Y-70727438D01*
X108294047Y-70727438D02*
X108341666Y-70775057D01*
X108341666Y-70775057D02*
X108389285Y-70870295D01*
X108389285Y-70870295D02*
X108436904Y-71060771D01*
X108436904Y-71060771D02*
X108436904Y-71298866D01*
X108436904Y-71298866D02*
X108389285Y-71489342D01*
X108389285Y-71489342D02*
X108341666Y-71584580D01*
X108341666Y-71584580D02*
X108294047Y-71632200D01*
X108294047Y-71632200D02*
X108198809Y-71679819D01*
X108198809Y-71679819D02*
X108103571Y-71679819D01*
X108103571Y-71679819D02*
X108008333Y-71632200D01*
X108008333Y-71632200D02*
X107960714Y-71584580D01*
X107960714Y-71584580D02*
X107913095Y-71489342D01*
X107913095Y-71489342D02*
X107865476Y-71298866D01*
X107865476Y-71298866D02*
X107865476Y-71060771D01*
X107865476Y-71060771D02*
X107913095Y-70870295D01*
X107913095Y-70870295D02*
X107960714Y-70775057D01*
X107960714Y-70775057D02*
X108008333Y-70727438D01*
X108008333Y-70727438D02*
X108103571Y-70679819D01*
X109294047Y-70679819D02*
X109103571Y-70679819D01*
X109103571Y-70679819D02*
X109008333Y-70727438D01*
X109008333Y-70727438D02*
X108960714Y-70775057D01*
X108960714Y-70775057D02*
X108865476Y-70917914D01*
X108865476Y-70917914D02*
X108817857Y-71108390D01*
X108817857Y-71108390D02*
X108817857Y-71489342D01*
X108817857Y-71489342D02*
X108865476Y-71584580D01*
X108865476Y-71584580D02*
X108913095Y-71632200D01*
X108913095Y-71632200D02*
X109008333Y-71679819D01*
X109008333Y-71679819D02*
X109198809Y-71679819D01*
X109198809Y-71679819D02*
X109294047Y-71632200D01*
X109294047Y-71632200D02*
X109341666Y-71584580D01*
X109341666Y-71584580D02*
X109389285Y-71489342D01*
X109389285Y-71489342D02*
X109389285Y-71251247D01*
X109389285Y-71251247D02*
X109341666Y-71156009D01*
X109341666Y-71156009D02*
X109294047Y-71108390D01*
X109294047Y-71108390D02*
X109198809Y-71060771D01*
X109198809Y-71060771D02*
X109008333Y-71060771D01*
X109008333Y-71060771D02*
X108913095Y-71108390D01*
X108913095Y-71108390D02*
X108865476Y-71156009D01*
X108865476Y-71156009D02*
X108817857Y-71251247D01*
X44376191Y-60634819D02*
X44376191Y-59634819D01*
X44852381Y-60634819D02*
X44852381Y-59634819D01*
X44852381Y-59634819D02*
X45423809Y-60634819D01*
X45423809Y-60634819D02*
X45423809Y-59634819D01*
X117404761Y-64475057D02*
X117309523Y-64427438D01*
X117309523Y-64427438D02*
X117214285Y-64332200D01*
X117214285Y-64332200D02*
X117071428Y-64189342D01*
X117071428Y-64189342D02*
X116976190Y-64141723D01*
X116976190Y-64141723D02*
X116880952Y-64141723D01*
X116928571Y-64379819D02*
X116833333Y-64332200D01*
X116833333Y-64332200D02*
X116738095Y-64236961D01*
X116738095Y-64236961D02*
X116690476Y-64046485D01*
X116690476Y-64046485D02*
X116690476Y-63713152D01*
X116690476Y-63713152D02*
X116738095Y-63522676D01*
X116738095Y-63522676D02*
X116833333Y-63427438D01*
X116833333Y-63427438D02*
X116928571Y-63379819D01*
X116928571Y-63379819D02*
X117119047Y-63379819D01*
X117119047Y-63379819D02*
X117214285Y-63427438D01*
X117214285Y-63427438D02*
X117309523Y-63522676D01*
X117309523Y-63522676D02*
X117357142Y-63713152D01*
X117357142Y-63713152D02*
X117357142Y-64046485D01*
X117357142Y-64046485D02*
X117309523Y-64236961D01*
X117309523Y-64236961D02*
X117214285Y-64332200D01*
X117214285Y-64332200D02*
X117119047Y-64379819D01*
X117119047Y-64379819D02*
X116928571Y-64379819D01*
X118214285Y-63379819D02*
X118023809Y-63379819D01*
X118023809Y-63379819D02*
X117928571Y-63427438D01*
X117928571Y-63427438D02*
X117880952Y-63475057D01*
X117880952Y-63475057D02*
X117785714Y-63617914D01*
X117785714Y-63617914D02*
X117738095Y-63808390D01*
X117738095Y-63808390D02*
X117738095Y-64189342D01*
X117738095Y-64189342D02*
X117785714Y-64284580D01*
X117785714Y-64284580D02*
X117833333Y-64332200D01*
X117833333Y-64332200D02*
X117928571Y-64379819D01*
X117928571Y-64379819D02*
X118119047Y-64379819D01*
X118119047Y-64379819D02*
X118214285Y-64332200D01*
X118214285Y-64332200D02*
X118261904Y-64284580D01*
X118261904Y-64284580D02*
X118309523Y-64189342D01*
X118309523Y-64189342D02*
X118309523Y-63951247D01*
X118309523Y-63951247D02*
X118261904Y-63856009D01*
X118261904Y-63856009D02*
X118214285Y-63808390D01*
X118214285Y-63808390D02*
X118119047Y-63760771D01*
X118119047Y-63760771D02*
X117928571Y-63760771D01*
X117928571Y-63760771D02*
X117833333Y-63808390D01*
X117833333Y-63808390D02*
X117785714Y-63856009D01*
X117785714Y-63856009D02*
X117738095Y-63951247D01*
X114860714Y-70800057D02*
X114908333Y-70752438D01*
X114908333Y-70752438D02*
X115003571Y-70704819D01*
X115003571Y-70704819D02*
X115241666Y-70704819D01*
X115241666Y-70704819D02*
X115336904Y-70752438D01*
X115336904Y-70752438D02*
X115384523Y-70800057D01*
X115384523Y-70800057D02*
X115432142Y-70895295D01*
X115432142Y-70895295D02*
X115432142Y-70990533D01*
X115432142Y-70990533D02*
X115384523Y-71133390D01*
X115384523Y-71133390D02*
X114813095Y-71704819D01*
X114813095Y-71704819D02*
X115432142Y-71704819D01*
X115860714Y-71704819D02*
X115860714Y-70704819D01*
X115860714Y-70704819D02*
X116432142Y-71704819D01*
X116432142Y-71704819D02*
X116432142Y-70704819D01*
X116813095Y-70704819D02*
X117432142Y-70704819D01*
X117432142Y-70704819D02*
X117098809Y-71085771D01*
X117098809Y-71085771D02*
X117241666Y-71085771D01*
X117241666Y-71085771D02*
X117336904Y-71133390D01*
X117336904Y-71133390D02*
X117384523Y-71181009D01*
X117384523Y-71181009D02*
X117432142Y-71276247D01*
X117432142Y-71276247D02*
X117432142Y-71514342D01*
X117432142Y-71514342D02*
X117384523Y-71609580D01*
X117384523Y-71609580D02*
X117336904Y-71657200D01*
X117336904Y-71657200D02*
X117241666Y-71704819D01*
X117241666Y-71704819D02*
X116955952Y-71704819D01*
X116955952Y-71704819D02*
X116860714Y-71657200D01*
X116860714Y-71657200D02*
X116813095Y-71609580D01*
X117908333Y-71704819D02*
X118098809Y-71704819D01*
X118098809Y-71704819D02*
X118194047Y-71657200D01*
X118194047Y-71657200D02*
X118241666Y-71609580D01*
X118241666Y-71609580D02*
X118336904Y-71466723D01*
X118336904Y-71466723D02*
X118384523Y-71276247D01*
X118384523Y-71276247D02*
X118384523Y-70895295D01*
X118384523Y-70895295D02*
X118336904Y-70800057D01*
X118336904Y-70800057D02*
X118289285Y-70752438D01*
X118289285Y-70752438D02*
X118194047Y-70704819D01*
X118194047Y-70704819D02*
X118003571Y-70704819D01*
X118003571Y-70704819D02*
X117908333Y-70752438D01*
X117908333Y-70752438D02*
X117860714Y-70800057D01*
X117860714Y-70800057D02*
X117813095Y-70895295D01*
X117813095Y-70895295D02*
X117813095Y-71133390D01*
X117813095Y-71133390D02*
X117860714Y-71228628D01*
X117860714Y-71228628D02*
X117908333Y-71276247D01*
X117908333Y-71276247D02*
X118003571Y-71323866D01*
X118003571Y-71323866D02*
X118194047Y-71323866D01*
X118194047Y-71323866D02*
X118289285Y-71276247D01*
X118289285Y-71276247D02*
X118336904Y-71228628D01*
X118336904Y-71228628D02*
X118384523Y-71133390D01*
X119003571Y-70704819D02*
X119098809Y-70704819D01*
X119098809Y-70704819D02*
X119194047Y-70752438D01*
X119194047Y-70752438D02*
X119241666Y-70800057D01*
X119241666Y-70800057D02*
X119289285Y-70895295D01*
X119289285Y-70895295D02*
X119336904Y-71085771D01*
X119336904Y-71085771D02*
X119336904Y-71323866D01*
X119336904Y-71323866D02*
X119289285Y-71514342D01*
X119289285Y-71514342D02*
X119241666Y-71609580D01*
X119241666Y-71609580D02*
X119194047Y-71657200D01*
X119194047Y-71657200D02*
X119098809Y-71704819D01*
X119098809Y-71704819D02*
X119003571Y-71704819D01*
X119003571Y-71704819D02*
X118908333Y-71657200D01*
X118908333Y-71657200D02*
X118860714Y-71609580D01*
X118860714Y-71609580D02*
X118813095Y-71514342D01*
X118813095Y-71514342D02*
X118765476Y-71323866D01*
X118765476Y-71323866D02*
X118765476Y-71085771D01*
X118765476Y-71085771D02*
X118813095Y-70895295D01*
X118813095Y-70895295D02*
X118860714Y-70800057D01*
X118860714Y-70800057D02*
X118908333Y-70752438D01*
X118908333Y-70752438D02*
X119003571Y-70704819D01*
X120194047Y-71038152D02*
X120194047Y-71704819D01*
X119955952Y-70657200D02*
X119717857Y-71371485D01*
X119717857Y-71371485D02*
X120336904Y-71371485D01*
X117058333Y-87179819D02*
X116725000Y-86703628D01*
X116486905Y-87179819D02*
X116486905Y-86179819D01*
X116486905Y-86179819D02*
X116867857Y-86179819D01*
X116867857Y-86179819D02*
X116963095Y-86227438D01*
X116963095Y-86227438D02*
X117010714Y-86275057D01*
X117010714Y-86275057D02*
X117058333Y-86370295D01*
X117058333Y-86370295D02*
X117058333Y-86513152D01*
X117058333Y-86513152D02*
X117010714Y-86608390D01*
X117010714Y-86608390D02*
X116963095Y-86656009D01*
X116963095Y-86656009D02*
X116867857Y-86703628D01*
X116867857Y-86703628D02*
X116486905Y-86703628D01*
X117391667Y-86179819D02*
X118058333Y-86179819D01*
X118058333Y-86179819D02*
X117629762Y-87179819D01*
X117704819Y-79869047D02*
X117704819Y-80440475D01*
X117704819Y-80154761D02*
X116704819Y-80154761D01*
X116704819Y-80154761D02*
X116847676Y-80249999D01*
X116847676Y-80249999D02*
X116942914Y-80345237D01*
X116942914Y-80345237D02*
X116990533Y-80440475D01*
X117704819Y-79440475D02*
X116704819Y-79440475D01*
X117323866Y-79345237D02*
X117704819Y-79059523D01*
X117038152Y-79059523D02*
X117419104Y-79440475D01*
D13*
%TO.C,R2*%
X79130000Y-52980000D02*
X79130000Y-59520000D01*
X79130000Y-59520000D02*
X81870000Y-59520000D01*
X80500000Y-52210000D02*
X80500000Y-52980000D01*
X80500000Y-60290000D02*
X80500000Y-59520000D01*
X81870000Y-52980000D02*
X79130000Y-52980000D01*
X81870000Y-59520000D02*
X81870000Y-52980000D01*
%TO.C,Q2*%
X82460000Y-72550000D02*
X82460000Y-68950000D01*
X78010000Y-70750000D02*
G75*
G02*
X82448478Y-68911522I2600000J0D01*
G01*
X82448478Y-72588478D02*
G75*
G02*
X78009999Y-70750000I-1838478J1838478D01*
G01*
%TO.C,C1*%
X96280000Y-73965000D02*
X96280000Y-73650000D01*
X96280000Y-76390000D02*
X96280000Y-76075000D01*
X101220000Y-73650000D02*
X96280000Y-73650000D01*
X101220000Y-73965000D02*
X101220000Y-73650000D01*
X101220000Y-76390000D02*
X96280000Y-76390000D01*
X101220000Y-76390000D02*
X101220000Y-76075000D01*
%TO.C,R5*%
X105140000Y-53030000D02*
X105140000Y-59570000D01*
X105140000Y-59570000D02*
X107880000Y-59570000D01*
X106510000Y-52260000D02*
X106510000Y-53030000D01*
X106510000Y-60340000D02*
X106510000Y-59570000D01*
X107880000Y-53030000D02*
X105140000Y-53030000D01*
X107880000Y-59570000D02*
X107880000Y-53030000D01*
%TO.C,R6*%
X104880000Y-76480000D02*
X104880000Y-83020000D01*
X104880000Y-83020000D02*
X107620000Y-83020000D01*
X106250000Y-75710000D02*
X106250000Y-76480000D01*
X106250000Y-83790000D02*
X106250000Y-83020000D01*
X107620000Y-76480000D02*
X104880000Y-76480000D01*
X107620000Y-83020000D02*
X107620000Y-76480000D01*
%TO.C,OUT*%
X125220000Y-66870000D02*
X126550000Y-66870000D01*
X125220000Y-68200000D02*
X125220000Y-66870000D01*
X125220000Y-69470000D02*
X125220000Y-69530000D01*
X125220000Y-69470000D02*
X127880000Y-69470000D01*
X125220000Y-69530000D02*
X127880000Y-69530000D01*
X127880000Y-69470000D02*
X127880000Y-69530000D01*
%TO.C,R4*%
X88710000Y-67250000D02*
X89480000Y-67250000D01*
X89480000Y-65880000D02*
X89480000Y-68620000D01*
X89480000Y-68620000D02*
X96020000Y-68620000D01*
X96020000Y-65880000D02*
X89480000Y-65880000D01*
X96020000Y-68620000D02*
X96020000Y-65880000D01*
X96790000Y-67250000D02*
X96020000Y-67250000D01*
%TO.C,Q3*%
X76850000Y-84550000D02*
X76850000Y-80950000D01*
X72400000Y-82750000D02*
G75*
G02*
X76838478Y-80911522I2600000J0D01*
G01*
X76838478Y-84588478D02*
G75*
G02*
X72399999Y-82750000I-1838478J1838478D01*
G01*
%TO.C,R1*%
X67880000Y-53030000D02*
X67880000Y-59570000D01*
X67880000Y-59570000D02*
X70620000Y-59570000D01*
X69250000Y-52260000D02*
X69250000Y-53030000D01*
X69250000Y-60340000D02*
X69250000Y-59570000D01*
X70620000Y-53030000D02*
X67880000Y-53030000D01*
X70620000Y-59570000D02*
X70620000Y-53030000D01*
%TO.C,Q4*%
X61100000Y-84530000D02*
X61100000Y-80930000D01*
X56650000Y-82730000D02*
G75*
G02*
X61088478Y-80891522I2600000J0D01*
G01*
X61088478Y-84568478D02*
G75*
G02*
X56649999Y-82730000I-1838478J1838478D01*
G01*
%TO.C,PWR_IN*%
X43420000Y-71645000D02*
X44750000Y-71645000D01*
X43420000Y-72975000D02*
X43420000Y-71645000D01*
X43420000Y-74245000D02*
X43420000Y-76845000D01*
X43420000Y-74245000D02*
X46080000Y-74245000D01*
X43420000Y-76845000D02*
X46080000Y-76845000D01*
X46080000Y-74245000D02*
X46080000Y-76845000D01*
%TO.C,Q1*%
X71100000Y-72530000D02*
X71100000Y-68930000D01*
X66650000Y-70730000D02*
G75*
G02*
X71088478Y-68891522I2600000J0D01*
G01*
X71088478Y-72568478D02*
G75*
G02*
X66649999Y-70730000I-1838478J1838478D01*
G01*
%TO.C,R3*%
X57730000Y-62430000D02*
X57730000Y-68970000D01*
X57730000Y-68970000D02*
X60470000Y-68970000D01*
X59100000Y-61660000D02*
X59100000Y-62430000D01*
X59100000Y-69740000D02*
X59100000Y-68970000D01*
X60470000Y-62430000D02*
X57730000Y-62430000D01*
X60470000Y-68970000D02*
X60470000Y-62430000D01*
%TO.C,Q5*%
X104540000Y-65700000D02*
X104540000Y-69300000D01*
X104551522Y-65661522D02*
G75*
G02*
X108990001Y-67500000I1838478J-1838478D01*
G01*
X108990000Y-67500000D02*
G75*
G02*
X104551522Y-69338478I-2600000J0D01*
G01*
D14*
%TO.C,G\u002A\u002A\u002A*%
G36*
X93485744Y-49662971D02*
G01*
X93569237Y-49703048D01*
X93652844Y-49776581D01*
X93719889Y-49864834D01*
X93753700Y-49949073D01*
X93755023Y-49965538D01*
X93730021Y-50087944D01*
X93663567Y-50190546D01*
X93568489Y-50264894D01*
X93457615Y-50302536D01*
X93343774Y-50295022D01*
X93290028Y-50271853D01*
X93194642Y-50186471D01*
X93137332Y-50072957D01*
X93122545Y-49948835D01*
X93154728Y-49831626D01*
X93171385Y-49804381D01*
X93257764Y-49720967D01*
X93366922Y-49669710D01*
X93475636Y-49661056D01*
X93485744Y-49662971D01*
G37*
G36*
X96582781Y-51330974D02*
G01*
X96663585Y-51339238D01*
X96717460Y-51357737D01*
X96760942Y-51390334D01*
X96773764Y-51402772D01*
X96835314Y-51500166D01*
X96847458Y-51584279D01*
X96824053Y-51704165D01*
X96753921Y-51786392D01*
X96637185Y-51830860D01*
X96532210Y-51839480D01*
X96424570Y-51834263D01*
X96353646Y-51813982D01*
X96296657Y-51771685D01*
X96290656Y-51765785D01*
X96247621Y-51712562D01*
X96225244Y-51649569D01*
X96217404Y-51555608D01*
X96216962Y-51510584D01*
X96216962Y-51329078D01*
X96458516Y-51329078D01*
X96582781Y-51330974D01*
G37*
G36*
X91430157Y-50428642D02*
G01*
X91548073Y-50433909D01*
X91623529Y-50450843D01*
X91665307Y-50486115D01*
X91682187Y-50546398D01*
X91682952Y-50638364D01*
X91677571Y-50744868D01*
X91668380Y-50923759D01*
X91245601Y-50932058D01*
X91076347Y-50934728D01*
X90955968Y-50934181D01*
X90873330Y-50929204D01*
X90817293Y-50918586D01*
X90776722Y-50901115D01*
X90742705Y-50877337D01*
X90679019Y-50802077D01*
X90662588Y-50713869D01*
X90669530Y-50615563D01*
X90695246Y-50542286D01*
X90747077Y-50490536D01*
X90832359Y-50456812D01*
X90958433Y-50437613D01*
X91132636Y-50429439D01*
X91260998Y-50428368D01*
X91430157Y-50428642D01*
G37*
G36*
X91455834Y-51329689D02*
G01*
X91584866Y-51332272D01*
X91673753Y-51337946D01*
X91732443Y-51347834D01*
X91770884Y-51363056D01*
X91799025Y-51384733D01*
X91802723Y-51388361D01*
X91865390Y-51485479D01*
X91883895Y-51594626D01*
X91860194Y-51698695D01*
X91796245Y-51780579D01*
X91755009Y-51805561D01*
X91693520Y-51819340D01*
X91581988Y-51830028D01*
X91430370Y-51836962D01*
X91248623Y-51839479D01*
X91245272Y-51839480D01*
X91074864Y-51839056D01*
X90953784Y-51836753D01*
X90871317Y-51831017D01*
X90816744Y-51820296D01*
X90779348Y-51803040D01*
X90748412Y-51777697D01*
X90736283Y-51765785D01*
X90674733Y-51668391D01*
X90662588Y-51584279D01*
X90687089Y-51469732D01*
X90736283Y-51402772D01*
X90766438Y-51374851D01*
X90798830Y-51355053D01*
X90843691Y-51341984D01*
X90911253Y-51334248D01*
X91011749Y-51330449D01*
X91155413Y-51329192D01*
X91276708Y-51329078D01*
X91455834Y-51329689D01*
G37*
G36*
X95125196Y-48126068D02*
G01*
X95152657Y-48159118D01*
X95172331Y-48222433D01*
X95185345Y-48322751D01*
X95192828Y-48466805D01*
X95195907Y-48661334D01*
X95196158Y-48757631D01*
X95196158Y-49282567D01*
X95333476Y-49442643D01*
X95502592Y-49672063D01*
X95656579Y-49944788D01*
X95768767Y-50199057D01*
X95852060Y-50413357D01*
X96277400Y-50428368D01*
X96445061Y-50434643D01*
X96563504Y-50441078D01*
X96643526Y-50449825D01*
X96695925Y-50463038D01*
X96731495Y-50482870D01*
X96761035Y-50511473D01*
X96775099Y-50527620D01*
X96836042Y-50635903D01*
X96840863Y-50746266D01*
X96789602Y-50847887D01*
X96773764Y-50865076D01*
X96739444Y-50896118D01*
X96702071Y-50916952D01*
X96649564Y-50929606D01*
X96569842Y-50936106D01*
X96450825Y-50938479D01*
X96334493Y-50938770D01*
X95968916Y-50938770D01*
X95986479Y-51036347D01*
X96023810Y-51245934D01*
X96053890Y-51421568D01*
X96079175Y-51579820D01*
X96102121Y-51737263D01*
X96125186Y-51910468D01*
X96150823Y-52116009D01*
X96170034Y-52274822D01*
X96216458Y-52697679D01*
X96248469Y-53079202D01*
X96266998Y-53436112D01*
X96272976Y-53785129D01*
X96269559Y-54061270D01*
X96260052Y-54333175D01*
X96244158Y-54558158D01*
X96219187Y-54749230D01*
X96182447Y-54919402D01*
X96131245Y-55081685D01*
X96062890Y-55249092D01*
X95993148Y-55397281D01*
X95803213Y-55718589D01*
X95569514Y-56002007D01*
X95296862Y-56244947D01*
X94990065Y-56444821D01*
X94653935Y-56599042D01*
X94293279Y-56705024D01*
X93912908Y-56760178D01*
X93517632Y-56761919D01*
X93463693Y-56757945D01*
X93084158Y-56697530D01*
X92723632Y-56582959D01*
X92387360Y-56417902D01*
X92080591Y-56206028D01*
X91808573Y-55951005D01*
X91576553Y-55656503D01*
X91389778Y-55326192D01*
X91377306Y-55299122D01*
X91274562Y-55035086D01*
X91209487Y-54771583D01*
X91177783Y-54487622D01*
X91172990Y-54301418D01*
X91198393Y-53925162D01*
X91275665Y-53576833D01*
X91406404Y-53251519D01*
X91592207Y-52944309D01*
X91631809Y-52890307D01*
X91820561Y-52665515D01*
X92028859Y-52470017D01*
X92265153Y-52298264D01*
X92537889Y-52144709D01*
X92855515Y-52003804D01*
X93142464Y-51898219D01*
X93502851Y-51762895D01*
X93815497Y-51620301D01*
X94075939Y-51472637D01*
X94235402Y-51359029D01*
X94338177Y-51279689D01*
X94434025Y-51210636D01*
X94505174Y-51164570D01*
X94515312Y-51159007D01*
X94626423Y-51129423D01*
X94730598Y-51149378D01*
X94819126Y-51208390D01*
X94883295Y-51295977D01*
X94914394Y-51401657D01*
X94903713Y-51514947D01*
X94870814Y-51586787D01*
X94778970Y-51695416D01*
X94636450Y-51814195D01*
X94450856Y-51938796D01*
X94229786Y-52064890D01*
X93980843Y-52188146D01*
X93711624Y-52304235D01*
X93429732Y-52408828D01*
X93424763Y-52410520D01*
X93261897Y-52468395D01*
X93099088Y-52530590D01*
X92955658Y-52589478D01*
X92854300Y-52635733D01*
X92550102Y-52817286D01*
X92293508Y-53032479D01*
X92086231Y-53278667D01*
X91929988Y-53553203D01*
X91826492Y-53853441D01*
X91777459Y-54176734D01*
X91773463Y-54303628D01*
X91790077Y-54606611D01*
X91843412Y-54871071D01*
X91938703Y-55109589D01*
X92081187Y-55334743D01*
X92276101Y-55559111D01*
X92310630Y-55593919D01*
X92542123Y-55799982D01*
X92775737Y-55956661D01*
X93026538Y-56073207D01*
X93169562Y-56121264D01*
X93309710Y-56150301D01*
X93488308Y-56168744D01*
X93687030Y-56176527D01*
X93887549Y-56173586D01*
X94071538Y-56159856D01*
X94220670Y-56135272D01*
X94258002Y-56125113D01*
X94550242Y-56005701D01*
X94825787Y-55838321D01*
X95074354Y-55631634D01*
X95285663Y-55394300D01*
X95449431Y-55134981D01*
X95461083Y-55111684D01*
X95544184Y-54930652D01*
X95605036Y-54766385D01*
X95647469Y-54602041D01*
X95675311Y-54420778D01*
X95692394Y-54205752D01*
X95698583Y-54067227D01*
X95700599Y-53815619D01*
X95690936Y-53521497D01*
X95670821Y-53194777D01*
X95641481Y-52845377D01*
X95604146Y-52483216D01*
X95560043Y-52118209D01*
X95510400Y-51760275D01*
X95456445Y-51419331D01*
X95399406Y-51105295D01*
X95340511Y-50828084D01*
X95280988Y-50597616D01*
X95260787Y-50531545D01*
X95137348Y-50222504D01*
X94978332Y-49945770D01*
X94788765Y-49707101D01*
X94573673Y-49512251D01*
X94338081Y-49366977D01*
X94191364Y-49306803D01*
X93916060Y-49244459D01*
X93641557Y-49240091D01*
X93375048Y-49291970D01*
X93123727Y-49398367D01*
X92894789Y-49557551D01*
X92807183Y-49639587D01*
X92643084Y-49839998D01*
X92518717Y-50061420D01*
X92438880Y-50291891D01*
X92408375Y-50519445D01*
X92412569Y-50623205D01*
X92451830Y-50805483D01*
X92525164Y-50956374D01*
X92626427Y-51068444D01*
X92749478Y-51134255D01*
X92846808Y-51148824D01*
X92913265Y-51153596D01*
X92944115Y-51165067D01*
X92944385Y-51166366D01*
X92927103Y-51207250D01*
X92882789Y-51278696D01*
X92822739Y-51365040D01*
X92758250Y-51450622D01*
X92700618Y-51519780D01*
X92664148Y-51554895D01*
X92565647Y-51592163D01*
X92444295Y-51593920D01*
X92325681Y-51560138D01*
X92315835Y-51555262D01*
X92213748Y-51480813D01*
X92106301Y-51367103D01*
X92007610Y-51231674D01*
X91931793Y-51092065D01*
X91919875Y-51063281D01*
X91873027Y-50898674D01*
X91845882Y-50692802D01*
X91840561Y-50606930D01*
X91847968Y-50303245D01*
X91902942Y-50026955D01*
X92009090Y-49767198D01*
X92170017Y-49513111D01*
X92228850Y-49437193D01*
X92373936Y-49257144D01*
X92373936Y-48720546D01*
X92374731Y-48522321D01*
X92377554Y-48375908D01*
X92383058Y-48273091D01*
X92391897Y-48205649D01*
X92404727Y-48165365D01*
X92419686Y-48145979D01*
X92445594Y-48128857D01*
X92475049Y-48124470D01*
X92515560Y-48136967D01*
X92574636Y-48170494D01*
X92659786Y-48229200D01*
X92778520Y-48317230D01*
X92908512Y-48415965D01*
X93241966Y-48670346D01*
X93701154Y-48671209D01*
X93863985Y-48672934D01*
X94007531Y-48677111D01*
X94120127Y-48683199D01*
X94190108Y-48690654D01*
X94205378Y-48694677D01*
X94244395Y-48689010D01*
X94319740Y-48649091D01*
X94434042Y-48573267D01*
X94589930Y-48459885D01*
X94647027Y-48416915D01*
X94782377Y-48316393D01*
X94903474Y-48230166D01*
X95001336Y-48164341D01*
X95066980Y-48125026D01*
X95088819Y-48116548D01*
X95125196Y-48126068D01*
G37*
D13*
%TO.C,IN*%
X43420000Y-61380000D02*
X44750000Y-61380000D01*
X43420000Y-62710000D02*
X43420000Y-61380000D01*
X43420000Y-63980000D02*
X43420000Y-66580000D01*
X43420000Y-63980000D02*
X46080000Y-63980000D01*
X43420000Y-66580000D02*
X46080000Y-66580000D01*
X46080000Y-63980000D02*
X46080000Y-66580000D01*
%TO.C,Q6*%
X119600000Y-69280000D02*
X119600000Y-65680000D01*
X115150000Y-67480000D02*
G75*
G02*
X119588478Y-65641522I2600000J0D01*
G01*
X119588478Y-69318478D02*
G75*
G02*
X115149999Y-67480000I-1838478J1838478D01*
G01*
%TO.C,R7*%
X115880000Y-76480000D02*
X115880000Y-83020000D01*
X115880000Y-83020000D02*
X118620000Y-83020000D01*
X117250000Y-75710000D02*
X117250000Y-76480000D01*
X117250000Y-83790000D02*
X117250000Y-83020000D01*
X118620000Y-76480000D02*
X115880000Y-76480000D01*
X118620000Y-83020000D02*
X118620000Y-76480000D01*
%TD*%
M02*
