%TF.GenerationSoftware,KiCad,Pcbnew,8.0.4*%
%TF.CreationDate,2024-10-21T15:03:49+02:00*%
%TF.ProjectId,GiugPamp_101,47697567-5061-46d7-905f-3130312e6b69,rev?*%
%TF.SameCoordinates,Original*%
%TF.FileFunction,Copper,L2,Bot*%
%TF.FilePolarity,Positive*%
%FSLAX46Y46*%
G04 Gerber Fmt 4.6, Leading zero omitted, Abs format (unit mm)*
G04 Created by KiCad (PCBNEW 8.0.4) date 2024-10-21 15:03:49*
%MOMM*%
%LPD*%
G01*
G04 APERTURE LIST*
%TA.AperFunction,ComponentPad*%
%ADD10C,1.600000*%
%TD*%
%TA.AperFunction,ComponentPad*%
%ADD11O,1.600000X1.600000*%
%TD*%
%TA.AperFunction,ComponentPad*%
%ADD12R,1.500000X1.050000*%
%TD*%
%TA.AperFunction,ComponentPad*%
%ADD13O,1.500000X1.050000*%
%TD*%
%TA.AperFunction,ComponentPad*%
%ADD14R,1.700000X1.700000*%
%TD*%
%TA.AperFunction,ComponentPad*%
%ADD15O,1.700000X1.700000*%
%TD*%
%TA.AperFunction,Conductor*%
%ADD16C,0.500000*%
%TD*%
%TA.AperFunction,Conductor*%
%ADD17C,0.300000*%
%TD*%
G04 APERTURE END LIST*
D10*
%TO.P,R2,1*%
%TO.N,VCC*%
X80500000Y-51170000D03*
D11*
%TO.P,R2,2*%
%TO.N,Net-(Q2-C)*%
X80500000Y-61330000D03*
%TD*%
D12*
%TO.P,Q2,1,E*%
%TO.N,Net-(Q1-E)*%
X80610000Y-72020000D03*
D13*
%TO.P,Q2,2,B*%
%TO.N,V-*%
X80610000Y-70750000D03*
%TO.P,Q2,3,C*%
%TO.N,Net-(Q2-C)*%
X80610000Y-69480000D03*
%TD*%
D10*
%TO.P,C1,1*%
%TO.N,Net-(Q5-C)*%
X101250000Y-75020000D03*
%TO.P,C1,2*%
%TO.N,Net-(Q5-B)*%
X96250000Y-75020000D03*
%TD*%
%TO.P,R5,1*%
%TO.N,Net-(Q5-E)*%
X106510000Y-61380000D03*
D11*
%TO.P,R5,2*%
%TO.N,VCC*%
X106510000Y-51220000D03*
%TD*%
D10*
%TO.P,R6,1*%
%TO.N,VEE*%
X106250000Y-84830000D03*
D11*
%TO.P,R6,2*%
%TO.N,Net-(Q5-C)*%
X106250000Y-74670000D03*
%TD*%
D14*
%TO.P,OUT,1,Pin_1*%
%TO.N,OUT*%
X126550000Y-68200000D03*
%TD*%
D10*
%TO.P,R4,1*%
%TO.N,Net-(Q1-C)*%
X87670000Y-67250000D03*
D11*
%TO.P,R4,2*%
%TO.N,Net-(Q5-B)*%
X97830000Y-67250000D03*
%TD*%
D12*
%TO.P,Q3,1,E*%
%TO.N,VEE*%
X75000000Y-84020000D03*
D13*
%TO.P,Q3,2,B*%
%TO.N,Net-(Q3-B)*%
X75000000Y-82750000D03*
%TO.P,Q3,3,C*%
%TO.N,Net-(Q1-E)*%
X75000000Y-81480000D03*
%TD*%
D10*
%TO.P,R1,1*%
%TO.N,VCC*%
X69250000Y-51220000D03*
D11*
%TO.P,R1,2*%
%TO.N,Net-(Q1-C)*%
X69250000Y-61380000D03*
%TD*%
D12*
%TO.P,Q4,1,E*%
%TO.N,VEE*%
X59250000Y-84000000D03*
D13*
%TO.P,Q4,2,B*%
%TO.N,Net-(Q3-B)*%
X59250000Y-82730000D03*
%TO.P,Q4,3,C*%
X59250000Y-81460000D03*
%TD*%
D14*
%TO.P,PWR_IN,1,Pin_1*%
%TO.N,VCC*%
X44750000Y-72975000D03*
D15*
%TO.P,PWR_IN,2,Pin_2*%
%TO.N,VEE*%
X44750000Y-75515000D03*
%TD*%
D12*
%TO.P,Q1,1,E*%
%TO.N,Net-(Q1-E)*%
X69250000Y-72000000D03*
D13*
%TO.P,Q1,2,B*%
%TO.N,V+*%
X69250000Y-70730000D03*
%TO.P,Q1,3,C*%
%TO.N,Net-(Q1-C)*%
X69250000Y-69460000D03*
%TD*%
D10*
%TO.P,R3,1*%
%TO.N,VCC*%
X59100000Y-60620000D03*
D11*
%TO.P,R3,2*%
%TO.N,Net-(Q3-B)*%
X59100000Y-70780000D03*
%TD*%
D12*
%TO.P,Q5,1,E*%
%TO.N,Net-(Q5-E)*%
X106390000Y-66230000D03*
D13*
%TO.P,Q5,2,B*%
%TO.N,Net-(Q5-B)*%
X106390000Y-67500000D03*
%TO.P,Q5,3,C*%
%TO.N,Net-(Q5-C)*%
X106390000Y-68770000D03*
%TD*%
D14*
%TO.P,IN,1,Pin_1*%
%TO.N,V+*%
X44750000Y-62710000D03*
D15*
%TO.P,IN,2,Pin_2*%
%TO.N,V-*%
X44750000Y-65250000D03*
%TD*%
D12*
%TO.P,Q6,1,E*%
%TO.N,OUT*%
X117750000Y-68750000D03*
D13*
%TO.P,Q6,2,B*%
%TO.N,Net-(Q5-C)*%
X117750000Y-67480000D03*
%TO.P,Q6,3,C*%
%TO.N,VCC*%
X117750000Y-66210000D03*
%TD*%
D10*
%TO.P,R7,1*%
%TO.N,VEE*%
X117250000Y-84830000D03*
D11*
%TO.P,R7,2*%
%TO.N,OUT*%
X117250000Y-74670000D03*
%TD*%
D16*
%TO.N,VEE*%
X106180000Y-84830000D02*
X105370000Y-84020000D01*
D17*
X74980000Y-84000000D02*
X75000000Y-84020000D01*
D16*
X117250000Y-84830000D02*
X106250000Y-84830000D01*
X50395000Y-75515000D02*
X44750000Y-75515000D01*
D17*
X106250000Y-84830000D02*
X106180000Y-84830000D01*
D16*
X58880000Y-84000000D02*
X50395000Y-75515000D01*
D17*
X59250000Y-84000000D02*
X58880000Y-84000000D01*
D16*
X59250000Y-84000000D02*
X74980000Y-84000000D01*
X105370000Y-84020000D02*
X75000000Y-84020000D01*
%TO.N,VCC*%
X117750000Y-62250000D02*
X117750000Y-66210000D01*
X106510000Y-51220000D02*
X106720000Y-51220000D01*
D17*
X80450000Y-51220000D02*
X80500000Y-51170000D01*
D16*
X59100000Y-60620000D02*
X57105000Y-60620000D01*
X69250000Y-51220000D02*
X80450000Y-51220000D01*
X80500000Y-51170000D02*
X106460000Y-51170000D01*
X57105000Y-60620000D02*
X44750000Y-72975000D01*
X66505000Y-51220000D02*
X44750000Y-72975000D01*
X69250000Y-51220000D02*
X66505000Y-51220000D01*
X106720000Y-51220000D02*
X117750000Y-62250000D01*
D17*
X106460000Y-51170000D02*
X106510000Y-51220000D01*
%TD*%
M02*
