%TF.GenerationSoftware,KiCad,Pcbnew,8.0.4*%
%TF.CreationDate,2024-10-21T15:03:49+02:00*%
%TF.ProjectId,GiugPamp_101,47697567-5061-46d7-905f-3130312e6b69,rev?*%
%TF.SameCoordinates,Original*%
%TF.FileFunction,Legend,Bot*%
%TF.FilePolarity,Positive*%
%FSLAX46Y46*%
G04 Gerber Fmt 4.6, Leading zero omitted, Abs format (unit mm)*
G04 Created by KiCad (PCBNEW 8.0.4) date 2024-10-21 15:03:49*
%MOMM*%
%LPD*%
G01*
G04 APERTURE LIST*
%ADD10C,0.250000*%
G04 APERTURE END LIST*
D10*
X65699812Y-48828428D02*
X65699812Y-49899857D01*
X65699812Y-49899857D02*
X65771241Y-50114142D01*
X65771241Y-50114142D02*
X65914098Y-50257000D01*
X65914098Y-50257000D02*
X66128384Y-50328428D01*
X66128384Y-50328428D02*
X66271241Y-50328428D01*
X64271241Y-50328428D02*
X64985527Y-50328428D01*
X64985527Y-50328428D02*
X64985527Y-48828428D01*
X62914098Y-50185571D02*
X62985526Y-50257000D01*
X62985526Y-50257000D02*
X63199812Y-50328428D01*
X63199812Y-50328428D02*
X63342669Y-50328428D01*
X63342669Y-50328428D02*
X63556955Y-50257000D01*
X63556955Y-50257000D02*
X63699812Y-50114142D01*
X63699812Y-50114142D02*
X63771241Y-49971285D01*
X63771241Y-49971285D02*
X63842669Y-49685571D01*
X63842669Y-49685571D02*
X63842669Y-49471285D01*
X63842669Y-49471285D02*
X63771241Y-49185571D01*
X63771241Y-49185571D02*
X63699812Y-49042714D01*
X63699812Y-49042714D02*
X63556955Y-48899857D01*
X63556955Y-48899857D02*
X63342669Y-48828428D01*
X63342669Y-48828428D02*
X63199812Y-48828428D01*
X63199812Y-48828428D02*
X62985526Y-48899857D01*
X62985526Y-48899857D02*
X62914098Y-48971285D01*
X61842669Y-48828428D02*
X61842669Y-49899857D01*
X61842669Y-49899857D02*
X61914098Y-50114142D01*
X61914098Y-50114142D02*
X62056955Y-50257000D01*
X62056955Y-50257000D02*
X62271241Y-50328428D01*
X62271241Y-50328428D02*
X62414098Y-50328428D01*
X60414098Y-50328428D02*
X61128384Y-50328428D01*
X61128384Y-50328428D02*
X61128384Y-48828428D01*
X59056955Y-50185571D02*
X59128383Y-50257000D01*
X59128383Y-50257000D02*
X59342669Y-50328428D01*
X59342669Y-50328428D02*
X59485526Y-50328428D01*
X59485526Y-50328428D02*
X59699812Y-50257000D01*
X59699812Y-50257000D02*
X59842669Y-50114142D01*
X59842669Y-50114142D02*
X59914098Y-49971285D01*
X59914098Y-49971285D02*
X59985526Y-49685571D01*
X59985526Y-49685571D02*
X59985526Y-49471285D01*
X59985526Y-49471285D02*
X59914098Y-49185571D01*
X59914098Y-49185571D02*
X59842669Y-49042714D01*
X59842669Y-49042714D02*
X59699812Y-48899857D01*
X59699812Y-48899857D02*
X59485526Y-48828428D01*
X59485526Y-48828428D02*
X59342669Y-48828428D01*
X59342669Y-48828428D02*
X59128383Y-48899857D01*
X59128383Y-48899857D02*
X59056955Y-48971285D01*
X57985526Y-48828428D02*
X57985526Y-49899857D01*
X57985526Y-49899857D02*
X58056955Y-50114142D01*
X58056955Y-50114142D02*
X58199812Y-50257000D01*
X58199812Y-50257000D02*
X58414098Y-50328428D01*
X58414098Y-50328428D02*
X58556955Y-50328428D01*
X56556955Y-50328428D02*
X57271241Y-50328428D01*
X57271241Y-50328428D02*
X57271241Y-48828428D01*
X55199812Y-50185571D02*
X55271240Y-50257000D01*
X55271240Y-50257000D02*
X55485526Y-50328428D01*
X55485526Y-50328428D02*
X55628383Y-50328428D01*
X55628383Y-50328428D02*
X55842669Y-50257000D01*
X55842669Y-50257000D02*
X55985526Y-50114142D01*
X55985526Y-50114142D02*
X56056955Y-49971285D01*
X56056955Y-49971285D02*
X56128383Y-49685571D01*
X56128383Y-49685571D02*
X56128383Y-49471285D01*
X56128383Y-49471285D02*
X56056955Y-49185571D01*
X56056955Y-49185571D02*
X55985526Y-49042714D01*
X55985526Y-49042714D02*
X55842669Y-48899857D01*
X55842669Y-48899857D02*
X55628383Y-48828428D01*
X55628383Y-48828428D02*
X55485526Y-48828428D01*
X55485526Y-48828428D02*
X55271240Y-48899857D01*
X55271240Y-48899857D02*
X55199812Y-48971285D01*
X54128383Y-48828428D02*
X54128383Y-49899857D01*
X54128383Y-49899857D02*
X54199812Y-50114142D01*
X54199812Y-50114142D02*
X54342669Y-50257000D01*
X54342669Y-50257000D02*
X54556955Y-50328428D01*
X54556955Y-50328428D02*
X54699812Y-50328428D01*
X52699812Y-50328428D02*
X53414098Y-50328428D01*
X53414098Y-50328428D02*
X53414098Y-48828428D01*
X51342669Y-50185571D02*
X51414097Y-50257000D01*
X51414097Y-50257000D02*
X51628383Y-50328428D01*
X51628383Y-50328428D02*
X51771240Y-50328428D01*
X51771240Y-50328428D02*
X51985526Y-50257000D01*
X51985526Y-50257000D02*
X52128383Y-50114142D01*
X52128383Y-50114142D02*
X52199812Y-49971285D01*
X52199812Y-49971285D02*
X52271240Y-49685571D01*
X52271240Y-49685571D02*
X52271240Y-49471285D01*
X52271240Y-49471285D02*
X52199812Y-49185571D01*
X52199812Y-49185571D02*
X52128383Y-49042714D01*
X52128383Y-49042714D02*
X51985526Y-48899857D01*
X51985526Y-48899857D02*
X51771240Y-48828428D01*
X51771240Y-48828428D02*
X51628383Y-48828428D01*
X51628383Y-48828428D02*
X51414097Y-48899857D01*
X51414097Y-48899857D02*
X51342669Y-48971285D01*
M02*
