M48
; DRILL file {KiCad 8.0.4} date 2024-10-21T15:03:46+0200
; FORMAT={-:-/ absolute / inch / decimal}
; #@! TF.CreationDate,2024-10-21T15:03:46+02:00
; #@! TF.GenerationSoftware,Kicad,Pcbnew,8.0.4
; #@! TF.FileFunction,Plated,1,2,PTH
FMAT,2
INCH
; #@! TA.AperFunction,Plated,PTH,ComponentDrill
T1C0.0295
; #@! TA.AperFunction,Plated,PTH,ComponentDrill
T2C0.0315
; #@! TA.AperFunction,Plated,PTH,ComponentDrill
T3C0.0394
%
G90
G05
T1
X2.3327Y-3.2071
X2.3327Y-3.2571
X2.3327Y-3.3071
X2.7264Y-2.7346
X2.7264Y-2.7846
X2.7264Y-2.8346
X2.9528Y-3.2079
X2.9528Y-3.2579
X2.9528Y-3.3079
X3.1736Y-2.7354
X3.1736Y-2.7854
X3.1736Y-2.8354
X4.1886Y-2.6075
X4.1886Y-2.6575
X4.1886Y-2.7075
X4.6358Y-2.6067
X4.6358Y-2.6567
X4.6358Y-2.7067
T2
X2.3268Y-2.3866
X2.3268Y-2.7866
X2.7264Y-2.0165
X2.7264Y-2.4165
X3.1693Y-2.0146
X3.1693Y-2.4146
X3.4516Y-2.6476
X3.7894Y-2.9535
X3.8516Y-2.6476
X3.9862Y-2.9535
X4.1831Y-2.9398
X4.1831Y-3.3398
X4.1933Y-2.0165
X4.1933Y-2.4165
X4.6161Y-2.9398
X4.6161Y-3.3398
T3
X1.7618Y-2.4689
X1.7618Y-2.5689
X1.7618Y-2.873
X1.7618Y-2.973
X4.9823Y-2.685
M30
