%TF.GenerationSoftware,KiCad,Pcbnew,8.0.4*%
%TF.CreationDate,2024-10-21T15:09:54+02:00*%
%TF.ProjectId,GiugAmp_301,47697567-416d-4705-9f33-30312e6b6963,rev?*%
%TF.SameCoordinates,Original*%
%TF.FileFunction,Legend,Bot*%
%TF.FilePolarity,Positive*%
%FSLAX46Y46*%
G04 Gerber Fmt 4.6, Leading zero omitted, Abs format (unit mm)*
G04 Created by KiCad (PCBNEW 8.0.4) date 2024-10-21 15:09:54*
%MOMM*%
%LPD*%
G01*
G04 APERTURE LIST*
%ADD10C,0.250000*%
G04 APERTURE END LIST*
D10*
X147524812Y-95703428D02*
X147524812Y-96774857D01*
X147524812Y-96774857D02*
X147596241Y-96989142D01*
X147596241Y-96989142D02*
X147739098Y-97132000D01*
X147739098Y-97132000D02*
X147953384Y-97203428D01*
X147953384Y-97203428D02*
X148096241Y-97203428D01*
X146096241Y-97203428D02*
X146810527Y-97203428D01*
X146810527Y-97203428D02*
X146810527Y-95703428D01*
X144739098Y-97060571D02*
X144810526Y-97132000D01*
X144810526Y-97132000D02*
X145024812Y-97203428D01*
X145024812Y-97203428D02*
X145167669Y-97203428D01*
X145167669Y-97203428D02*
X145381955Y-97132000D01*
X145381955Y-97132000D02*
X145524812Y-96989142D01*
X145524812Y-96989142D02*
X145596241Y-96846285D01*
X145596241Y-96846285D02*
X145667669Y-96560571D01*
X145667669Y-96560571D02*
X145667669Y-96346285D01*
X145667669Y-96346285D02*
X145596241Y-96060571D01*
X145596241Y-96060571D02*
X145524812Y-95917714D01*
X145524812Y-95917714D02*
X145381955Y-95774857D01*
X145381955Y-95774857D02*
X145167669Y-95703428D01*
X145167669Y-95703428D02*
X145024812Y-95703428D01*
X145024812Y-95703428D02*
X144810526Y-95774857D01*
X144810526Y-95774857D02*
X144739098Y-95846285D01*
X143667669Y-95703428D02*
X143667669Y-96774857D01*
X143667669Y-96774857D02*
X143739098Y-96989142D01*
X143739098Y-96989142D02*
X143881955Y-97132000D01*
X143881955Y-97132000D02*
X144096241Y-97203428D01*
X144096241Y-97203428D02*
X144239098Y-97203428D01*
X142239098Y-97203428D02*
X142953384Y-97203428D01*
X142953384Y-97203428D02*
X142953384Y-95703428D01*
X140881955Y-97060571D02*
X140953383Y-97132000D01*
X140953383Y-97132000D02*
X141167669Y-97203428D01*
X141167669Y-97203428D02*
X141310526Y-97203428D01*
X141310526Y-97203428D02*
X141524812Y-97132000D01*
X141524812Y-97132000D02*
X141667669Y-96989142D01*
X141667669Y-96989142D02*
X141739098Y-96846285D01*
X141739098Y-96846285D02*
X141810526Y-96560571D01*
X141810526Y-96560571D02*
X141810526Y-96346285D01*
X141810526Y-96346285D02*
X141739098Y-96060571D01*
X141739098Y-96060571D02*
X141667669Y-95917714D01*
X141667669Y-95917714D02*
X141524812Y-95774857D01*
X141524812Y-95774857D02*
X141310526Y-95703428D01*
X141310526Y-95703428D02*
X141167669Y-95703428D01*
X141167669Y-95703428D02*
X140953383Y-95774857D01*
X140953383Y-95774857D02*
X140881955Y-95846285D01*
X139810526Y-95703428D02*
X139810526Y-96774857D01*
X139810526Y-96774857D02*
X139881955Y-96989142D01*
X139881955Y-96989142D02*
X140024812Y-97132000D01*
X140024812Y-97132000D02*
X140239098Y-97203428D01*
X140239098Y-97203428D02*
X140381955Y-97203428D01*
X138381955Y-97203428D02*
X139096241Y-97203428D01*
X139096241Y-97203428D02*
X139096241Y-95703428D01*
X137024812Y-97060571D02*
X137096240Y-97132000D01*
X137096240Y-97132000D02*
X137310526Y-97203428D01*
X137310526Y-97203428D02*
X137453383Y-97203428D01*
X137453383Y-97203428D02*
X137667669Y-97132000D01*
X137667669Y-97132000D02*
X137810526Y-96989142D01*
X137810526Y-96989142D02*
X137881955Y-96846285D01*
X137881955Y-96846285D02*
X137953383Y-96560571D01*
X137953383Y-96560571D02*
X137953383Y-96346285D01*
X137953383Y-96346285D02*
X137881955Y-96060571D01*
X137881955Y-96060571D02*
X137810526Y-95917714D01*
X137810526Y-95917714D02*
X137667669Y-95774857D01*
X137667669Y-95774857D02*
X137453383Y-95703428D01*
X137453383Y-95703428D02*
X137310526Y-95703428D01*
X137310526Y-95703428D02*
X137096240Y-95774857D01*
X137096240Y-95774857D02*
X137024812Y-95846285D01*
X135953383Y-95703428D02*
X135953383Y-96774857D01*
X135953383Y-96774857D02*
X136024812Y-96989142D01*
X136024812Y-96989142D02*
X136167669Y-97132000D01*
X136167669Y-97132000D02*
X136381955Y-97203428D01*
X136381955Y-97203428D02*
X136524812Y-97203428D01*
X134524812Y-97203428D02*
X135239098Y-97203428D01*
X135239098Y-97203428D02*
X135239098Y-95703428D01*
X133167669Y-97060571D02*
X133239097Y-97132000D01*
X133239097Y-97132000D02*
X133453383Y-97203428D01*
X133453383Y-97203428D02*
X133596240Y-97203428D01*
X133596240Y-97203428D02*
X133810526Y-97132000D01*
X133810526Y-97132000D02*
X133953383Y-96989142D01*
X133953383Y-96989142D02*
X134024812Y-96846285D01*
X134024812Y-96846285D02*
X134096240Y-96560571D01*
X134096240Y-96560571D02*
X134096240Y-96346285D01*
X134096240Y-96346285D02*
X134024812Y-96060571D01*
X134024812Y-96060571D02*
X133953383Y-95917714D01*
X133953383Y-95917714D02*
X133810526Y-95774857D01*
X133810526Y-95774857D02*
X133596240Y-95703428D01*
X133596240Y-95703428D02*
X133453383Y-95703428D01*
X133453383Y-95703428D02*
X133239097Y-95774857D01*
X133239097Y-95774857D02*
X133167669Y-95846285D01*
M02*
