%TF.GenerationSoftware,KiCad,Pcbnew,8.0.4*%
%TF.CreationDate,2024-10-21T15:09:54+02:00*%
%TF.ProjectId,GiugAmp_301,47697567-416d-4705-9f33-30312e6b6963,rev?*%
%TF.SameCoordinates,Original*%
%TF.FileFunction,Legend,Top*%
%TF.FilePolarity,Positive*%
%FSLAX46Y46*%
G04 Gerber Fmt 4.6, Leading zero omitted, Abs format (unit mm)*
G04 Created by KiCad (PCBNEW 8.0.4) date 2024-10-21 15:09:54*
%MOMM*%
%LPD*%
G01*
G04 APERTURE LIST*
%ADD10C,0.150000*%
%ADD11C,0.200000*%
%ADD12C,0.300000*%
%ADD13C,0.120000*%
%ADD14C,0.000000*%
G04 APERTURE END LIST*
D10*
X78166667Y-80454819D02*
X78500000Y-81454819D01*
X78500000Y-81454819D02*
X78833333Y-80454819D01*
X79738095Y-81359580D02*
X79690476Y-81407200D01*
X79690476Y-81407200D02*
X79547619Y-81454819D01*
X79547619Y-81454819D02*
X79452381Y-81454819D01*
X79452381Y-81454819D02*
X79309524Y-81407200D01*
X79309524Y-81407200D02*
X79214286Y-81311961D01*
X79214286Y-81311961D02*
X79166667Y-81216723D01*
X79166667Y-81216723D02*
X79119048Y-81026247D01*
X79119048Y-81026247D02*
X79119048Y-80883390D01*
X79119048Y-80883390D02*
X79166667Y-80692914D01*
X79166667Y-80692914D02*
X79214286Y-80597676D01*
X79214286Y-80597676D02*
X79309524Y-80502438D01*
X79309524Y-80502438D02*
X79452381Y-80454819D01*
X79452381Y-80454819D02*
X79547619Y-80454819D01*
X79547619Y-80454819D02*
X79690476Y-80502438D01*
X79690476Y-80502438D02*
X79738095Y-80550057D01*
X80738095Y-81359580D02*
X80690476Y-81407200D01*
X80690476Y-81407200D02*
X80547619Y-81454819D01*
X80547619Y-81454819D02*
X80452381Y-81454819D01*
X80452381Y-81454819D02*
X80309524Y-81407200D01*
X80309524Y-81407200D02*
X80214286Y-81311961D01*
X80214286Y-81311961D02*
X80166667Y-81216723D01*
X80166667Y-81216723D02*
X80119048Y-81026247D01*
X80119048Y-81026247D02*
X80119048Y-80883390D01*
X80119048Y-80883390D02*
X80166667Y-80692914D01*
X80166667Y-80692914D02*
X80214286Y-80597676D01*
X80214286Y-80597676D02*
X80309524Y-80502438D01*
X80309524Y-80502438D02*
X80452381Y-80454819D01*
X80452381Y-80454819D02*
X80547619Y-80454819D01*
X80547619Y-80454819D02*
X80690476Y-80502438D01*
X80690476Y-80502438D02*
X80738095Y-80550057D01*
D11*
G36*
X111737364Y-95765030D02*
G01*
X111739928Y-95869077D01*
X111740596Y-95966908D01*
X111740567Y-95983352D01*
X111738703Y-96092632D01*
X111733941Y-96191721D01*
X111724950Y-96292487D01*
X111710310Y-96389937D01*
X111700163Y-96437213D01*
X111669000Y-96532869D01*
X111616521Y-96617083D01*
X111548264Y-96666170D01*
X111450924Y-96685471D01*
X111350785Y-96674235D01*
X111275558Y-96632226D01*
X111733757Y-95689448D01*
X111737364Y-95765030D01*
G37*
G36*
X111477611Y-95241389D02*
G01*
X111575000Y-95264954D01*
X111596454Y-95277533D01*
X111660484Y-95353370D01*
X111174930Y-96364535D01*
X111168003Y-96287348D01*
X111162229Y-96188192D01*
X111161199Y-96162844D01*
X111158558Y-96060040D01*
X111157833Y-95961046D01*
X111157901Y-95936843D01*
X111160306Y-95822452D01*
X111166145Y-95719104D01*
X111177685Y-95609664D01*
X111197400Y-95502083D01*
X111228175Y-95405638D01*
X111268475Y-95333403D01*
X111348159Y-95263748D01*
X111450924Y-95240530D01*
X111477611Y-95241389D01*
G37*
G36*
X106258429Y-95296532D02*
G01*
X106358356Y-95307552D01*
X106455128Y-95341555D01*
X106536121Y-95409876D01*
X106582754Y-95509052D01*
X106595376Y-95618618D01*
X106589850Y-95702912D01*
X106564206Y-95798976D01*
X106506960Y-95882889D01*
X106458417Y-95919433D01*
X106361042Y-95956549D01*
X106260764Y-95966420D01*
X106075628Y-95966420D01*
X106075628Y-95296217D01*
X106236339Y-95296217D01*
X106258429Y-95296532D01*
G37*
G36*
X103053367Y-96185261D02*
G01*
X102622522Y-96185261D01*
X102837944Y-95295240D01*
X103053367Y-96185261D01*
G37*
G36*
X114115086Y-97713694D02*
G01*
X93217258Y-97713694D01*
X93217258Y-97491472D01*
X100404309Y-97491472D01*
X101839968Y-97491472D01*
X107290003Y-97491472D01*
X108725662Y-97491472D01*
X108725662Y-97116315D01*
X107290003Y-97116315D01*
X107290003Y-97491472D01*
X101839968Y-97491472D01*
X101839968Y-97116315D01*
X100404309Y-97116315D01*
X100404309Y-97491472D01*
X93217258Y-97491472D01*
X93217258Y-95956161D01*
X93439480Y-95956161D01*
X93440352Y-96020342D01*
X93447328Y-96142876D01*
X93461280Y-96257639D01*
X93482209Y-96364633D01*
X93510113Y-96463856D01*
X93544994Y-96555310D01*
X93598406Y-96658701D01*
X93662718Y-96749951D01*
X93706339Y-96798663D01*
X93786885Y-96869202D01*
X93877233Y-96926432D01*
X93977384Y-96970353D01*
X94087339Y-97000965D01*
X94207097Y-97018267D01*
X94309961Y-97022526D01*
X94372830Y-97021238D01*
X94482026Y-97012428D01*
X94586122Y-96995272D01*
X94685118Y-96969769D01*
X94727746Y-96956137D01*
X94821036Y-96921336D01*
X94910694Y-96880815D01*
X95006053Y-96829085D01*
X95006053Y-95810104D01*
X94265020Y-95810104D01*
X94311427Y-96147159D01*
X94561043Y-96147159D01*
X94561043Y-96622944D01*
X94540767Y-96633174D01*
X94445760Y-96668374D01*
X94414436Y-96675853D01*
X94313869Y-96685471D01*
X94289539Y-96684865D01*
X94186556Y-96666032D01*
X94095516Y-96616594D01*
X94055246Y-96576294D01*
X94001399Y-96486844D01*
X93967044Y-96387983D01*
X93964460Y-96377923D01*
X93944891Y-96277720D01*
X93933075Y-96174055D01*
X93927045Y-96072077D01*
X93925034Y-95959581D01*
X93925093Y-95943497D01*
X93928790Y-95836330D01*
X93938236Y-95738653D01*
X93956074Y-95638643D01*
X93985118Y-95540949D01*
X94022629Y-95457701D01*
X94077816Y-95374634D01*
X94149738Y-95307452D01*
X94189786Y-95282385D01*
X94283627Y-95245865D01*
X94387142Y-95233691D01*
X94481824Y-95242707D01*
X94576674Y-95274724D01*
X94587142Y-95280027D01*
X94672811Y-95334951D01*
X94750575Y-95401242D01*
X94848987Y-95296217D01*
X95311845Y-95296217D01*
X95722662Y-95296217D01*
X95722662Y-96622944D01*
X95311845Y-96622944D01*
X95311845Y-96960000D01*
X96603890Y-96960000D01*
X96603890Y-96622944D01*
X96193562Y-96622944D01*
X96193562Y-96299078D01*
X96938503Y-96299078D01*
X96941371Y-96377841D01*
X96954117Y-96477141D01*
X96980646Y-96581044D01*
X97020080Y-96676678D01*
X97047729Y-96725782D01*
X97107595Y-96805453D01*
X97180444Y-96873919D01*
X97266277Y-96931179D01*
X97365521Y-96975336D01*
X97464897Y-97002454D01*
X97574776Y-97018155D01*
X97679535Y-97022526D01*
X97783510Y-97017968D01*
X97892664Y-97001596D01*
X97991498Y-96973317D01*
X98090352Y-96927271D01*
X98139792Y-96895846D01*
X98218686Y-96830927D01*
X98284597Y-96755265D01*
X98337526Y-96668862D01*
X98365581Y-96606002D01*
X98396781Y-96506109D01*
X98414920Y-96399493D01*
X98420080Y-96299078D01*
X98420080Y-95956161D01*
X98603750Y-95956161D01*
X98604622Y-96020342D01*
X98611599Y-96142876D01*
X98625551Y-96257639D01*
X98646480Y-96364633D01*
X98674384Y-96463856D01*
X98709265Y-96555310D01*
X98762677Y-96658701D01*
X98826988Y-96749951D01*
X98870610Y-96798663D01*
X98951155Y-96869202D01*
X99041504Y-96926432D01*
X99141655Y-96970353D01*
X99251610Y-97000965D01*
X99371367Y-97018267D01*
X99474232Y-97022526D01*
X99537101Y-97021238D01*
X99646297Y-97012428D01*
X99750393Y-96995272D01*
X99849389Y-96969769D01*
X99879937Y-96960000D01*
X103753855Y-96960000D01*
X104157344Y-96960000D01*
X104171510Y-96116873D01*
X104172640Y-96039692D01*
X104173096Y-95941545D01*
X104171999Y-95837459D01*
X104171426Y-95807471D01*
X104168100Y-95705276D01*
X104162718Y-95607383D01*
X104160461Y-95572678D01*
X104152874Y-95471699D01*
X104144155Y-95372909D01*
X104385467Y-96619036D01*
X104741573Y-96619036D01*
X104965788Y-95372909D01*
X104962654Y-95413939D01*
X104955175Y-95514589D01*
X104948203Y-95613244D01*
X104946959Y-95633297D01*
X104941900Y-95736137D01*
X104938921Y-95835994D01*
X104938325Y-95904674D01*
X104939092Y-96006466D01*
X104941364Y-96110034D01*
X104965788Y-96960000D01*
X105376116Y-96960000D01*
X105320567Y-95966420D01*
X105604239Y-95966420D01*
X105604239Y-96975143D01*
X106075628Y-96975143D01*
X106075628Y-96735296D01*
X108919591Y-96735296D01*
X108959922Y-96776536D01*
X109038829Y-96843194D01*
X109125851Y-96900115D01*
X109220987Y-96947299D01*
X109312242Y-96980211D01*
X109409176Y-97003719D01*
X109511789Y-97017824D01*
X109620080Y-97022526D01*
X109721787Y-97018575D01*
X109830124Y-97004386D01*
X109930034Y-96979878D01*
X110032362Y-96939972D01*
X110063989Y-96924008D01*
X110150423Y-96870294D01*
X110231595Y-96800370D01*
X110297121Y-96719665D01*
X110308360Y-96702268D01*
X110353678Y-96611793D01*
X110380870Y-96515499D01*
X110389933Y-96413384D01*
X110386701Y-96341122D01*
X110368085Y-96238602D01*
X110327363Y-96142534D01*
X110257554Y-96059720D01*
X110205518Y-96020411D01*
X110117806Y-95972716D01*
X110079634Y-95959581D01*
X110731385Y-95959581D01*
X110731393Y-95961046D01*
X110731561Y-95990571D01*
X110735785Y-96110284D01*
X110745643Y-96223204D01*
X110761133Y-96329332D01*
X110782256Y-96428666D01*
X110816582Y-96543281D01*
X110853465Y-96632226D01*
X110859708Y-96647282D01*
X110911636Y-96740669D01*
X110959492Y-96806729D01*
X111041752Y-96889305D01*
X111136584Y-96952062D01*
X111243986Y-96995001D01*
X111343090Y-97015644D01*
X111450924Y-97022526D01*
X111537218Y-97018122D01*
X111637401Y-97000230D01*
X111746348Y-96960594D01*
X111843000Y-96901140D01*
X111927355Y-96821868D01*
X111988258Y-96740669D01*
X111999438Y-96722841D01*
X112050014Y-96627331D01*
X112091716Y-96521207D01*
X112124546Y-96404469D01*
X112144421Y-96303437D01*
X112158618Y-96195611D01*
X112167136Y-96080992D01*
X112169975Y-95959581D01*
X112169798Y-95928654D01*
X112165539Y-95809231D01*
X112155601Y-95696661D01*
X112139985Y-95590946D01*
X112118690Y-95492085D01*
X112084086Y-95378147D01*
X112072827Y-95351416D01*
X112477233Y-95351416D01*
X112669696Y-95666978D01*
X113079047Y-95408080D01*
X113079047Y-96622944D01*
X112599354Y-96622944D01*
X112599354Y-96960000D01*
X113892864Y-96960000D01*
X113892864Y-96622944D01*
X113521127Y-96622944D01*
X113521127Y-94943531D01*
X113119103Y-94943531D01*
X112477233Y-95351416D01*
X112072827Y-95351416D01*
X112040608Y-95274919D01*
X111988258Y-95182400D01*
X111940219Y-95117027D01*
X111857913Y-95035311D01*
X111763311Y-94973206D01*
X111656413Y-94930714D01*
X111557938Y-94910284D01*
X111450924Y-94903475D01*
X111363958Y-94907833D01*
X111263108Y-94925538D01*
X111153611Y-94964762D01*
X111056685Y-95023598D01*
X110972329Y-95102046D01*
X110911636Y-95182400D01*
X110900546Y-95200047D01*
X110850379Y-95294708D01*
X110809012Y-95400078D01*
X110776448Y-95516158D01*
X110756733Y-95616733D01*
X110742650Y-95724161D01*
X110734201Y-95838444D01*
X110731385Y-95959581D01*
X110079634Y-95959581D01*
X110018501Y-95938545D01*
X109920498Y-95919525D01*
X109954301Y-95908687D01*
X110048085Y-95869219D01*
X110138874Y-95813129D01*
X110215544Y-95744159D01*
X110235448Y-95720883D01*
X110287655Y-95633872D01*
X110318109Y-95532358D01*
X110326919Y-95428597D01*
X110321912Y-95358346D01*
X110295625Y-95258810D01*
X110246807Y-95166280D01*
X110183581Y-95089936D01*
X110103385Y-95024789D01*
X110015753Y-94975282D01*
X109956717Y-94950879D01*
X109859726Y-94923741D01*
X109752612Y-94907963D01*
X109648900Y-94903475D01*
X109585657Y-94905144D01*
X109476207Y-94916565D01*
X109372399Y-94938804D01*
X109274232Y-94971863D01*
X109222073Y-94994656D01*
X109132273Y-95043617D01*
X109047729Y-95102779D01*
X108968440Y-95172142D01*
X109200959Y-95423712D01*
X109216912Y-95408006D01*
X109294195Y-95343224D01*
X109382187Y-95289378D01*
X109400607Y-95280649D01*
X109498502Y-95249880D01*
X109598586Y-95240530D01*
X109622162Y-95241135D01*
X109721058Y-95259969D01*
X109806681Y-95309406D01*
X109811640Y-95313730D01*
X109869571Y-95396269D01*
X109887281Y-95496496D01*
X109886543Y-95521807D01*
X109863569Y-95623801D01*
X109803262Y-95703614D01*
X109781509Y-95719643D01*
X109686612Y-95760716D01*
X109587351Y-95772002D01*
X109457903Y-95772002D01*
X109406123Y-96084633D01*
X109587351Y-96084633D01*
X109645059Y-96087123D01*
X109745123Y-96107044D01*
X109835990Y-96155464D01*
X109874672Y-96196496D01*
X109913959Y-96287137D01*
X109924406Y-96387006D01*
X109922128Y-96430674D01*
X109894885Y-96528583D01*
X109831106Y-96608778D01*
X109787692Y-96638661D01*
X109693299Y-96674686D01*
X109590282Y-96685471D01*
X109561034Y-96684753D01*
X109461551Y-96670942D01*
X109366556Y-96639553D01*
X109334060Y-96623880D01*
X109248148Y-96565910D01*
X109175069Y-96493496D01*
X108919591Y-96735296D01*
X106075628Y-96735296D01*
X106075628Y-96303475D01*
X106291050Y-96303475D01*
X106305709Y-96303402D01*
X106405172Y-96298804D01*
X106512090Y-96284790D01*
X106611802Y-96261434D01*
X106704309Y-96228736D01*
X106758083Y-96203484D01*
X106845078Y-96148474D01*
X106919478Y-96081176D01*
X106981280Y-96001591D01*
X107024664Y-95920075D01*
X107058654Y-95816253D01*
X107075698Y-95713198D01*
X107080443Y-95614710D01*
X107079573Y-95574087D01*
X107066521Y-95460074D01*
X107037807Y-95357841D01*
X106993431Y-95267389D01*
X106933393Y-95188718D01*
X106857693Y-95121828D01*
X106843623Y-95111820D01*
X106751712Y-95058445D01*
X106646955Y-95016508D01*
X106549844Y-94990297D01*
X106443813Y-94972029D01*
X106328862Y-94961704D01*
X106230478Y-94959162D01*
X105604239Y-94959162D01*
X105604239Y-95966420D01*
X105320567Y-95966420D01*
X105264253Y-94959162D01*
X104780652Y-94959162D01*
X104570603Y-96256092D01*
X104349808Y-94959162D01*
X103865718Y-94959162D01*
X103753855Y-96960000D01*
X99879937Y-96960000D01*
X99881466Y-96959511D01*
X101950366Y-96959511D01*
X102443248Y-96959511D01*
X102547784Y-96522316D01*
X103131036Y-96522316D01*
X103235572Y-96959511D01*
X103739689Y-96959511D01*
X103131036Y-94943531D01*
X102559508Y-94943531D01*
X102184311Y-96185261D01*
X101950366Y-96959511D01*
X99881466Y-96959511D01*
X99892017Y-96956137D01*
X99985307Y-96921336D01*
X100074964Y-96880815D01*
X100170324Y-96829085D01*
X100170324Y-95810104D01*
X99429291Y-95810104D01*
X99475697Y-96147159D01*
X99725314Y-96147159D01*
X99725314Y-96622944D01*
X99705038Y-96633174D01*
X99610031Y-96668374D01*
X99578707Y-96675853D01*
X99478140Y-96685471D01*
X99453809Y-96684865D01*
X99350827Y-96666032D01*
X99259787Y-96616594D01*
X99219517Y-96576294D01*
X99165670Y-96486844D01*
X99131315Y-96387983D01*
X99128730Y-96377923D01*
X99109161Y-96277720D01*
X99097346Y-96174055D01*
X99091315Y-96072077D01*
X99089305Y-95959581D01*
X99089364Y-95943497D01*
X99093060Y-95836330D01*
X99102507Y-95738653D01*
X99120345Y-95638643D01*
X99149389Y-95540949D01*
X99186900Y-95457701D01*
X99242087Y-95374634D01*
X99314009Y-95307452D01*
X99354057Y-95282385D01*
X99447898Y-95245865D01*
X99551413Y-95233691D01*
X99646095Y-95242707D01*
X99740945Y-95274724D01*
X99751413Y-95280027D01*
X99837081Y-95334951D01*
X99914846Y-95401242D01*
X100162020Y-95137459D01*
X100147358Y-95124070D01*
X100070154Y-95062103D01*
X99986463Y-95008436D01*
X99896284Y-94963070D01*
X99837808Y-94940493D01*
X99741015Y-94915385D01*
X99633326Y-94900788D01*
X99528454Y-94896636D01*
X99464615Y-94898536D01*
X99356570Y-94911009D01*
X99253200Y-94935121D01*
X99154505Y-94970875D01*
X99060484Y-95018269D01*
X98997096Y-95058929D01*
X98915404Y-95125270D01*
X98841941Y-95202597D01*
X98776705Y-95290911D01*
X98727337Y-95375352D01*
X98698372Y-95436039D01*
X98662164Y-95533451D01*
X98634647Y-95638524D01*
X98615819Y-95751255D01*
X98606768Y-95851049D01*
X98603750Y-95956161D01*
X98420080Y-95956161D01*
X98420080Y-94959162D01*
X97947714Y-94959162D01*
X97947714Y-96133482D01*
X97945377Y-96247090D01*
X97938364Y-96347702D01*
X97924626Y-96446773D01*
X97898866Y-96546741D01*
X97866839Y-96607435D01*
X97782369Y-96669078D01*
X97679535Y-96685471D01*
X97601683Y-96676800D01*
X97513527Y-96631279D01*
X97459717Y-96546741D01*
X97456712Y-96537937D01*
X97431906Y-96435317D01*
X97418930Y-96334124D01*
X97412586Y-96231656D01*
X97410868Y-96133482D01*
X97410868Y-94959162D01*
X96938503Y-94959162D01*
X96938503Y-96299078D01*
X96193562Y-96299078D01*
X96193562Y-95296217D01*
X96603890Y-95296217D01*
X96603890Y-94959162D01*
X95311845Y-94959162D01*
X95311845Y-95296217D01*
X94848987Y-95296217D01*
X94997749Y-95137459D01*
X94983087Y-95124070D01*
X94905883Y-95062103D01*
X94822192Y-95008436D01*
X94732013Y-94963070D01*
X94673538Y-94940493D01*
X94576744Y-94915385D01*
X94469055Y-94900788D01*
X94364183Y-94896636D01*
X94300344Y-94898536D01*
X94192299Y-94911009D01*
X94088929Y-94935121D01*
X93990234Y-94970875D01*
X93896214Y-95018269D01*
X93832825Y-95058929D01*
X93751133Y-95125270D01*
X93677670Y-95202597D01*
X93612434Y-95290911D01*
X93563066Y-95375352D01*
X93534101Y-95436039D01*
X93497894Y-95533451D01*
X93470376Y-95638524D01*
X93451549Y-95751255D01*
X93442497Y-95851049D01*
X93439480Y-95956161D01*
X93217258Y-95956161D01*
X93217258Y-94674414D01*
X114115086Y-94674414D01*
X114115086Y-97713694D01*
G37*
D10*
X78297619Y-71704819D02*
X78630952Y-72704819D01*
X78630952Y-72704819D02*
X78964285Y-71704819D01*
X79297619Y-72323866D02*
X80059524Y-72323866D01*
X79678571Y-72704819D02*
X79678571Y-71942914D01*
D12*
G36*
X133212540Y-67257539D02*
G01*
X133241327Y-67259698D01*
X133307941Y-67281817D01*
X133312123Y-67284674D01*
X133342477Y-67346444D01*
X133332903Y-67392606D01*
X133300076Y-67432271D01*
X133239553Y-67460652D01*
X133217181Y-67465941D01*
X133147229Y-67471594D01*
X133077395Y-67466947D01*
X133010111Y-67447316D01*
X132993610Y-67437418D01*
X132961556Y-67376193D01*
X132964291Y-67347128D01*
X132976601Y-67318063D01*
X133000537Y-67286946D01*
X133040544Y-67252752D01*
X133212540Y-67257539D01*
G37*
G36*
X133183115Y-66534696D02*
G01*
X133247076Y-66565453D01*
X133270621Y-66595250D01*
X133285715Y-66662222D01*
X133276482Y-66712145D01*
X133249811Y-66754204D01*
X133205017Y-66782927D01*
X133141416Y-66793185D01*
X133098109Y-66789144D01*
X133034731Y-66758991D01*
X133012927Y-66732533D01*
X132996434Y-66665641D01*
X133004982Y-66614350D01*
X133031311Y-66570924D01*
X133076106Y-66541517D01*
X133138681Y-66530575D01*
X133183115Y-66534696D01*
G37*
G36*
X137372866Y-66530803D02*
G01*
X137441055Y-66545193D01*
X137496706Y-66589047D01*
X137511484Y-66612396D01*
X137533251Y-66678939D01*
X137537739Y-66749417D01*
X137175966Y-66749417D01*
X137177084Y-66732555D01*
X137189986Y-66663932D01*
X137192323Y-66656523D01*
X137224521Y-66594518D01*
X137227388Y-66590890D01*
X137281284Y-66548014D01*
X137292261Y-66542990D01*
X137361639Y-66530575D01*
X137372866Y-66530803D01*
G37*
G36*
X140319052Y-67802223D02*
G01*
X129834541Y-67802223D01*
X129834541Y-67414148D01*
X132728011Y-67414148D01*
X132729796Y-67442158D01*
X132750579Y-67507839D01*
X132769286Y-67535811D01*
X132822728Y-67581357D01*
X132883225Y-67610194D01*
X132949588Y-67629228D01*
X132995765Y-67637658D01*
X133065160Y-67644606D01*
X133136629Y-67646667D01*
X133197664Y-67644747D01*
X133266165Y-67637184D01*
X133333244Y-67622389D01*
X133343690Y-67619328D01*
X133410523Y-67594008D01*
X133473440Y-67556737D01*
X133516842Y-67517355D01*
X133556873Y-67458258D01*
X133576041Y-67407451D01*
X133584912Y-67337895D01*
X133582875Y-67302800D01*
X133564054Y-67234287D01*
X133551053Y-67209761D01*
X133504556Y-67156667D01*
X133472724Y-67134371D01*
X133434190Y-67117686D01*
X133691256Y-67117686D01*
X133696385Y-67185390D01*
X133714166Y-67221636D01*
X133755198Y-67250701D01*
X133762513Y-67254782D01*
X133825980Y-67282159D01*
X133856625Y-67291977D01*
X133923433Y-67307805D01*
X133973670Y-67315051D01*
X134043454Y-67318405D01*
X134078704Y-67317527D01*
X134152359Y-67309605D01*
X134222288Y-67293443D01*
X134242896Y-67286738D01*
X134309720Y-67257295D01*
X134368297Y-67218558D01*
X134383534Y-67205778D01*
X134430471Y-67154989D01*
X134467459Y-67094776D01*
X134481716Y-67061168D01*
X134498902Y-66992675D01*
X134504047Y-66922438D01*
X134499596Y-66860411D01*
X134480795Y-66791817D01*
X134461545Y-66752291D01*
X134420272Y-66695390D01*
X134390779Y-66666250D01*
X134334787Y-66624950D01*
X134298386Y-66603809D01*
X134236650Y-66572634D01*
X134202530Y-66556971D01*
X134138513Y-66528865D01*
X134115047Y-66518265D01*
X134052344Y-66484413D01*
X134043096Y-66478408D01*
X133991821Y-66430387D01*
X133987788Y-66424584D01*
X133987305Y-66422864D01*
X134550551Y-66422864D01*
X134562861Y-66473471D01*
X134858297Y-67253778D01*
X134873000Y-67279082D01*
X134895910Y-67296521D01*
X134781360Y-67584776D01*
X134775547Y-67612815D01*
X134787857Y-67631964D01*
X134822393Y-67643248D01*
X134884284Y-67646667D01*
X134927154Y-67645632D01*
X134996782Y-67636067D01*
X135043970Y-67601189D01*
X135147578Y-67296521D01*
X135199767Y-67144699D01*
X135514480Y-67144699D01*
X135520293Y-67209326D01*
X135536706Y-67242152D01*
X135570216Y-67265746D01*
X135628004Y-67290708D01*
X135639022Y-67294347D01*
X135706308Y-67310540D01*
X135728470Y-67313981D01*
X135798290Y-67318405D01*
X135803279Y-67318386D01*
X135875312Y-67313703D01*
X135946350Y-67299598D01*
X136002655Y-67279842D01*
X136064661Y-67243862D01*
X136101720Y-67210366D01*
X136142281Y-67150854D01*
X136162798Y-67091100D01*
X136169637Y-67022627D01*
X136168176Y-66991007D01*
X136151172Y-66921754D01*
X136143967Y-66906159D01*
X136103300Y-66848579D01*
X136091844Y-66837387D01*
X136035254Y-66796946D01*
X136020985Y-66789188D01*
X135958318Y-66760017D01*
X135946251Y-66755061D01*
X135881381Y-66730610D01*
X135876669Y-66728935D01*
X135813677Y-66701887D01*
X135765464Y-66666667D01*
X135747341Y-66616744D01*
X135754863Y-66582892D01*
X135778115Y-66555195D01*
X135817438Y-66537072D01*
X135874200Y-66530575D01*
X135888376Y-66530834D01*
X135956266Y-66541175D01*
X136019867Y-66563401D01*
X136065345Y-66585969D01*
X136092700Y-66596227D01*
X136106036Y-66592808D01*
X136115268Y-66579472D01*
X136120055Y-66553143D01*
X136121423Y-66509717D01*
X136120192Y-66475865D01*
X136225715Y-66475865D01*
X136225752Y-66482372D01*
X136235289Y-66551775D01*
X136263328Y-66574343D01*
X136365910Y-66574343D01*
X136365910Y-67012368D01*
X136369517Y-67081516D01*
X136382323Y-67148802D01*
X136395749Y-67185993D01*
X136433272Y-67244204D01*
X136459157Y-67267760D01*
X136520467Y-67299940D01*
X136574363Y-67313193D01*
X136645617Y-67318405D01*
X136698960Y-67315669D01*
X136748199Y-67307805D01*
X136787522Y-67295837D01*
X136812826Y-67279765D01*
X136826845Y-67248991D01*
X136832316Y-67185732D01*
X136829923Y-67142989D01*
X136824452Y-67116318D01*
X136816245Y-67102641D01*
X136805303Y-67099221D01*
X136790600Y-67102641D01*
X136770083Y-67110505D01*
X136742728Y-67118028D01*
X136708192Y-67121447D01*
X136691297Y-67120587D01*
X136629204Y-67086227D01*
X136614244Y-67048435D01*
X136607320Y-66980226D01*
X136607320Y-66846527D01*
X136929769Y-66846527D01*
X136932014Y-66911440D01*
X136940856Y-66984238D01*
X136958150Y-67055453D01*
X136967737Y-67082492D01*
X136999383Y-67145841D01*
X137044319Y-67202829D01*
X137063062Y-67220277D01*
X137122827Y-67261491D01*
X137187934Y-67289682D01*
X137250529Y-67306035D01*
X137319831Y-67315600D01*
X137388653Y-67318405D01*
X137438809Y-67316937D01*
X137507648Y-67309514D01*
X137538164Y-67304462D01*
X137606810Y-67289340D01*
X137612177Y-67287842D01*
X137677934Y-67265062D01*
X137712128Y-67246255D01*
X137722386Y-67232920D01*
X137727857Y-67215481D01*
X137730935Y-67190519D01*
X137731960Y-67155299D01*
X137730593Y-67116660D01*
X137725122Y-67092724D01*
X137715547Y-67081098D01*
X137701186Y-67077679D01*
X137663572Y-67087937D01*
X137605443Y-67110505D01*
X137589412Y-67115793D01*
X137522009Y-67133073D01*
X137480518Y-67139715D01*
X137410537Y-67143331D01*
X137373344Y-67141729D01*
X137303510Y-67126918D01*
X137287289Y-67120234D01*
X137230334Y-67079047D01*
X137218654Y-67064645D01*
X137188960Y-67002794D01*
X137182108Y-66973616D01*
X137175966Y-66902606D01*
X137698108Y-66902606D01*
X137752477Y-66881405D01*
X137772309Y-66815753D01*
X137772309Y-66777114D01*
X137771742Y-66749122D01*
X137764952Y-66679392D01*
X137749057Y-66609221D01*
X137746091Y-66599643D01*
X137717285Y-66533000D01*
X137676908Y-66475523D01*
X137667496Y-66465160D01*
X137613135Y-66419840D01*
X137604601Y-66415341D01*
X137965847Y-66415341D01*
X137965847Y-67258565D01*
X137971660Y-67275320D01*
X137991151Y-67287288D01*
X138028080Y-67294127D01*
X138086894Y-67296521D01*
X138145708Y-67294127D01*
X138182637Y-67287288D01*
X138202470Y-67275662D01*
X138208283Y-67258907D01*
X138208283Y-66702913D01*
X138251554Y-66653620D01*
X138303342Y-66607169D01*
X138325547Y-66592808D01*
X138391905Y-66574343D01*
X138452770Y-66588021D01*
X138494829Y-66626660D01*
X138519448Y-66686158D01*
X138520915Y-66692699D01*
X138527655Y-66762752D01*
X138527655Y-67258907D01*
X138533468Y-67275662D01*
X138552958Y-67287288D01*
X138589888Y-67294127D01*
X138648702Y-67296521D01*
X138706489Y-67294127D01*
X138743419Y-67287288D01*
X138763251Y-67275662D01*
X138769064Y-67258907D01*
X138769064Y-66702913D01*
X138813037Y-66653620D01*
X138865150Y-66607169D01*
X138884415Y-66594379D01*
X138952686Y-66574343D01*
X139013551Y-66588021D01*
X139055952Y-66626660D01*
X139080914Y-66686158D01*
X139082380Y-66692699D01*
X139089120Y-66762752D01*
X139089120Y-67258907D01*
X139094249Y-67275662D01*
X139113740Y-67287288D01*
X139150669Y-67294127D01*
X139210167Y-67296521D01*
X139268639Y-67294127D01*
X139305226Y-67286946D01*
X139324717Y-67275320D01*
X139330530Y-67258565D01*
X139330530Y-67144699D01*
X139508339Y-67144699D01*
X139514152Y-67209326D01*
X139530565Y-67242152D01*
X139564075Y-67265746D01*
X139621863Y-67290708D01*
X139632881Y-67294347D01*
X139700167Y-67310540D01*
X139722329Y-67313981D01*
X139792149Y-67318405D01*
X139797138Y-67318386D01*
X139869171Y-67313703D01*
X139940209Y-67299598D01*
X139996514Y-67279842D01*
X140058520Y-67243862D01*
X140095580Y-67210366D01*
X140136140Y-67150854D01*
X140156657Y-67091100D01*
X140163496Y-67022627D01*
X140162035Y-66991007D01*
X140145031Y-66921754D01*
X140137826Y-66906159D01*
X140097159Y-66848579D01*
X140085703Y-66837387D01*
X140029113Y-66796946D01*
X140014844Y-66789188D01*
X139952177Y-66760017D01*
X139940110Y-66755061D01*
X139875240Y-66730610D01*
X139870528Y-66728935D01*
X139807536Y-66701887D01*
X139759323Y-66666667D01*
X139741200Y-66616744D01*
X139748722Y-66582892D01*
X139771974Y-66555195D01*
X139811297Y-66537072D01*
X139868060Y-66530575D01*
X139882235Y-66530834D01*
X139950125Y-66541175D01*
X140013726Y-66563401D01*
X140059204Y-66585969D01*
X140086559Y-66596227D01*
X140099895Y-66592808D01*
X140109127Y-66579472D01*
X140113914Y-66553143D01*
X140115282Y-66509717D01*
X140113914Y-66472103D01*
X140110495Y-66446458D01*
X140104682Y-66428677D01*
X140091688Y-66413631D01*
X140061256Y-66395851D01*
X140009623Y-66376360D01*
X140007692Y-66375807D01*
X139940551Y-66361657D01*
X139931025Y-66360214D01*
X139862247Y-66355502D01*
X139857218Y-66355521D01*
X139785481Y-66360545D01*
X139716580Y-66375676D01*
X139667066Y-66394720D01*
X139606475Y-66432096D01*
X139575557Y-66461396D01*
X139537062Y-66519633D01*
X139521564Y-66562943D01*
X139513126Y-66632131D01*
X139514862Y-66668075D01*
X139530907Y-66735397D01*
X139537983Y-66751121D01*
X139578094Y-66809256D01*
X139587468Y-66818541D01*
X139644431Y-66860889D01*
X139658456Y-66868671D01*
X139720341Y-66898502D01*
X139730055Y-66902477D01*
X139796252Y-66927909D01*
X139798574Y-66928745D01*
X139862930Y-66956632D01*
X139910118Y-66992536D01*
X139927899Y-67041775D01*
X139918325Y-67085885D01*
X139889944Y-67117686D01*
X139845491Y-67136835D01*
X139787362Y-67143331D01*
X139762058Y-67142455D01*
X139694354Y-67129312D01*
X139686812Y-67126665D01*
X139622889Y-67099221D01*
X139571256Y-67069472D01*
X139540139Y-67055795D01*
X139525778Y-67059214D01*
X139515861Y-67072892D01*
X139510048Y-67099905D01*
X139508339Y-67144699D01*
X139330530Y-67144699D01*
X139330530Y-66715223D01*
X139326683Y-66643928D01*
X139315143Y-66576395D01*
X139297686Y-66522156D01*
X139263510Y-66461845D01*
X139227709Y-66422753D01*
X139168792Y-66384225D01*
X139161378Y-66380746D01*
X139094464Y-66360999D01*
X139024836Y-66355502D01*
X139020139Y-66355539D01*
X138950976Y-66365076D01*
X138944242Y-66366894D01*
X138878827Y-66393457D01*
X138863070Y-66402374D01*
X138805994Y-66443038D01*
X138780403Y-66465335D01*
X138730425Y-66515530D01*
X138727282Y-66508794D01*
X138690076Y-66449877D01*
X138685507Y-66444377D01*
X138632972Y-66399270D01*
X138622382Y-66392887D01*
X138557404Y-66366786D01*
X138532715Y-66361331D01*
X138462002Y-66355502D01*
X138447631Y-66355847D01*
X138377396Y-66367944D01*
X138314284Y-66394825D01*
X138274608Y-66420027D01*
X138221538Y-66463224D01*
X138172721Y-66512452D01*
X138172721Y-66414999D01*
X138167934Y-66398586D01*
X138151863Y-66386960D01*
X138120746Y-66379779D01*
X138069797Y-66377386D01*
X138020216Y-66379779D01*
X137987732Y-66386960D01*
X137970635Y-66398586D01*
X137965847Y-66415341D01*
X137604601Y-66415341D01*
X137551416Y-66387302D01*
X137506036Y-66371930D01*
X137437787Y-66359259D01*
X137367452Y-66355502D01*
X137323854Y-66357105D01*
X137253681Y-66367315D01*
X137184173Y-66389012D01*
X137154520Y-66402636D01*
X137096211Y-66439413D01*
X137046029Y-66486123D01*
X137022488Y-66515290D01*
X136985628Y-66576577D01*
X136959518Y-66641363D01*
X136942581Y-66706798D01*
X136936615Y-66749417D01*
X136932674Y-66777565D01*
X136929769Y-66846527D01*
X136607320Y-66846527D01*
X136607320Y-66574343D01*
X136794703Y-66574343D01*
X136822742Y-66551775D01*
X136824986Y-66545578D01*
X136832316Y-66475865D01*
X136829923Y-66428677D01*
X136822742Y-66398244D01*
X136810774Y-66382173D01*
X136794019Y-66377386D01*
X136607320Y-66377386D01*
X136607320Y-66178719D01*
X136601507Y-66160596D01*
X136582016Y-66147260D01*
X136545087Y-66139396D01*
X136486273Y-66136660D01*
X136427801Y-66139396D01*
X136390530Y-66147260D01*
X136371039Y-66160596D01*
X136365910Y-66178719D01*
X136365910Y-66377386D01*
X136264012Y-66377386D01*
X136247257Y-66382173D01*
X136235289Y-66398244D01*
X136228108Y-66428677D01*
X136225715Y-66475865D01*
X136120192Y-66475865D01*
X136120055Y-66472103D01*
X136116636Y-66446458D01*
X136110823Y-66428677D01*
X136097829Y-66413631D01*
X136067397Y-66395851D01*
X136015764Y-66376360D01*
X136013833Y-66375807D01*
X135946692Y-66361657D01*
X135937166Y-66360214D01*
X135868387Y-66355502D01*
X135863359Y-66355521D01*
X135791622Y-66360545D01*
X135722721Y-66375676D01*
X135673207Y-66394720D01*
X135612616Y-66432096D01*
X135581698Y-66461396D01*
X135543203Y-66519633D01*
X135527705Y-66562943D01*
X135519267Y-66632131D01*
X135521003Y-66668075D01*
X135537048Y-66735397D01*
X135544124Y-66751121D01*
X135584235Y-66809256D01*
X135593609Y-66818541D01*
X135650572Y-66860889D01*
X135664597Y-66868671D01*
X135726482Y-66898502D01*
X135736196Y-66902477D01*
X135802393Y-66927909D01*
X135804715Y-66928745D01*
X135869071Y-66956632D01*
X135916259Y-66992536D01*
X135934040Y-67041775D01*
X135924466Y-67085885D01*
X135896085Y-67117686D01*
X135851632Y-67136835D01*
X135793503Y-67143331D01*
X135768199Y-67142455D01*
X135700495Y-67129312D01*
X135692953Y-67126665D01*
X135629030Y-67099221D01*
X135577397Y-67069472D01*
X135546280Y-67055795D01*
X135531919Y-67059214D01*
X135522002Y-67072892D01*
X135516189Y-67099905D01*
X135514480Y-67144699D01*
X135199767Y-67144699D01*
X135433440Y-66464922D01*
X135440963Y-66423548D01*
X135427969Y-66395509D01*
X135387620Y-66381147D01*
X135318890Y-66377386D01*
X135315608Y-66377389D01*
X135244689Y-66381147D01*
X135214256Y-66393115D01*
X135199553Y-66425941D01*
X135014905Y-67005530D01*
X135012170Y-67005530D01*
X134810083Y-66437225D01*
X134796406Y-66403715D01*
X134776231Y-66385934D01*
X134738618Y-66378754D01*
X134673649Y-66377386D01*
X134670825Y-66377389D01*
X134600816Y-66381147D01*
X134561835Y-66395167D01*
X134550551Y-66422864D01*
X133987305Y-66422864D01*
X133969253Y-66358579D01*
X133979169Y-66305578D01*
X134009944Y-66262494D01*
X134061577Y-66234455D01*
X134065465Y-66233213D01*
X134133726Y-66224197D01*
X134162836Y-66225279D01*
X134230837Y-66237874D01*
X134244461Y-66242117D01*
X134308799Y-66267623D01*
X134365219Y-66298056D01*
X134399071Y-66311733D01*
X134415826Y-66305920D01*
X134425743Y-66287798D01*
X134430530Y-66255997D01*
X134431898Y-66208809D01*
X134430872Y-66167093D01*
X134427452Y-66139396D01*
X134421639Y-66121615D01*
X134408646Y-66104860D01*
X134369323Y-66080240D01*
X134365569Y-66078371D01*
X134300935Y-66053227D01*
X134286357Y-66048919D01*
X134218185Y-66034420D01*
X134198887Y-66031622D01*
X134129965Y-66027239D01*
X134108652Y-66027587D01*
X134036330Y-66034272D01*
X133967543Y-66049465D01*
X133962797Y-66050877D01*
X133896249Y-66077333D01*
X133834870Y-66116486D01*
X133831388Y-66119308D01*
X133781753Y-66170642D01*
X133745624Y-66229326D01*
X133736069Y-66251018D01*
X133717930Y-66317439D01*
X133712456Y-66386618D01*
X133716841Y-66450646D01*
X133735366Y-66520659D01*
X133754728Y-66560393D01*
X133795547Y-66617428D01*
X133824847Y-66646567D01*
X133879665Y-66687867D01*
X133915440Y-66709057D01*
X133976775Y-66740526D01*
X134010929Y-66756034D01*
X134073886Y-66784294D01*
X134096839Y-66794745D01*
X134158004Y-66828405D01*
X134167097Y-66834410D01*
X134218185Y-66882431D01*
X134222340Y-66888242D01*
X134241437Y-66955264D01*
X134241424Y-66957651D01*
X134227759Y-67025020D01*
X134188778Y-67077337D01*
X134126887Y-67109821D01*
X134112830Y-67113772D01*
X134044138Y-67121447D01*
X133989949Y-67118626D01*
X133920697Y-67104350D01*
X133891855Y-67094463D01*
X133828715Y-67066737D01*
X133826335Y-67065458D01*
X133765799Y-67029123D01*
X133727843Y-67012026D01*
X133711088Y-67017497D01*
X133699462Y-67035278D01*
X133692965Y-67067763D01*
X133691256Y-67117686D01*
X133434190Y-67117686D01*
X133408129Y-67106402D01*
X133347093Y-67092126D01*
X133278192Y-67085544D01*
X133069267Y-67077679D01*
X133066529Y-67077534D01*
X133000537Y-67056821D01*
X132976259Y-67007923D01*
X132985150Y-66967232D01*
X133006008Y-66935432D01*
X133063454Y-66958342D01*
X133072916Y-66960666D01*
X133142442Y-66968258D01*
X133147471Y-66968238D01*
X133219464Y-66963214D01*
X133289134Y-66948084D01*
X133343149Y-66926831D01*
X133401632Y-66888928D01*
X133436083Y-66854321D01*
X133473440Y-66793185D01*
X133492161Y-66732063D01*
X133498401Y-66662906D01*
X133489169Y-66603750D01*
X133458736Y-66552459D01*
X133559951Y-66552459D01*
X133585938Y-66531259D01*
X133596538Y-66465948D01*
X133586280Y-66397902D01*
X133559951Y-66377386D01*
X133287766Y-66377386D01*
X133285774Y-66376749D01*
X133218695Y-66361315D01*
X133211740Y-66360276D01*
X133141416Y-66355502D01*
X133136513Y-66355522D01*
X133066018Y-66360802D01*
X132997117Y-66376702D01*
X132943440Y-66398852D01*
X132884619Y-66437909D01*
X132847491Y-66476085D01*
X132811102Y-66535362D01*
X132791355Y-66597082D01*
X132784870Y-66665641D01*
X132784773Y-66666667D01*
X132787610Y-66714832D01*
X132804947Y-66781217D01*
X132815868Y-66803464D01*
X132858632Y-66860205D01*
X132832200Y-66887901D01*
X132791612Y-66947058D01*
X132775775Y-66984661D01*
X132765624Y-67053743D01*
X132766704Y-67073878D01*
X132788192Y-67139912D01*
X132798966Y-67156197D01*
X132852135Y-67201803D01*
X132799134Y-67247965D01*
X132760153Y-67298230D01*
X132736217Y-67353624D01*
X132733157Y-67376193D01*
X132728011Y-67414148D01*
X129834541Y-67414148D01*
X129834541Y-66686500D01*
X129990097Y-66686500D01*
X129991612Y-66741056D01*
X129998344Y-66810395D01*
X130012355Y-66883753D01*
X130033182Y-66952187D01*
X130038760Y-66966709D01*
X130071137Y-67035150D01*
X130110994Y-67096646D01*
X130158332Y-67151196D01*
X130173973Y-67166118D01*
X130230714Y-67210998D01*
X130294534Y-67248398D01*
X130358025Y-67275662D01*
X130411125Y-67292317D01*
X130483773Y-67307719D01*
X130552482Y-67315733D01*
X130625080Y-67318405D01*
X130656856Y-67317937D01*
X130726294Y-67313617D01*
X130757823Y-67310158D01*
X130826482Y-67299256D01*
X130854101Y-67293573D01*
X130922226Y-67276346D01*
X130933531Y-67273028D01*
X130999504Y-67250701D01*
X131040879Y-67217190D01*
X131051137Y-67166925D01*
X131051137Y-66676241D01*
X131046350Y-66642389D01*
X131032330Y-66617428D01*
X131011130Y-66601698D01*
X130983775Y-66596227D01*
X130563531Y-66596227D01*
X130548143Y-66601698D01*
X130536517Y-66618454D01*
X130529337Y-66648544D01*
X130526943Y-66695048D01*
X130526980Y-66701636D01*
X130536517Y-66770959D01*
X130563531Y-66793185D01*
X130799127Y-66793185D01*
X130799127Y-67063659D01*
X130787872Y-67069007D01*
X130722191Y-67090673D01*
X130706639Y-67093694D01*
X130638415Y-67099563D01*
X130622324Y-67099317D01*
X130550647Y-67091650D01*
X130480097Y-67071524D01*
X130471244Y-67067914D01*
X130409955Y-67034109D01*
X130357683Y-66988433D01*
X130348328Y-66977815D01*
X130307506Y-66917783D01*
X130278353Y-66851315D01*
X130264633Y-66803151D01*
X130253325Y-66732706D01*
X130249972Y-66661880D01*
X130251297Y-66619913D01*
X130259736Y-66551776D01*
X130277669Y-66483387D01*
X130283136Y-66468400D01*
X130307895Y-66417051D01*
X131289811Y-66417051D01*
X131289811Y-67258565D01*
X131295624Y-67275320D01*
X131315115Y-67287288D01*
X131352044Y-67294127D01*
X131410858Y-67296521D01*
X131469672Y-67294127D01*
X131506601Y-67287288D01*
X131526434Y-67275320D01*
X131532247Y-67258565D01*
X131532247Y-66417051D01*
X131531641Y-66415341D01*
X131766475Y-66415341D01*
X131766475Y-66935090D01*
X131766721Y-66958791D01*
X131770915Y-67029029D01*
X131782205Y-67097169D01*
X131800259Y-67151306D01*
X131835205Y-67212061D01*
X131871969Y-67251219D01*
X131932316Y-67290024D01*
X131939950Y-67293460D01*
X132009000Y-67312972D01*
X132081060Y-67318405D01*
X132095761Y-67318062D01*
X132167914Y-67306071D01*
X132233224Y-67279424D01*
X132274553Y-67254194D01*
X132328985Y-67210877D01*
X132378206Y-67161454D01*
X132378206Y-67258907D01*
X132382993Y-67275320D01*
X132399406Y-67287288D01*
X132430523Y-67294127D01*
X132482156Y-67296521D01*
X132531737Y-67294127D01*
X132563538Y-67287288D01*
X132580293Y-67275320D01*
X132585080Y-67258565D01*
X132585080Y-66415341D01*
X132579267Y-66398586D01*
X132560118Y-66386960D01*
X132523531Y-66379779D01*
X132464717Y-66377386D01*
X132405903Y-66379779D01*
X132368974Y-66386960D01*
X132349825Y-66398586D01*
X132344696Y-66415341D01*
X132344696Y-66976123D01*
X132299498Y-67023517D01*
X132244849Y-67068105D01*
X132218718Y-67083312D01*
X132152184Y-67099563D01*
X132088241Y-67085885D01*
X132043105Y-67047588D01*
X132016434Y-66988091D01*
X132011224Y-66957605D01*
X132007885Y-66887560D01*
X132007885Y-66414999D01*
X132002072Y-66398586D01*
X131982240Y-66386960D01*
X131945310Y-66379779D01*
X131886838Y-66377386D01*
X131828367Y-66379779D01*
X131791095Y-66386960D01*
X131771605Y-66398928D01*
X131766475Y-66415341D01*
X131531641Y-66415341D01*
X131526434Y-66400638D01*
X131506601Y-66388328D01*
X131469672Y-66380463D01*
X131410858Y-66377386D01*
X131352044Y-66380463D01*
X131315115Y-66388328D01*
X131295624Y-66400638D01*
X131289811Y-66417051D01*
X130307895Y-66417051D01*
X130314216Y-66403941D01*
X130357683Y-66344902D01*
X130364261Y-66337781D01*
X130418793Y-66290933D01*
X130482491Y-66255655D01*
X130505784Y-66246592D01*
X130575534Y-66229389D01*
X130646280Y-66224197D01*
X130656757Y-66224265D01*
X130725610Y-66228556D01*
X130794682Y-66241636D01*
X130840139Y-66254891D01*
X130904787Y-66278907D01*
X130916039Y-66283908D01*
X130978646Y-66316521D01*
X131019337Y-66333617D01*
X131034040Y-66328830D01*
X131044640Y-66312417D01*
X131051479Y-66280617D01*
X131053872Y-66232745D01*
X131053867Y-66229797D01*
X131048060Y-66160938D01*
X131029253Y-66124350D01*
X131019246Y-66117853D01*
X131271688Y-66117853D01*
X131273933Y-66155113D01*
X131300069Y-66218384D01*
X131341786Y-66239157D01*
X131410174Y-66246081D01*
X131455815Y-66243276D01*
X131520963Y-66217358D01*
X131541299Y-66183025D01*
X131550711Y-66112724D01*
X131548412Y-66075437D01*
X131521646Y-66011852D01*
X131483298Y-65991481D01*
X131412226Y-65983471D01*
X131366257Y-65986343D01*
X131301095Y-66012878D01*
X131280993Y-66047444D01*
X131271688Y-66117853D01*
X131019246Y-66117853D01*
X130983433Y-66094601D01*
X130966122Y-66086203D01*
X130901367Y-66062801D01*
X130854777Y-66050553D01*
X130785450Y-66037497D01*
X130781290Y-66036866D01*
X130710914Y-66029493D01*
X130638415Y-66027239D01*
X130584123Y-66028838D01*
X130514763Y-66035944D01*
X130440871Y-66050733D01*
X130371360Y-66072717D01*
X130349227Y-66081535D01*
X130286506Y-66112243D01*
X130223287Y-66153851D01*
X130166880Y-66203338D01*
X130146364Y-66225281D01*
X130100309Y-66285141D01*
X130065255Y-66345124D01*
X130036259Y-66410896D01*
X130016063Y-66473898D01*
X130001638Y-66540833D01*
X129992982Y-66611700D01*
X129990097Y-66686500D01*
X129834541Y-66686500D01*
X129834541Y-65827915D01*
X140319052Y-65827915D01*
X140319052Y-67802223D01*
G37*
D10*
X78261905Y-83204819D02*
X78595238Y-84204819D01*
X78595238Y-84204819D02*
X78928571Y-83204819D01*
X79261905Y-83681009D02*
X79595238Y-83681009D01*
X79738095Y-84204819D02*
X79261905Y-84204819D01*
X79261905Y-84204819D02*
X79261905Y-83204819D01*
X79261905Y-83204819D02*
X79738095Y-83204819D01*
X80166667Y-83681009D02*
X80500000Y-83681009D01*
X80642857Y-84204819D02*
X80166667Y-84204819D01*
X80166667Y-84204819D02*
X80166667Y-83204819D01*
X80166667Y-83204819D02*
X80642857Y-83204819D01*
X78297619Y-74704819D02*
X78630952Y-75704819D01*
X78630952Y-75704819D02*
X78964285Y-74704819D01*
X79297619Y-75323866D02*
X80059524Y-75323866D01*
X74019048Y-78919819D02*
X74019048Y-77919819D01*
X74019048Y-77919819D02*
X74323810Y-77919819D01*
X74323810Y-77919819D02*
X74400000Y-77967438D01*
X74400000Y-77967438D02*
X74438095Y-78015057D01*
X74438095Y-78015057D02*
X74476191Y-78110295D01*
X74476191Y-78110295D02*
X74476191Y-78253152D01*
X74476191Y-78253152D02*
X74438095Y-78348390D01*
X74438095Y-78348390D02*
X74400000Y-78396009D01*
X74400000Y-78396009D02*
X74323810Y-78443628D01*
X74323810Y-78443628D02*
X74019048Y-78443628D01*
X74742857Y-77919819D02*
X74933333Y-78919819D01*
X74933333Y-78919819D02*
X75085714Y-78205533D01*
X75085714Y-78205533D02*
X75238095Y-78919819D01*
X75238095Y-78919819D02*
X75428572Y-77919819D01*
X76190477Y-78919819D02*
X75923810Y-78443628D01*
X75733334Y-78919819D02*
X75733334Y-77919819D01*
X75733334Y-77919819D02*
X76038096Y-77919819D01*
X76038096Y-77919819D02*
X76114286Y-77967438D01*
X76114286Y-77967438D02*
X76152381Y-78015057D01*
X76152381Y-78015057D02*
X76190477Y-78110295D01*
X76190477Y-78110295D02*
X76190477Y-78253152D01*
X76190477Y-78253152D02*
X76152381Y-78348390D01*
X76152381Y-78348390D02*
X76114286Y-78396009D01*
X76114286Y-78396009D02*
X76038096Y-78443628D01*
X76038096Y-78443628D02*
X75733334Y-78443628D01*
X76342858Y-79015057D02*
X76952381Y-79015057D01*
X77142858Y-78919819D02*
X77142858Y-77919819D01*
X77523810Y-78919819D02*
X77523810Y-77919819D01*
X77523810Y-77919819D02*
X77980953Y-78919819D01*
X77980953Y-78919819D02*
X77980953Y-77919819D01*
X156000000Y-73354819D02*
X156190476Y-73354819D01*
X156190476Y-73354819D02*
X156285714Y-73402438D01*
X156285714Y-73402438D02*
X156380952Y-73497676D01*
X156380952Y-73497676D02*
X156428571Y-73688152D01*
X156428571Y-73688152D02*
X156428571Y-74021485D01*
X156428571Y-74021485D02*
X156380952Y-74211961D01*
X156380952Y-74211961D02*
X156285714Y-74307200D01*
X156285714Y-74307200D02*
X156190476Y-74354819D01*
X156190476Y-74354819D02*
X156000000Y-74354819D01*
X156000000Y-74354819D02*
X155904762Y-74307200D01*
X155904762Y-74307200D02*
X155809524Y-74211961D01*
X155809524Y-74211961D02*
X155761905Y-74021485D01*
X155761905Y-74021485D02*
X155761905Y-73688152D01*
X155761905Y-73688152D02*
X155809524Y-73497676D01*
X155809524Y-73497676D02*
X155904762Y-73402438D01*
X155904762Y-73402438D02*
X156000000Y-73354819D01*
X156857143Y-73354819D02*
X156857143Y-74164342D01*
X156857143Y-74164342D02*
X156904762Y-74259580D01*
X156904762Y-74259580D02*
X156952381Y-74307200D01*
X156952381Y-74307200D02*
X157047619Y-74354819D01*
X157047619Y-74354819D02*
X157238095Y-74354819D01*
X157238095Y-74354819D02*
X157333333Y-74307200D01*
X157333333Y-74307200D02*
X157380952Y-74259580D01*
X157380952Y-74259580D02*
X157428571Y-74164342D01*
X157428571Y-74164342D02*
X157428571Y-73354819D01*
X157761905Y-73354819D02*
X158333333Y-73354819D01*
X158047619Y-74354819D02*
X158047619Y-73354819D01*
X115941905Y-80254819D02*
X115941905Y-79254819D01*
X115941905Y-79254819D02*
X116180000Y-79254819D01*
X116180000Y-79254819D02*
X116322857Y-79302438D01*
X116322857Y-79302438D02*
X116418095Y-79397676D01*
X116418095Y-79397676D02*
X116465714Y-79492914D01*
X116465714Y-79492914D02*
X116513333Y-79683390D01*
X116513333Y-79683390D02*
X116513333Y-79826247D01*
X116513333Y-79826247D02*
X116465714Y-80016723D01*
X116465714Y-80016723D02*
X116418095Y-80111961D01*
X116418095Y-80111961D02*
X116322857Y-80207200D01*
X116322857Y-80207200D02*
X116180000Y-80254819D01*
X116180000Y-80254819D02*
X115941905Y-80254819D01*
X116894286Y-79350057D02*
X116941905Y-79302438D01*
X116941905Y-79302438D02*
X117037143Y-79254819D01*
X117037143Y-79254819D02*
X117275238Y-79254819D01*
X117275238Y-79254819D02*
X117370476Y-79302438D01*
X117370476Y-79302438D02*
X117418095Y-79350057D01*
X117418095Y-79350057D02*
X117465714Y-79445295D01*
X117465714Y-79445295D02*
X117465714Y-79540533D01*
X117465714Y-79540533D02*
X117418095Y-79683390D01*
X117418095Y-79683390D02*
X116846667Y-80254819D01*
X116846667Y-80254819D02*
X117465714Y-80254819D01*
X122714284Y-80254819D02*
X122371427Y-80254819D01*
X122542856Y-80254819D02*
X122542856Y-79254819D01*
X122542856Y-79254819D02*
X122485713Y-79397676D01*
X122485713Y-79397676D02*
X122428570Y-79492914D01*
X122428570Y-79492914D02*
X122371427Y-79540533D01*
X122971428Y-80254819D02*
X122971428Y-79254819D01*
X122971428Y-79254819D02*
X123314285Y-80254819D01*
X123314285Y-80254819D02*
X123314285Y-79254819D01*
X123857142Y-79588152D02*
X123857142Y-80254819D01*
X123714284Y-79207200D02*
X123571427Y-79921485D01*
X123571427Y-79921485D02*
X123942856Y-79921485D01*
X124285713Y-79254819D02*
X124342856Y-79254819D01*
X124342856Y-79254819D02*
X124399999Y-79302438D01*
X124399999Y-79302438D02*
X124428571Y-79350057D01*
X124428571Y-79350057D02*
X124457142Y-79445295D01*
X124457142Y-79445295D02*
X124485713Y-79635771D01*
X124485713Y-79635771D02*
X124485713Y-79873866D01*
X124485713Y-79873866D02*
X124457142Y-80064342D01*
X124457142Y-80064342D02*
X124428571Y-80159580D01*
X124428571Y-80159580D02*
X124399999Y-80207200D01*
X124399999Y-80207200D02*
X124342856Y-80254819D01*
X124342856Y-80254819D02*
X124285713Y-80254819D01*
X124285713Y-80254819D02*
X124228571Y-80207200D01*
X124228571Y-80207200D02*
X124199999Y-80159580D01*
X124199999Y-80159580D02*
X124171428Y-80064342D01*
X124171428Y-80064342D02*
X124142856Y-79873866D01*
X124142856Y-79873866D02*
X124142856Y-79635771D01*
X124142856Y-79635771D02*
X124171428Y-79445295D01*
X124171428Y-79445295D02*
X124199999Y-79350057D01*
X124199999Y-79350057D02*
X124228571Y-79302438D01*
X124228571Y-79302438D02*
X124285713Y-79254819D01*
X124857142Y-79254819D02*
X124914285Y-79254819D01*
X124914285Y-79254819D02*
X124971428Y-79302438D01*
X124971428Y-79302438D02*
X125000000Y-79350057D01*
X125000000Y-79350057D02*
X125028571Y-79445295D01*
X125028571Y-79445295D02*
X125057142Y-79635771D01*
X125057142Y-79635771D02*
X125057142Y-79873866D01*
X125057142Y-79873866D02*
X125028571Y-80064342D01*
X125028571Y-80064342D02*
X125000000Y-80159580D01*
X125000000Y-80159580D02*
X124971428Y-80207200D01*
X124971428Y-80207200D02*
X124914285Y-80254819D01*
X124914285Y-80254819D02*
X124857142Y-80254819D01*
X124857142Y-80254819D02*
X124800000Y-80207200D01*
X124800000Y-80207200D02*
X124771428Y-80159580D01*
X124771428Y-80159580D02*
X124742857Y-80064342D01*
X124742857Y-80064342D02*
X124714285Y-79873866D01*
X124714285Y-79873866D02*
X124714285Y-79635771D01*
X124714285Y-79635771D02*
X124742857Y-79445295D01*
X124742857Y-79445295D02*
X124771428Y-79350057D01*
X124771428Y-79350057D02*
X124800000Y-79302438D01*
X124800000Y-79302438D02*
X124857142Y-79254819D01*
X125628571Y-80254819D02*
X125285714Y-80254819D01*
X125457143Y-80254819D02*
X125457143Y-79254819D01*
X125457143Y-79254819D02*
X125400000Y-79397676D01*
X125400000Y-79397676D02*
X125342857Y-79492914D01*
X125342857Y-79492914D02*
X125285714Y-79540533D01*
X129218095Y-82354819D02*
X129218095Y-81354819D01*
X129789523Y-82354819D02*
X129360952Y-81783390D01*
X129789523Y-81354819D02*
X129218095Y-81926247D01*
X144104761Y-61890057D02*
X144009523Y-61842438D01*
X144009523Y-61842438D02*
X143914285Y-61747200D01*
X143914285Y-61747200D02*
X143771428Y-61604342D01*
X143771428Y-61604342D02*
X143676190Y-61556723D01*
X143676190Y-61556723D02*
X143580952Y-61556723D01*
X143628571Y-61794819D02*
X143533333Y-61747200D01*
X143533333Y-61747200D02*
X143438095Y-61651961D01*
X143438095Y-61651961D02*
X143390476Y-61461485D01*
X143390476Y-61461485D02*
X143390476Y-61128152D01*
X143390476Y-61128152D02*
X143438095Y-60937676D01*
X143438095Y-60937676D02*
X143533333Y-60842438D01*
X143533333Y-60842438D02*
X143628571Y-60794819D01*
X143628571Y-60794819D02*
X143819047Y-60794819D01*
X143819047Y-60794819D02*
X143914285Y-60842438D01*
X143914285Y-60842438D02*
X144009523Y-60937676D01*
X144009523Y-60937676D02*
X144057142Y-61128152D01*
X144057142Y-61128152D02*
X144057142Y-61461485D01*
X144057142Y-61461485D02*
X144009523Y-61651961D01*
X144009523Y-61651961D02*
X143914285Y-61747200D01*
X143914285Y-61747200D02*
X143819047Y-61794819D01*
X143819047Y-61794819D02*
X143628571Y-61794819D01*
X144628571Y-61223390D02*
X144533333Y-61175771D01*
X144533333Y-61175771D02*
X144485714Y-61128152D01*
X144485714Y-61128152D02*
X144438095Y-61032914D01*
X144438095Y-61032914D02*
X144438095Y-60985295D01*
X144438095Y-60985295D02*
X144485714Y-60890057D01*
X144485714Y-60890057D02*
X144533333Y-60842438D01*
X144533333Y-60842438D02*
X144628571Y-60794819D01*
X144628571Y-60794819D02*
X144819047Y-60794819D01*
X144819047Y-60794819D02*
X144914285Y-60842438D01*
X144914285Y-60842438D02*
X144961904Y-60890057D01*
X144961904Y-60890057D02*
X145009523Y-60985295D01*
X145009523Y-60985295D02*
X145009523Y-61032914D01*
X145009523Y-61032914D02*
X144961904Y-61128152D01*
X144961904Y-61128152D02*
X144914285Y-61175771D01*
X144914285Y-61175771D02*
X144819047Y-61223390D01*
X144819047Y-61223390D02*
X144628571Y-61223390D01*
X144628571Y-61223390D02*
X144533333Y-61271009D01*
X144533333Y-61271009D02*
X144485714Y-61318628D01*
X144485714Y-61318628D02*
X144438095Y-61413866D01*
X144438095Y-61413866D02*
X144438095Y-61604342D01*
X144438095Y-61604342D02*
X144485714Y-61699580D01*
X144485714Y-61699580D02*
X144533333Y-61747200D01*
X144533333Y-61747200D02*
X144628571Y-61794819D01*
X144628571Y-61794819D02*
X144819047Y-61794819D01*
X144819047Y-61794819D02*
X144914285Y-61747200D01*
X144914285Y-61747200D02*
X144961904Y-61699580D01*
X144961904Y-61699580D02*
X145009523Y-61604342D01*
X145009523Y-61604342D02*
X145009523Y-61413866D01*
X145009523Y-61413866D02*
X144961904Y-61318628D01*
X144961904Y-61318628D02*
X144914285Y-61271009D01*
X144914285Y-61271009D02*
X144819047Y-61223390D01*
X141485714Y-68090057D02*
X141533333Y-68042438D01*
X141533333Y-68042438D02*
X141628571Y-67994819D01*
X141628571Y-67994819D02*
X141866666Y-67994819D01*
X141866666Y-67994819D02*
X141961904Y-68042438D01*
X141961904Y-68042438D02*
X142009523Y-68090057D01*
X142009523Y-68090057D02*
X142057142Y-68185295D01*
X142057142Y-68185295D02*
X142057142Y-68280533D01*
X142057142Y-68280533D02*
X142009523Y-68423390D01*
X142009523Y-68423390D02*
X141438095Y-68994819D01*
X141438095Y-68994819D02*
X142057142Y-68994819D01*
X142485714Y-68994819D02*
X142485714Y-67994819D01*
X142485714Y-67994819D02*
X143057142Y-68994819D01*
X143057142Y-68994819D02*
X143057142Y-67994819D01*
X143438095Y-67994819D02*
X144057142Y-67994819D01*
X144057142Y-67994819D02*
X143723809Y-68375771D01*
X143723809Y-68375771D02*
X143866666Y-68375771D01*
X143866666Y-68375771D02*
X143961904Y-68423390D01*
X143961904Y-68423390D02*
X144009523Y-68471009D01*
X144009523Y-68471009D02*
X144057142Y-68566247D01*
X144057142Y-68566247D02*
X144057142Y-68804342D01*
X144057142Y-68804342D02*
X144009523Y-68899580D01*
X144009523Y-68899580D02*
X143961904Y-68947200D01*
X143961904Y-68947200D02*
X143866666Y-68994819D01*
X143866666Y-68994819D02*
X143580952Y-68994819D01*
X143580952Y-68994819D02*
X143485714Y-68947200D01*
X143485714Y-68947200D02*
X143438095Y-68899580D01*
X144533333Y-68994819D02*
X144723809Y-68994819D01*
X144723809Y-68994819D02*
X144819047Y-68947200D01*
X144819047Y-68947200D02*
X144866666Y-68899580D01*
X144866666Y-68899580D02*
X144961904Y-68756723D01*
X144961904Y-68756723D02*
X145009523Y-68566247D01*
X145009523Y-68566247D02*
X145009523Y-68185295D01*
X145009523Y-68185295D02*
X144961904Y-68090057D01*
X144961904Y-68090057D02*
X144914285Y-68042438D01*
X144914285Y-68042438D02*
X144819047Y-67994819D01*
X144819047Y-67994819D02*
X144628571Y-67994819D01*
X144628571Y-67994819D02*
X144533333Y-68042438D01*
X144533333Y-68042438D02*
X144485714Y-68090057D01*
X144485714Y-68090057D02*
X144438095Y-68185295D01*
X144438095Y-68185295D02*
X144438095Y-68423390D01*
X144438095Y-68423390D02*
X144485714Y-68518628D01*
X144485714Y-68518628D02*
X144533333Y-68566247D01*
X144533333Y-68566247D02*
X144628571Y-68613866D01*
X144628571Y-68613866D02*
X144819047Y-68613866D01*
X144819047Y-68613866D02*
X144914285Y-68566247D01*
X144914285Y-68566247D02*
X144961904Y-68518628D01*
X144961904Y-68518628D02*
X145009523Y-68423390D01*
X145628571Y-67994819D02*
X145723809Y-67994819D01*
X145723809Y-67994819D02*
X145819047Y-68042438D01*
X145819047Y-68042438D02*
X145866666Y-68090057D01*
X145866666Y-68090057D02*
X145914285Y-68185295D01*
X145914285Y-68185295D02*
X145961904Y-68375771D01*
X145961904Y-68375771D02*
X145961904Y-68613866D01*
X145961904Y-68613866D02*
X145914285Y-68804342D01*
X145914285Y-68804342D02*
X145866666Y-68899580D01*
X145866666Y-68899580D02*
X145819047Y-68947200D01*
X145819047Y-68947200D02*
X145723809Y-68994819D01*
X145723809Y-68994819D02*
X145628571Y-68994819D01*
X145628571Y-68994819D02*
X145533333Y-68947200D01*
X145533333Y-68947200D02*
X145485714Y-68899580D01*
X145485714Y-68899580D02*
X145438095Y-68804342D01*
X145438095Y-68804342D02*
X145390476Y-68613866D01*
X145390476Y-68613866D02*
X145390476Y-68375771D01*
X145390476Y-68375771D02*
X145438095Y-68185295D01*
X145438095Y-68185295D02*
X145485714Y-68090057D01*
X145485714Y-68090057D02*
X145533333Y-68042438D01*
X145533333Y-68042438D02*
X145628571Y-67994819D01*
X146819047Y-68328152D02*
X146819047Y-68994819D01*
X146580952Y-67947200D02*
X146342857Y-68661485D01*
X146342857Y-68661485D02*
X146961904Y-68661485D01*
X93704761Y-73750057D02*
X93609523Y-73702438D01*
X93609523Y-73702438D02*
X93514285Y-73607200D01*
X93514285Y-73607200D02*
X93371428Y-73464342D01*
X93371428Y-73464342D02*
X93276190Y-73416723D01*
X93276190Y-73416723D02*
X93180952Y-73416723D01*
X93228571Y-73654819D02*
X93133333Y-73607200D01*
X93133333Y-73607200D02*
X93038095Y-73511961D01*
X93038095Y-73511961D02*
X92990476Y-73321485D01*
X92990476Y-73321485D02*
X92990476Y-72988152D01*
X92990476Y-72988152D02*
X93038095Y-72797676D01*
X93038095Y-72797676D02*
X93133333Y-72702438D01*
X93133333Y-72702438D02*
X93228571Y-72654819D01*
X93228571Y-72654819D02*
X93419047Y-72654819D01*
X93419047Y-72654819D02*
X93514285Y-72702438D01*
X93514285Y-72702438D02*
X93609523Y-72797676D01*
X93609523Y-72797676D02*
X93657142Y-72988152D01*
X93657142Y-72988152D02*
X93657142Y-73321485D01*
X93657142Y-73321485D02*
X93609523Y-73511961D01*
X93609523Y-73511961D02*
X93514285Y-73607200D01*
X93514285Y-73607200D02*
X93419047Y-73654819D01*
X93419047Y-73654819D02*
X93228571Y-73654819D01*
X93990476Y-72654819D02*
X94609523Y-72654819D01*
X94609523Y-72654819D02*
X94276190Y-73035771D01*
X94276190Y-73035771D02*
X94419047Y-73035771D01*
X94419047Y-73035771D02*
X94514285Y-73083390D01*
X94514285Y-73083390D02*
X94561904Y-73131009D01*
X94561904Y-73131009D02*
X94609523Y-73226247D01*
X94609523Y-73226247D02*
X94609523Y-73464342D01*
X94609523Y-73464342D02*
X94561904Y-73559580D01*
X94561904Y-73559580D02*
X94514285Y-73607200D01*
X94514285Y-73607200D02*
X94419047Y-73654819D01*
X94419047Y-73654819D02*
X94133333Y-73654819D01*
X94133333Y-73654819D02*
X94038095Y-73607200D01*
X94038095Y-73607200D02*
X93990476Y-73559580D01*
X91085714Y-80150057D02*
X91133333Y-80102438D01*
X91133333Y-80102438D02*
X91228571Y-80054819D01*
X91228571Y-80054819D02*
X91466666Y-80054819D01*
X91466666Y-80054819D02*
X91561904Y-80102438D01*
X91561904Y-80102438D02*
X91609523Y-80150057D01*
X91609523Y-80150057D02*
X91657142Y-80245295D01*
X91657142Y-80245295D02*
X91657142Y-80340533D01*
X91657142Y-80340533D02*
X91609523Y-80483390D01*
X91609523Y-80483390D02*
X91038095Y-81054819D01*
X91038095Y-81054819D02*
X91657142Y-81054819D01*
X92085714Y-81054819D02*
X92085714Y-80054819D01*
X92085714Y-80054819D02*
X92657142Y-81054819D01*
X92657142Y-81054819D02*
X92657142Y-80054819D01*
X93038095Y-80054819D02*
X93657142Y-80054819D01*
X93657142Y-80054819D02*
X93323809Y-80435771D01*
X93323809Y-80435771D02*
X93466666Y-80435771D01*
X93466666Y-80435771D02*
X93561904Y-80483390D01*
X93561904Y-80483390D02*
X93609523Y-80531009D01*
X93609523Y-80531009D02*
X93657142Y-80626247D01*
X93657142Y-80626247D02*
X93657142Y-80864342D01*
X93657142Y-80864342D02*
X93609523Y-80959580D01*
X93609523Y-80959580D02*
X93561904Y-81007200D01*
X93561904Y-81007200D02*
X93466666Y-81054819D01*
X93466666Y-81054819D02*
X93180952Y-81054819D01*
X93180952Y-81054819D02*
X93085714Y-81007200D01*
X93085714Y-81007200D02*
X93038095Y-80959580D01*
X94133333Y-81054819D02*
X94323809Y-81054819D01*
X94323809Y-81054819D02*
X94419047Y-81007200D01*
X94419047Y-81007200D02*
X94466666Y-80959580D01*
X94466666Y-80959580D02*
X94561904Y-80816723D01*
X94561904Y-80816723D02*
X94609523Y-80626247D01*
X94609523Y-80626247D02*
X94609523Y-80245295D01*
X94609523Y-80245295D02*
X94561904Y-80150057D01*
X94561904Y-80150057D02*
X94514285Y-80102438D01*
X94514285Y-80102438D02*
X94419047Y-80054819D01*
X94419047Y-80054819D02*
X94228571Y-80054819D01*
X94228571Y-80054819D02*
X94133333Y-80102438D01*
X94133333Y-80102438D02*
X94085714Y-80150057D01*
X94085714Y-80150057D02*
X94038095Y-80245295D01*
X94038095Y-80245295D02*
X94038095Y-80483390D01*
X94038095Y-80483390D02*
X94085714Y-80578628D01*
X94085714Y-80578628D02*
X94133333Y-80626247D01*
X94133333Y-80626247D02*
X94228571Y-80673866D01*
X94228571Y-80673866D02*
X94419047Y-80673866D01*
X94419047Y-80673866D02*
X94514285Y-80626247D01*
X94514285Y-80626247D02*
X94561904Y-80578628D01*
X94561904Y-80578628D02*
X94609523Y-80483390D01*
X95228571Y-80054819D02*
X95323809Y-80054819D01*
X95323809Y-80054819D02*
X95419047Y-80102438D01*
X95419047Y-80102438D02*
X95466666Y-80150057D01*
X95466666Y-80150057D02*
X95514285Y-80245295D01*
X95514285Y-80245295D02*
X95561904Y-80435771D01*
X95561904Y-80435771D02*
X95561904Y-80673866D01*
X95561904Y-80673866D02*
X95514285Y-80864342D01*
X95514285Y-80864342D02*
X95466666Y-80959580D01*
X95466666Y-80959580D02*
X95419047Y-81007200D01*
X95419047Y-81007200D02*
X95323809Y-81054819D01*
X95323809Y-81054819D02*
X95228571Y-81054819D01*
X95228571Y-81054819D02*
X95133333Y-81007200D01*
X95133333Y-81007200D02*
X95085714Y-80959580D01*
X95085714Y-80959580D02*
X95038095Y-80864342D01*
X95038095Y-80864342D02*
X94990476Y-80673866D01*
X94990476Y-80673866D02*
X94990476Y-80435771D01*
X94990476Y-80435771D02*
X95038095Y-80245295D01*
X95038095Y-80245295D02*
X95085714Y-80150057D01*
X95085714Y-80150057D02*
X95133333Y-80102438D01*
X95133333Y-80102438D02*
X95228571Y-80054819D01*
X96419047Y-80388152D02*
X96419047Y-81054819D01*
X96180952Y-80007200D02*
X95942857Y-80721485D01*
X95942857Y-80721485D02*
X96561904Y-80721485D01*
X93704761Y-85350057D02*
X93609523Y-85302438D01*
X93609523Y-85302438D02*
X93514285Y-85207200D01*
X93514285Y-85207200D02*
X93371428Y-85064342D01*
X93371428Y-85064342D02*
X93276190Y-85016723D01*
X93276190Y-85016723D02*
X93180952Y-85016723D01*
X93228571Y-85254819D02*
X93133333Y-85207200D01*
X93133333Y-85207200D02*
X93038095Y-85111961D01*
X93038095Y-85111961D02*
X92990476Y-84921485D01*
X92990476Y-84921485D02*
X92990476Y-84588152D01*
X92990476Y-84588152D02*
X93038095Y-84397676D01*
X93038095Y-84397676D02*
X93133333Y-84302438D01*
X93133333Y-84302438D02*
X93228571Y-84254819D01*
X93228571Y-84254819D02*
X93419047Y-84254819D01*
X93419047Y-84254819D02*
X93514285Y-84302438D01*
X93514285Y-84302438D02*
X93609523Y-84397676D01*
X93609523Y-84397676D02*
X93657142Y-84588152D01*
X93657142Y-84588152D02*
X93657142Y-84921485D01*
X93657142Y-84921485D02*
X93609523Y-85111961D01*
X93609523Y-85111961D02*
X93514285Y-85207200D01*
X93514285Y-85207200D02*
X93419047Y-85254819D01*
X93419047Y-85254819D02*
X93228571Y-85254819D01*
X94514285Y-84254819D02*
X94323809Y-84254819D01*
X94323809Y-84254819D02*
X94228571Y-84302438D01*
X94228571Y-84302438D02*
X94180952Y-84350057D01*
X94180952Y-84350057D02*
X94085714Y-84492914D01*
X94085714Y-84492914D02*
X94038095Y-84683390D01*
X94038095Y-84683390D02*
X94038095Y-85064342D01*
X94038095Y-85064342D02*
X94085714Y-85159580D01*
X94085714Y-85159580D02*
X94133333Y-85207200D01*
X94133333Y-85207200D02*
X94228571Y-85254819D01*
X94228571Y-85254819D02*
X94419047Y-85254819D01*
X94419047Y-85254819D02*
X94514285Y-85207200D01*
X94514285Y-85207200D02*
X94561904Y-85159580D01*
X94561904Y-85159580D02*
X94609523Y-85064342D01*
X94609523Y-85064342D02*
X94609523Y-84826247D01*
X94609523Y-84826247D02*
X94561904Y-84731009D01*
X94561904Y-84731009D02*
X94514285Y-84683390D01*
X94514285Y-84683390D02*
X94419047Y-84635771D01*
X94419047Y-84635771D02*
X94228571Y-84635771D01*
X94228571Y-84635771D02*
X94133333Y-84683390D01*
X94133333Y-84683390D02*
X94085714Y-84731009D01*
X94085714Y-84731009D02*
X94038095Y-84826247D01*
X90885714Y-91750057D02*
X90933333Y-91702438D01*
X90933333Y-91702438D02*
X91028571Y-91654819D01*
X91028571Y-91654819D02*
X91266666Y-91654819D01*
X91266666Y-91654819D02*
X91361904Y-91702438D01*
X91361904Y-91702438D02*
X91409523Y-91750057D01*
X91409523Y-91750057D02*
X91457142Y-91845295D01*
X91457142Y-91845295D02*
X91457142Y-91940533D01*
X91457142Y-91940533D02*
X91409523Y-92083390D01*
X91409523Y-92083390D02*
X90838095Y-92654819D01*
X90838095Y-92654819D02*
X91457142Y-92654819D01*
X91885714Y-92654819D02*
X91885714Y-91654819D01*
X91885714Y-91654819D02*
X92457142Y-92654819D01*
X92457142Y-92654819D02*
X92457142Y-91654819D01*
X92838095Y-91654819D02*
X93457142Y-91654819D01*
X93457142Y-91654819D02*
X93123809Y-92035771D01*
X93123809Y-92035771D02*
X93266666Y-92035771D01*
X93266666Y-92035771D02*
X93361904Y-92083390D01*
X93361904Y-92083390D02*
X93409523Y-92131009D01*
X93409523Y-92131009D02*
X93457142Y-92226247D01*
X93457142Y-92226247D02*
X93457142Y-92464342D01*
X93457142Y-92464342D02*
X93409523Y-92559580D01*
X93409523Y-92559580D02*
X93361904Y-92607200D01*
X93361904Y-92607200D02*
X93266666Y-92654819D01*
X93266666Y-92654819D02*
X92980952Y-92654819D01*
X92980952Y-92654819D02*
X92885714Y-92607200D01*
X92885714Y-92607200D02*
X92838095Y-92559580D01*
X93933333Y-92654819D02*
X94123809Y-92654819D01*
X94123809Y-92654819D02*
X94219047Y-92607200D01*
X94219047Y-92607200D02*
X94266666Y-92559580D01*
X94266666Y-92559580D02*
X94361904Y-92416723D01*
X94361904Y-92416723D02*
X94409523Y-92226247D01*
X94409523Y-92226247D02*
X94409523Y-91845295D01*
X94409523Y-91845295D02*
X94361904Y-91750057D01*
X94361904Y-91750057D02*
X94314285Y-91702438D01*
X94314285Y-91702438D02*
X94219047Y-91654819D01*
X94219047Y-91654819D02*
X94028571Y-91654819D01*
X94028571Y-91654819D02*
X93933333Y-91702438D01*
X93933333Y-91702438D02*
X93885714Y-91750057D01*
X93885714Y-91750057D02*
X93838095Y-91845295D01*
X93838095Y-91845295D02*
X93838095Y-92083390D01*
X93838095Y-92083390D02*
X93885714Y-92178628D01*
X93885714Y-92178628D02*
X93933333Y-92226247D01*
X93933333Y-92226247D02*
X94028571Y-92273866D01*
X94028571Y-92273866D02*
X94219047Y-92273866D01*
X94219047Y-92273866D02*
X94314285Y-92226247D01*
X94314285Y-92226247D02*
X94361904Y-92178628D01*
X94361904Y-92178628D02*
X94409523Y-92083390D01*
X95028571Y-91654819D02*
X95123809Y-91654819D01*
X95123809Y-91654819D02*
X95219047Y-91702438D01*
X95219047Y-91702438D02*
X95266666Y-91750057D01*
X95266666Y-91750057D02*
X95314285Y-91845295D01*
X95314285Y-91845295D02*
X95361904Y-92035771D01*
X95361904Y-92035771D02*
X95361904Y-92273866D01*
X95361904Y-92273866D02*
X95314285Y-92464342D01*
X95314285Y-92464342D02*
X95266666Y-92559580D01*
X95266666Y-92559580D02*
X95219047Y-92607200D01*
X95219047Y-92607200D02*
X95123809Y-92654819D01*
X95123809Y-92654819D02*
X95028571Y-92654819D01*
X95028571Y-92654819D02*
X94933333Y-92607200D01*
X94933333Y-92607200D02*
X94885714Y-92559580D01*
X94885714Y-92559580D02*
X94838095Y-92464342D01*
X94838095Y-92464342D02*
X94790476Y-92273866D01*
X94790476Y-92273866D02*
X94790476Y-92035771D01*
X94790476Y-92035771D02*
X94838095Y-91845295D01*
X94838095Y-91845295D02*
X94885714Y-91750057D01*
X94885714Y-91750057D02*
X94933333Y-91702438D01*
X94933333Y-91702438D02*
X95028571Y-91654819D01*
X96219047Y-91988152D02*
X96219047Y-92654819D01*
X95980952Y-91607200D02*
X95742857Y-92321485D01*
X95742857Y-92321485D02*
X96361904Y-92321485D01*
X128228571Y-87810057D02*
X128133333Y-87762438D01*
X128133333Y-87762438D02*
X128038095Y-87667200D01*
X128038095Y-87667200D02*
X127895238Y-87524342D01*
X127895238Y-87524342D02*
X127800000Y-87476723D01*
X127800000Y-87476723D02*
X127704762Y-87476723D01*
X127752381Y-87714819D02*
X127657143Y-87667200D01*
X127657143Y-87667200D02*
X127561905Y-87571961D01*
X127561905Y-87571961D02*
X127514286Y-87381485D01*
X127514286Y-87381485D02*
X127514286Y-87048152D01*
X127514286Y-87048152D02*
X127561905Y-86857676D01*
X127561905Y-86857676D02*
X127657143Y-86762438D01*
X127657143Y-86762438D02*
X127752381Y-86714819D01*
X127752381Y-86714819D02*
X127942857Y-86714819D01*
X127942857Y-86714819D02*
X128038095Y-86762438D01*
X128038095Y-86762438D02*
X128133333Y-86857676D01*
X128133333Y-86857676D02*
X128180952Y-87048152D01*
X128180952Y-87048152D02*
X128180952Y-87381485D01*
X128180952Y-87381485D02*
X128133333Y-87571961D01*
X128133333Y-87571961D02*
X128038095Y-87667200D01*
X128038095Y-87667200D02*
X127942857Y-87714819D01*
X127942857Y-87714819D02*
X127752381Y-87714819D01*
X129133333Y-87714819D02*
X128561905Y-87714819D01*
X128847619Y-87714819D02*
X128847619Y-86714819D01*
X128847619Y-86714819D02*
X128752381Y-86857676D01*
X128752381Y-86857676D02*
X128657143Y-86952914D01*
X128657143Y-86952914D02*
X128561905Y-87000533D01*
X129752381Y-86714819D02*
X129847619Y-86714819D01*
X129847619Y-86714819D02*
X129942857Y-86762438D01*
X129942857Y-86762438D02*
X129990476Y-86810057D01*
X129990476Y-86810057D02*
X130038095Y-86905295D01*
X130038095Y-86905295D02*
X130085714Y-87095771D01*
X130085714Y-87095771D02*
X130085714Y-87333866D01*
X130085714Y-87333866D02*
X130038095Y-87524342D01*
X130038095Y-87524342D02*
X129990476Y-87619580D01*
X129990476Y-87619580D02*
X129942857Y-87667200D01*
X129942857Y-87667200D02*
X129847619Y-87714819D01*
X129847619Y-87714819D02*
X129752381Y-87714819D01*
X129752381Y-87714819D02*
X129657143Y-87667200D01*
X129657143Y-87667200D02*
X129609524Y-87619580D01*
X129609524Y-87619580D02*
X129561905Y-87524342D01*
X129561905Y-87524342D02*
X129514286Y-87333866D01*
X129514286Y-87333866D02*
X129514286Y-87095771D01*
X129514286Y-87095771D02*
X129561905Y-86905295D01*
X129561905Y-86905295D02*
X129609524Y-86810057D01*
X129609524Y-86810057D02*
X129657143Y-86762438D01*
X129657143Y-86762438D02*
X129752381Y-86714819D01*
X125885714Y-94010057D02*
X125933333Y-93962438D01*
X125933333Y-93962438D02*
X126028571Y-93914819D01*
X126028571Y-93914819D02*
X126266666Y-93914819D01*
X126266666Y-93914819D02*
X126361904Y-93962438D01*
X126361904Y-93962438D02*
X126409523Y-94010057D01*
X126409523Y-94010057D02*
X126457142Y-94105295D01*
X126457142Y-94105295D02*
X126457142Y-94200533D01*
X126457142Y-94200533D02*
X126409523Y-94343390D01*
X126409523Y-94343390D02*
X125838095Y-94914819D01*
X125838095Y-94914819D02*
X126457142Y-94914819D01*
X126885714Y-94914819D02*
X126885714Y-93914819D01*
X126885714Y-93914819D02*
X127457142Y-94914819D01*
X127457142Y-94914819D02*
X127457142Y-93914819D01*
X127838095Y-93914819D02*
X128457142Y-93914819D01*
X128457142Y-93914819D02*
X128123809Y-94295771D01*
X128123809Y-94295771D02*
X128266666Y-94295771D01*
X128266666Y-94295771D02*
X128361904Y-94343390D01*
X128361904Y-94343390D02*
X128409523Y-94391009D01*
X128409523Y-94391009D02*
X128457142Y-94486247D01*
X128457142Y-94486247D02*
X128457142Y-94724342D01*
X128457142Y-94724342D02*
X128409523Y-94819580D01*
X128409523Y-94819580D02*
X128361904Y-94867200D01*
X128361904Y-94867200D02*
X128266666Y-94914819D01*
X128266666Y-94914819D02*
X127980952Y-94914819D01*
X127980952Y-94914819D02*
X127885714Y-94867200D01*
X127885714Y-94867200D02*
X127838095Y-94819580D01*
X128933333Y-94914819D02*
X129123809Y-94914819D01*
X129123809Y-94914819D02*
X129219047Y-94867200D01*
X129219047Y-94867200D02*
X129266666Y-94819580D01*
X129266666Y-94819580D02*
X129361904Y-94676723D01*
X129361904Y-94676723D02*
X129409523Y-94486247D01*
X129409523Y-94486247D02*
X129409523Y-94105295D01*
X129409523Y-94105295D02*
X129361904Y-94010057D01*
X129361904Y-94010057D02*
X129314285Y-93962438D01*
X129314285Y-93962438D02*
X129219047Y-93914819D01*
X129219047Y-93914819D02*
X129028571Y-93914819D01*
X129028571Y-93914819D02*
X128933333Y-93962438D01*
X128933333Y-93962438D02*
X128885714Y-94010057D01*
X128885714Y-94010057D02*
X128838095Y-94105295D01*
X128838095Y-94105295D02*
X128838095Y-94343390D01*
X128838095Y-94343390D02*
X128885714Y-94438628D01*
X128885714Y-94438628D02*
X128933333Y-94486247D01*
X128933333Y-94486247D02*
X129028571Y-94533866D01*
X129028571Y-94533866D02*
X129219047Y-94533866D01*
X129219047Y-94533866D02*
X129314285Y-94486247D01*
X129314285Y-94486247D02*
X129361904Y-94438628D01*
X129361904Y-94438628D02*
X129409523Y-94343390D01*
X130028571Y-93914819D02*
X130123809Y-93914819D01*
X130123809Y-93914819D02*
X130219047Y-93962438D01*
X130219047Y-93962438D02*
X130266666Y-94010057D01*
X130266666Y-94010057D02*
X130314285Y-94105295D01*
X130314285Y-94105295D02*
X130361904Y-94295771D01*
X130361904Y-94295771D02*
X130361904Y-94533866D01*
X130361904Y-94533866D02*
X130314285Y-94724342D01*
X130314285Y-94724342D02*
X130266666Y-94819580D01*
X130266666Y-94819580D02*
X130219047Y-94867200D01*
X130219047Y-94867200D02*
X130123809Y-94914819D01*
X130123809Y-94914819D02*
X130028571Y-94914819D01*
X130028571Y-94914819D02*
X129933333Y-94867200D01*
X129933333Y-94867200D02*
X129885714Y-94819580D01*
X129885714Y-94819580D02*
X129838095Y-94724342D01*
X129838095Y-94724342D02*
X129790476Y-94533866D01*
X129790476Y-94533866D02*
X129790476Y-94295771D01*
X129790476Y-94295771D02*
X129838095Y-94105295D01*
X129838095Y-94105295D02*
X129885714Y-94010057D01*
X129885714Y-94010057D02*
X129933333Y-93962438D01*
X129933333Y-93962438D02*
X130028571Y-93914819D01*
X131219047Y-94248152D02*
X131219047Y-94914819D01*
X130980952Y-93867200D02*
X130742857Y-94581485D01*
X130742857Y-94581485D02*
X131361904Y-94581485D01*
X120204761Y-87610057D02*
X120109523Y-87562438D01*
X120109523Y-87562438D02*
X120014285Y-87467200D01*
X120014285Y-87467200D02*
X119871428Y-87324342D01*
X119871428Y-87324342D02*
X119776190Y-87276723D01*
X119776190Y-87276723D02*
X119680952Y-87276723D01*
X119728571Y-87514819D02*
X119633333Y-87467200D01*
X119633333Y-87467200D02*
X119538095Y-87371961D01*
X119538095Y-87371961D02*
X119490476Y-87181485D01*
X119490476Y-87181485D02*
X119490476Y-86848152D01*
X119490476Y-86848152D02*
X119538095Y-86657676D01*
X119538095Y-86657676D02*
X119633333Y-86562438D01*
X119633333Y-86562438D02*
X119728571Y-86514819D01*
X119728571Y-86514819D02*
X119919047Y-86514819D01*
X119919047Y-86514819D02*
X120014285Y-86562438D01*
X120014285Y-86562438D02*
X120109523Y-86657676D01*
X120109523Y-86657676D02*
X120157142Y-86848152D01*
X120157142Y-86848152D02*
X120157142Y-87181485D01*
X120157142Y-87181485D02*
X120109523Y-87371961D01*
X120109523Y-87371961D02*
X120014285Y-87467200D01*
X120014285Y-87467200D02*
X119919047Y-87514819D01*
X119919047Y-87514819D02*
X119728571Y-87514819D01*
X120633333Y-87514819D02*
X120823809Y-87514819D01*
X120823809Y-87514819D02*
X120919047Y-87467200D01*
X120919047Y-87467200D02*
X120966666Y-87419580D01*
X120966666Y-87419580D02*
X121061904Y-87276723D01*
X121061904Y-87276723D02*
X121109523Y-87086247D01*
X121109523Y-87086247D02*
X121109523Y-86705295D01*
X121109523Y-86705295D02*
X121061904Y-86610057D01*
X121061904Y-86610057D02*
X121014285Y-86562438D01*
X121014285Y-86562438D02*
X120919047Y-86514819D01*
X120919047Y-86514819D02*
X120728571Y-86514819D01*
X120728571Y-86514819D02*
X120633333Y-86562438D01*
X120633333Y-86562438D02*
X120585714Y-86610057D01*
X120585714Y-86610057D02*
X120538095Y-86705295D01*
X120538095Y-86705295D02*
X120538095Y-86943390D01*
X120538095Y-86943390D02*
X120585714Y-87038628D01*
X120585714Y-87038628D02*
X120633333Y-87086247D01*
X120633333Y-87086247D02*
X120728571Y-87133866D01*
X120728571Y-87133866D02*
X120919047Y-87133866D01*
X120919047Y-87133866D02*
X121014285Y-87086247D01*
X121014285Y-87086247D02*
X121061904Y-87038628D01*
X121061904Y-87038628D02*
X121109523Y-86943390D01*
X117385714Y-93950057D02*
X117433333Y-93902438D01*
X117433333Y-93902438D02*
X117528571Y-93854819D01*
X117528571Y-93854819D02*
X117766666Y-93854819D01*
X117766666Y-93854819D02*
X117861904Y-93902438D01*
X117861904Y-93902438D02*
X117909523Y-93950057D01*
X117909523Y-93950057D02*
X117957142Y-94045295D01*
X117957142Y-94045295D02*
X117957142Y-94140533D01*
X117957142Y-94140533D02*
X117909523Y-94283390D01*
X117909523Y-94283390D02*
X117338095Y-94854819D01*
X117338095Y-94854819D02*
X117957142Y-94854819D01*
X118385714Y-94854819D02*
X118385714Y-93854819D01*
X118385714Y-93854819D02*
X118957142Y-94854819D01*
X118957142Y-94854819D02*
X118957142Y-93854819D01*
X119338095Y-93854819D02*
X119957142Y-93854819D01*
X119957142Y-93854819D02*
X119623809Y-94235771D01*
X119623809Y-94235771D02*
X119766666Y-94235771D01*
X119766666Y-94235771D02*
X119861904Y-94283390D01*
X119861904Y-94283390D02*
X119909523Y-94331009D01*
X119909523Y-94331009D02*
X119957142Y-94426247D01*
X119957142Y-94426247D02*
X119957142Y-94664342D01*
X119957142Y-94664342D02*
X119909523Y-94759580D01*
X119909523Y-94759580D02*
X119861904Y-94807200D01*
X119861904Y-94807200D02*
X119766666Y-94854819D01*
X119766666Y-94854819D02*
X119480952Y-94854819D01*
X119480952Y-94854819D02*
X119385714Y-94807200D01*
X119385714Y-94807200D02*
X119338095Y-94759580D01*
X120433333Y-94854819D02*
X120623809Y-94854819D01*
X120623809Y-94854819D02*
X120719047Y-94807200D01*
X120719047Y-94807200D02*
X120766666Y-94759580D01*
X120766666Y-94759580D02*
X120861904Y-94616723D01*
X120861904Y-94616723D02*
X120909523Y-94426247D01*
X120909523Y-94426247D02*
X120909523Y-94045295D01*
X120909523Y-94045295D02*
X120861904Y-93950057D01*
X120861904Y-93950057D02*
X120814285Y-93902438D01*
X120814285Y-93902438D02*
X120719047Y-93854819D01*
X120719047Y-93854819D02*
X120528571Y-93854819D01*
X120528571Y-93854819D02*
X120433333Y-93902438D01*
X120433333Y-93902438D02*
X120385714Y-93950057D01*
X120385714Y-93950057D02*
X120338095Y-94045295D01*
X120338095Y-94045295D02*
X120338095Y-94283390D01*
X120338095Y-94283390D02*
X120385714Y-94378628D01*
X120385714Y-94378628D02*
X120433333Y-94426247D01*
X120433333Y-94426247D02*
X120528571Y-94473866D01*
X120528571Y-94473866D02*
X120719047Y-94473866D01*
X120719047Y-94473866D02*
X120814285Y-94426247D01*
X120814285Y-94426247D02*
X120861904Y-94378628D01*
X120861904Y-94378628D02*
X120909523Y-94283390D01*
X121528571Y-93854819D02*
X121623809Y-93854819D01*
X121623809Y-93854819D02*
X121719047Y-93902438D01*
X121719047Y-93902438D02*
X121766666Y-93950057D01*
X121766666Y-93950057D02*
X121814285Y-94045295D01*
X121814285Y-94045295D02*
X121861904Y-94235771D01*
X121861904Y-94235771D02*
X121861904Y-94473866D01*
X121861904Y-94473866D02*
X121814285Y-94664342D01*
X121814285Y-94664342D02*
X121766666Y-94759580D01*
X121766666Y-94759580D02*
X121719047Y-94807200D01*
X121719047Y-94807200D02*
X121623809Y-94854819D01*
X121623809Y-94854819D02*
X121528571Y-94854819D01*
X121528571Y-94854819D02*
X121433333Y-94807200D01*
X121433333Y-94807200D02*
X121385714Y-94759580D01*
X121385714Y-94759580D02*
X121338095Y-94664342D01*
X121338095Y-94664342D02*
X121290476Y-94473866D01*
X121290476Y-94473866D02*
X121290476Y-94235771D01*
X121290476Y-94235771D02*
X121338095Y-94045295D01*
X121338095Y-94045295D02*
X121385714Y-93950057D01*
X121385714Y-93950057D02*
X121433333Y-93902438D01*
X121433333Y-93902438D02*
X121528571Y-93854819D01*
X122719047Y-94188152D02*
X122719047Y-94854819D01*
X122480952Y-93807200D02*
X122242857Y-94521485D01*
X122242857Y-94521485D02*
X122861904Y-94521485D01*
X125904761Y-61820057D02*
X125809523Y-61772438D01*
X125809523Y-61772438D02*
X125714285Y-61677200D01*
X125714285Y-61677200D02*
X125571428Y-61534342D01*
X125571428Y-61534342D02*
X125476190Y-61486723D01*
X125476190Y-61486723D02*
X125380952Y-61486723D01*
X125428571Y-61724819D02*
X125333333Y-61677200D01*
X125333333Y-61677200D02*
X125238095Y-61581961D01*
X125238095Y-61581961D02*
X125190476Y-61391485D01*
X125190476Y-61391485D02*
X125190476Y-61058152D01*
X125190476Y-61058152D02*
X125238095Y-60867676D01*
X125238095Y-60867676D02*
X125333333Y-60772438D01*
X125333333Y-60772438D02*
X125428571Y-60724819D01*
X125428571Y-60724819D02*
X125619047Y-60724819D01*
X125619047Y-60724819D02*
X125714285Y-60772438D01*
X125714285Y-60772438D02*
X125809523Y-60867676D01*
X125809523Y-60867676D02*
X125857142Y-61058152D01*
X125857142Y-61058152D02*
X125857142Y-61391485D01*
X125857142Y-61391485D02*
X125809523Y-61581961D01*
X125809523Y-61581961D02*
X125714285Y-61677200D01*
X125714285Y-61677200D02*
X125619047Y-61724819D01*
X125619047Y-61724819D02*
X125428571Y-61724819D01*
X126190476Y-60724819D02*
X126857142Y-60724819D01*
X126857142Y-60724819D02*
X126428571Y-61724819D01*
X123285714Y-68020057D02*
X123333333Y-67972438D01*
X123333333Y-67972438D02*
X123428571Y-67924819D01*
X123428571Y-67924819D02*
X123666666Y-67924819D01*
X123666666Y-67924819D02*
X123761904Y-67972438D01*
X123761904Y-67972438D02*
X123809523Y-68020057D01*
X123809523Y-68020057D02*
X123857142Y-68115295D01*
X123857142Y-68115295D02*
X123857142Y-68210533D01*
X123857142Y-68210533D02*
X123809523Y-68353390D01*
X123809523Y-68353390D02*
X123238095Y-68924819D01*
X123238095Y-68924819D02*
X123857142Y-68924819D01*
X124285714Y-68924819D02*
X124285714Y-67924819D01*
X124285714Y-67924819D02*
X124857142Y-68924819D01*
X124857142Y-68924819D02*
X124857142Y-67924819D01*
X125238095Y-67924819D02*
X125857142Y-67924819D01*
X125857142Y-67924819D02*
X125523809Y-68305771D01*
X125523809Y-68305771D02*
X125666666Y-68305771D01*
X125666666Y-68305771D02*
X125761904Y-68353390D01*
X125761904Y-68353390D02*
X125809523Y-68401009D01*
X125809523Y-68401009D02*
X125857142Y-68496247D01*
X125857142Y-68496247D02*
X125857142Y-68734342D01*
X125857142Y-68734342D02*
X125809523Y-68829580D01*
X125809523Y-68829580D02*
X125761904Y-68877200D01*
X125761904Y-68877200D02*
X125666666Y-68924819D01*
X125666666Y-68924819D02*
X125380952Y-68924819D01*
X125380952Y-68924819D02*
X125285714Y-68877200D01*
X125285714Y-68877200D02*
X125238095Y-68829580D01*
X126333333Y-68924819D02*
X126523809Y-68924819D01*
X126523809Y-68924819D02*
X126619047Y-68877200D01*
X126619047Y-68877200D02*
X126666666Y-68829580D01*
X126666666Y-68829580D02*
X126761904Y-68686723D01*
X126761904Y-68686723D02*
X126809523Y-68496247D01*
X126809523Y-68496247D02*
X126809523Y-68115295D01*
X126809523Y-68115295D02*
X126761904Y-68020057D01*
X126761904Y-68020057D02*
X126714285Y-67972438D01*
X126714285Y-67972438D02*
X126619047Y-67924819D01*
X126619047Y-67924819D02*
X126428571Y-67924819D01*
X126428571Y-67924819D02*
X126333333Y-67972438D01*
X126333333Y-67972438D02*
X126285714Y-68020057D01*
X126285714Y-68020057D02*
X126238095Y-68115295D01*
X126238095Y-68115295D02*
X126238095Y-68353390D01*
X126238095Y-68353390D02*
X126285714Y-68448628D01*
X126285714Y-68448628D02*
X126333333Y-68496247D01*
X126333333Y-68496247D02*
X126428571Y-68543866D01*
X126428571Y-68543866D02*
X126619047Y-68543866D01*
X126619047Y-68543866D02*
X126714285Y-68496247D01*
X126714285Y-68496247D02*
X126761904Y-68448628D01*
X126761904Y-68448628D02*
X126809523Y-68353390D01*
X127428571Y-67924819D02*
X127523809Y-67924819D01*
X127523809Y-67924819D02*
X127619047Y-67972438D01*
X127619047Y-67972438D02*
X127666666Y-68020057D01*
X127666666Y-68020057D02*
X127714285Y-68115295D01*
X127714285Y-68115295D02*
X127761904Y-68305771D01*
X127761904Y-68305771D02*
X127761904Y-68543866D01*
X127761904Y-68543866D02*
X127714285Y-68734342D01*
X127714285Y-68734342D02*
X127666666Y-68829580D01*
X127666666Y-68829580D02*
X127619047Y-68877200D01*
X127619047Y-68877200D02*
X127523809Y-68924819D01*
X127523809Y-68924819D02*
X127428571Y-68924819D01*
X127428571Y-68924819D02*
X127333333Y-68877200D01*
X127333333Y-68877200D02*
X127285714Y-68829580D01*
X127285714Y-68829580D02*
X127238095Y-68734342D01*
X127238095Y-68734342D02*
X127190476Y-68543866D01*
X127190476Y-68543866D02*
X127190476Y-68305771D01*
X127190476Y-68305771D02*
X127238095Y-68115295D01*
X127238095Y-68115295D02*
X127285714Y-68020057D01*
X127285714Y-68020057D02*
X127333333Y-67972438D01*
X127333333Y-67972438D02*
X127428571Y-67924819D01*
X128619047Y-67924819D02*
X128428571Y-67924819D01*
X128428571Y-67924819D02*
X128333333Y-67972438D01*
X128333333Y-67972438D02*
X128285714Y-68020057D01*
X128285714Y-68020057D02*
X128190476Y-68162914D01*
X128190476Y-68162914D02*
X128142857Y-68353390D01*
X128142857Y-68353390D02*
X128142857Y-68734342D01*
X128142857Y-68734342D02*
X128190476Y-68829580D01*
X128190476Y-68829580D02*
X128238095Y-68877200D01*
X128238095Y-68877200D02*
X128333333Y-68924819D01*
X128333333Y-68924819D02*
X128523809Y-68924819D01*
X128523809Y-68924819D02*
X128619047Y-68877200D01*
X128619047Y-68877200D02*
X128666666Y-68829580D01*
X128666666Y-68829580D02*
X128714285Y-68734342D01*
X128714285Y-68734342D02*
X128714285Y-68496247D01*
X128714285Y-68496247D02*
X128666666Y-68401009D01*
X128666666Y-68401009D02*
X128619047Y-68353390D01*
X128619047Y-68353390D02*
X128523809Y-68305771D01*
X128523809Y-68305771D02*
X128333333Y-68305771D01*
X128333333Y-68305771D02*
X128238095Y-68353390D01*
X128238095Y-68353390D02*
X128190476Y-68401009D01*
X128190476Y-68401009D02*
X128142857Y-68496247D01*
X143628571Y-87080057D02*
X143533333Y-87032438D01*
X143533333Y-87032438D02*
X143438095Y-86937200D01*
X143438095Y-86937200D02*
X143295238Y-86794342D01*
X143295238Y-86794342D02*
X143200000Y-86746723D01*
X143200000Y-86746723D02*
X143104762Y-86746723D01*
X143152381Y-86984819D02*
X143057143Y-86937200D01*
X143057143Y-86937200D02*
X142961905Y-86841961D01*
X142961905Y-86841961D02*
X142914286Y-86651485D01*
X142914286Y-86651485D02*
X142914286Y-86318152D01*
X142914286Y-86318152D02*
X142961905Y-86127676D01*
X142961905Y-86127676D02*
X143057143Y-86032438D01*
X143057143Y-86032438D02*
X143152381Y-85984819D01*
X143152381Y-85984819D02*
X143342857Y-85984819D01*
X143342857Y-85984819D02*
X143438095Y-86032438D01*
X143438095Y-86032438D02*
X143533333Y-86127676D01*
X143533333Y-86127676D02*
X143580952Y-86318152D01*
X143580952Y-86318152D02*
X143580952Y-86651485D01*
X143580952Y-86651485D02*
X143533333Y-86841961D01*
X143533333Y-86841961D02*
X143438095Y-86937200D01*
X143438095Y-86937200D02*
X143342857Y-86984819D01*
X143342857Y-86984819D02*
X143152381Y-86984819D01*
X144533333Y-86984819D02*
X143961905Y-86984819D01*
X144247619Y-86984819D02*
X144247619Y-85984819D01*
X144247619Y-85984819D02*
X144152381Y-86127676D01*
X144152381Y-86127676D02*
X144057143Y-86222914D01*
X144057143Y-86222914D02*
X143961905Y-86270533D01*
X145485714Y-86984819D02*
X144914286Y-86984819D01*
X145200000Y-86984819D02*
X145200000Y-85984819D01*
X145200000Y-85984819D02*
X145104762Y-86127676D01*
X145104762Y-86127676D02*
X145009524Y-86222914D01*
X145009524Y-86222914D02*
X144914286Y-86270533D01*
X141485714Y-93480057D02*
X141533333Y-93432438D01*
X141533333Y-93432438D02*
X141628571Y-93384819D01*
X141628571Y-93384819D02*
X141866666Y-93384819D01*
X141866666Y-93384819D02*
X141961904Y-93432438D01*
X141961904Y-93432438D02*
X142009523Y-93480057D01*
X142009523Y-93480057D02*
X142057142Y-93575295D01*
X142057142Y-93575295D02*
X142057142Y-93670533D01*
X142057142Y-93670533D02*
X142009523Y-93813390D01*
X142009523Y-93813390D02*
X141438095Y-94384819D01*
X141438095Y-94384819D02*
X142057142Y-94384819D01*
X142485714Y-94384819D02*
X142485714Y-93384819D01*
X142485714Y-93384819D02*
X143057142Y-94384819D01*
X143057142Y-94384819D02*
X143057142Y-93384819D01*
X143438095Y-93384819D02*
X144057142Y-93384819D01*
X144057142Y-93384819D02*
X143723809Y-93765771D01*
X143723809Y-93765771D02*
X143866666Y-93765771D01*
X143866666Y-93765771D02*
X143961904Y-93813390D01*
X143961904Y-93813390D02*
X144009523Y-93861009D01*
X144009523Y-93861009D02*
X144057142Y-93956247D01*
X144057142Y-93956247D02*
X144057142Y-94194342D01*
X144057142Y-94194342D02*
X144009523Y-94289580D01*
X144009523Y-94289580D02*
X143961904Y-94337200D01*
X143961904Y-94337200D02*
X143866666Y-94384819D01*
X143866666Y-94384819D02*
X143580952Y-94384819D01*
X143580952Y-94384819D02*
X143485714Y-94337200D01*
X143485714Y-94337200D02*
X143438095Y-94289580D01*
X144533333Y-94384819D02*
X144723809Y-94384819D01*
X144723809Y-94384819D02*
X144819047Y-94337200D01*
X144819047Y-94337200D02*
X144866666Y-94289580D01*
X144866666Y-94289580D02*
X144961904Y-94146723D01*
X144961904Y-94146723D02*
X145009523Y-93956247D01*
X145009523Y-93956247D02*
X145009523Y-93575295D01*
X145009523Y-93575295D02*
X144961904Y-93480057D01*
X144961904Y-93480057D02*
X144914285Y-93432438D01*
X144914285Y-93432438D02*
X144819047Y-93384819D01*
X144819047Y-93384819D02*
X144628571Y-93384819D01*
X144628571Y-93384819D02*
X144533333Y-93432438D01*
X144533333Y-93432438D02*
X144485714Y-93480057D01*
X144485714Y-93480057D02*
X144438095Y-93575295D01*
X144438095Y-93575295D02*
X144438095Y-93813390D01*
X144438095Y-93813390D02*
X144485714Y-93908628D01*
X144485714Y-93908628D02*
X144533333Y-93956247D01*
X144533333Y-93956247D02*
X144628571Y-94003866D01*
X144628571Y-94003866D02*
X144819047Y-94003866D01*
X144819047Y-94003866D02*
X144914285Y-93956247D01*
X144914285Y-93956247D02*
X144961904Y-93908628D01*
X144961904Y-93908628D02*
X145009523Y-93813390D01*
X145628571Y-93384819D02*
X145723809Y-93384819D01*
X145723809Y-93384819D02*
X145819047Y-93432438D01*
X145819047Y-93432438D02*
X145866666Y-93480057D01*
X145866666Y-93480057D02*
X145914285Y-93575295D01*
X145914285Y-93575295D02*
X145961904Y-93765771D01*
X145961904Y-93765771D02*
X145961904Y-94003866D01*
X145961904Y-94003866D02*
X145914285Y-94194342D01*
X145914285Y-94194342D02*
X145866666Y-94289580D01*
X145866666Y-94289580D02*
X145819047Y-94337200D01*
X145819047Y-94337200D02*
X145723809Y-94384819D01*
X145723809Y-94384819D02*
X145628571Y-94384819D01*
X145628571Y-94384819D02*
X145533333Y-94337200D01*
X145533333Y-94337200D02*
X145485714Y-94289580D01*
X145485714Y-94289580D02*
X145438095Y-94194342D01*
X145438095Y-94194342D02*
X145390476Y-94003866D01*
X145390476Y-94003866D02*
X145390476Y-93765771D01*
X145390476Y-93765771D02*
X145438095Y-93575295D01*
X145438095Y-93575295D02*
X145485714Y-93480057D01*
X145485714Y-93480057D02*
X145533333Y-93432438D01*
X145533333Y-93432438D02*
X145628571Y-93384819D01*
X146819047Y-93384819D02*
X146628571Y-93384819D01*
X146628571Y-93384819D02*
X146533333Y-93432438D01*
X146533333Y-93432438D02*
X146485714Y-93480057D01*
X146485714Y-93480057D02*
X146390476Y-93622914D01*
X146390476Y-93622914D02*
X146342857Y-93813390D01*
X146342857Y-93813390D02*
X146342857Y-94194342D01*
X146342857Y-94194342D02*
X146390476Y-94289580D01*
X146390476Y-94289580D02*
X146438095Y-94337200D01*
X146438095Y-94337200D02*
X146533333Y-94384819D01*
X146533333Y-94384819D02*
X146723809Y-94384819D01*
X146723809Y-94384819D02*
X146819047Y-94337200D01*
X146819047Y-94337200D02*
X146866666Y-94289580D01*
X146866666Y-94289580D02*
X146914285Y-94194342D01*
X146914285Y-94194342D02*
X146914285Y-93956247D01*
X146914285Y-93956247D02*
X146866666Y-93861009D01*
X146866666Y-93861009D02*
X146819047Y-93813390D01*
X146819047Y-93813390D02*
X146723809Y-93765771D01*
X146723809Y-93765771D02*
X146533333Y-93765771D01*
X146533333Y-93765771D02*
X146438095Y-93813390D01*
X146438095Y-93813390D02*
X146390476Y-93861009D01*
X146390476Y-93861009D02*
X146342857Y-93956247D01*
X115941905Y-74654819D02*
X115941905Y-73654819D01*
X115941905Y-73654819D02*
X116180000Y-73654819D01*
X116180000Y-73654819D02*
X116322857Y-73702438D01*
X116322857Y-73702438D02*
X116418095Y-73797676D01*
X116418095Y-73797676D02*
X116465714Y-73892914D01*
X116465714Y-73892914D02*
X116513333Y-74083390D01*
X116513333Y-74083390D02*
X116513333Y-74226247D01*
X116513333Y-74226247D02*
X116465714Y-74416723D01*
X116465714Y-74416723D02*
X116418095Y-74511961D01*
X116418095Y-74511961D02*
X116322857Y-74607200D01*
X116322857Y-74607200D02*
X116180000Y-74654819D01*
X116180000Y-74654819D02*
X115941905Y-74654819D01*
X117465714Y-74654819D02*
X116894286Y-74654819D01*
X117180000Y-74654819D02*
X117180000Y-73654819D01*
X117180000Y-73654819D02*
X117084762Y-73797676D01*
X117084762Y-73797676D02*
X116989524Y-73892914D01*
X116989524Y-73892914D02*
X116894286Y-73940533D01*
X122714284Y-74704819D02*
X122371427Y-74704819D01*
X122542856Y-74704819D02*
X122542856Y-73704819D01*
X122542856Y-73704819D02*
X122485713Y-73847676D01*
X122485713Y-73847676D02*
X122428570Y-73942914D01*
X122428570Y-73942914D02*
X122371427Y-73990533D01*
X122971428Y-74704819D02*
X122971428Y-73704819D01*
X122971428Y-73704819D02*
X123314285Y-74704819D01*
X123314285Y-74704819D02*
X123314285Y-73704819D01*
X123857142Y-74038152D02*
X123857142Y-74704819D01*
X123714284Y-73657200D02*
X123571427Y-74371485D01*
X123571427Y-74371485D02*
X123942856Y-74371485D01*
X124285713Y-73704819D02*
X124342856Y-73704819D01*
X124342856Y-73704819D02*
X124399999Y-73752438D01*
X124399999Y-73752438D02*
X124428571Y-73800057D01*
X124428571Y-73800057D02*
X124457142Y-73895295D01*
X124457142Y-73895295D02*
X124485713Y-74085771D01*
X124485713Y-74085771D02*
X124485713Y-74323866D01*
X124485713Y-74323866D02*
X124457142Y-74514342D01*
X124457142Y-74514342D02*
X124428571Y-74609580D01*
X124428571Y-74609580D02*
X124399999Y-74657200D01*
X124399999Y-74657200D02*
X124342856Y-74704819D01*
X124342856Y-74704819D02*
X124285713Y-74704819D01*
X124285713Y-74704819D02*
X124228571Y-74657200D01*
X124228571Y-74657200D02*
X124199999Y-74609580D01*
X124199999Y-74609580D02*
X124171428Y-74514342D01*
X124171428Y-74514342D02*
X124142856Y-74323866D01*
X124142856Y-74323866D02*
X124142856Y-74085771D01*
X124142856Y-74085771D02*
X124171428Y-73895295D01*
X124171428Y-73895295D02*
X124199999Y-73800057D01*
X124199999Y-73800057D02*
X124228571Y-73752438D01*
X124228571Y-73752438D02*
X124285713Y-73704819D01*
X124857142Y-73704819D02*
X124914285Y-73704819D01*
X124914285Y-73704819D02*
X124971428Y-73752438D01*
X124971428Y-73752438D02*
X125000000Y-73800057D01*
X125000000Y-73800057D02*
X125028571Y-73895295D01*
X125028571Y-73895295D02*
X125057142Y-74085771D01*
X125057142Y-74085771D02*
X125057142Y-74323866D01*
X125057142Y-74323866D02*
X125028571Y-74514342D01*
X125028571Y-74514342D02*
X125000000Y-74609580D01*
X125000000Y-74609580D02*
X124971428Y-74657200D01*
X124971428Y-74657200D02*
X124914285Y-74704819D01*
X124914285Y-74704819D02*
X124857142Y-74704819D01*
X124857142Y-74704819D02*
X124800000Y-74657200D01*
X124800000Y-74657200D02*
X124771428Y-74609580D01*
X124771428Y-74609580D02*
X124742857Y-74514342D01*
X124742857Y-74514342D02*
X124714285Y-74323866D01*
X124714285Y-74323866D02*
X124714285Y-74085771D01*
X124714285Y-74085771D02*
X124742857Y-73895295D01*
X124742857Y-73895295D02*
X124771428Y-73800057D01*
X124771428Y-73800057D02*
X124800000Y-73752438D01*
X124800000Y-73752438D02*
X124857142Y-73704819D01*
X125628571Y-74704819D02*
X125285714Y-74704819D01*
X125457143Y-74704819D02*
X125457143Y-73704819D01*
X125457143Y-73704819D02*
X125400000Y-73847676D01*
X125400000Y-73847676D02*
X125342857Y-73942914D01*
X125342857Y-73942914D02*
X125285714Y-73990533D01*
X129218095Y-76754819D02*
X129218095Y-75754819D01*
X129789523Y-76754819D02*
X129360952Y-76183390D01*
X129789523Y-75754819D02*
X129218095Y-76326247D01*
X113933333Y-63759580D02*
X113885714Y-63807200D01*
X113885714Y-63807200D02*
X113742857Y-63854819D01*
X113742857Y-63854819D02*
X113647619Y-63854819D01*
X113647619Y-63854819D02*
X113504762Y-63807200D01*
X113504762Y-63807200D02*
X113409524Y-63711961D01*
X113409524Y-63711961D02*
X113361905Y-63616723D01*
X113361905Y-63616723D02*
X113314286Y-63426247D01*
X113314286Y-63426247D02*
X113314286Y-63283390D01*
X113314286Y-63283390D02*
X113361905Y-63092914D01*
X113361905Y-63092914D02*
X113409524Y-62997676D01*
X113409524Y-62997676D02*
X113504762Y-62902438D01*
X113504762Y-62902438D02*
X113647619Y-62854819D01*
X113647619Y-62854819D02*
X113742857Y-62854819D01*
X113742857Y-62854819D02*
X113885714Y-62902438D01*
X113885714Y-62902438D02*
X113933333Y-62950057D01*
X114885714Y-63854819D02*
X114314286Y-63854819D01*
X114600000Y-63854819D02*
X114600000Y-62854819D01*
X114600000Y-62854819D02*
X114504762Y-62997676D01*
X114504762Y-62997676D02*
X114409524Y-63092914D01*
X114409524Y-63092914D02*
X114314286Y-63140533D01*
X112838095Y-65454819D02*
X113457142Y-65454819D01*
X113457142Y-65454819D02*
X113123809Y-65835771D01*
X113123809Y-65835771D02*
X113266666Y-65835771D01*
X113266666Y-65835771D02*
X113361904Y-65883390D01*
X113361904Y-65883390D02*
X113409523Y-65931009D01*
X113409523Y-65931009D02*
X113457142Y-66026247D01*
X113457142Y-66026247D02*
X113457142Y-66264342D01*
X113457142Y-66264342D02*
X113409523Y-66359580D01*
X113409523Y-66359580D02*
X113361904Y-66407200D01*
X113361904Y-66407200D02*
X113266666Y-66454819D01*
X113266666Y-66454819D02*
X112980952Y-66454819D01*
X112980952Y-66454819D02*
X112885714Y-66407200D01*
X112885714Y-66407200D02*
X112838095Y-66359580D01*
X114076190Y-65454819D02*
X114171428Y-65454819D01*
X114171428Y-65454819D02*
X114266666Y-65502438D01*
X114266666Y-65502438D02*
X114314285Y-65550057D01*
X114314285Y-65550057D02*
X114361904Y-65645295D01*
X114361904Y-65645295D02*
X114409523Y-65835771D01*
X114409523Y-65835771D02*
X114409523Y-66073866D01*
X114409523Y-66073866D02*
X114361904Y-66264342D01*
X114361904Y-66264342D02*
X114314285Y-66359580D01*
X114314285Y-66359580D02*
X114266666Y-66407200D01*
X114266666Y-66407200D02*
X114171428Y-66454819D01*
X114171428Y-66454819D02*
X114076190Y-66454819D01*
X114076190Y-66454819D02*
X113980952Y-66407200D01*
X113980952Y-66407200D02*
X113933333Y-66359580D01*
X113933333Y-66359580D02*
X113885714Y-66264342D01*
X113885714Y-66264342D02*
X113838095Y-66073866D01*
X113838095Y-66073866D02*
X113838095Y-65835771D01*
X113838095Y-65835771D02*
X113885714Y-65645295D01*
X113885714Y-65645295D02*
X113933333Y-65550057D01*
X113933333Y-65550057D02*
X113980952Y-65502438D01*
X113980952Y-65502438D02*
X114076190Y-65454819D01*
X114838095Y-65788152D02*
X114838095Y-66788152D01*
X114838095Y-65835771D02*
X114933333Y-65788152D01*
X114933333Y-65788152D02*
X115123809Y-65788152D01*
X115123809Y-65788152D02*
X115219047Y-65835771D01*
X115219047Y-65835771D02*
X115266666Y-65883390D01*
X115266666Y-65883390D02*
X115314285Y-65978628D01*
X115314285Y-65978628D02*
X115314285Y-66264342D01*
X115314285Y-66264342D02*
X115266666Y-66359580D01*
X115266666Y-66359580D02*
X115219047Y-66407200D01*
X115219047Y-66407200D02*
X115123809Y-66454819D01*
X115123809Y-66454819D02*
X114933333Y-66454819D01*
X114933333Y-66454819D02*
X114838095Y-66407200D01*
X103504761Y-61750057D02*
X103409523Y-61702438D01*
X103409523Y-61702438D02*
X103314285Y-61607200D01*
X103314285Y-61607200D02*
X103171428Y-61464342D01*
X103171428Y-61464342D02*
X103076190Y-61416723D01*
X103076190Y-61416723D02*
X102980952Y-61416723D01*
X103028571Y-61654819D02*
X102933333Y-61607200D01*
X102933333Y-61607200D02*
X102838095Y-61511961D01*
X102838095Y-61511961D02*
X102790476Y-61321485D01*
X102790476Y-61321485D02*
X102790476Y-60988152D01*
X102790476Y-60988152D02*
X102838095Y-60797676D01*
X102838095Y-60797676D02*
X102933333Y-60702438D01*
X102933333Y-60702438D02*
X103028571Y-60654819D01*
X103028571Y-60654819D02*
X103219047Y-60654819D01*
X103219047Y-60654819D02*
X103314285Y-60702438D01*
X103314285Y-60702438D02*
X103409523Y-60797676D01*
X103409523Y-60797676D02*
X103457142Y-60988152D01*
X103457142Y-60988152D02*
X103457142Y-61321485D01*
X103457142Y-61321485D02*
X103409523Y-61511961D01*
X103409523Y-61511961D02*
X103314285Y-61607200D01*
X103314285Y-61607200D02*
X103219047Y-61654819D01*
X103219047Y-61654819D02*
X103028571Y-61654819D01*
X103838095Y-60750057D02*
X103885714Y-60702438D01*
X103885714Y-60702438D02*
X103980952Y-60654819D01*
X103980952Y-60654819D02*
X104219047Y-60654819D01*
X104219047Y-60654819D02*
X104314285Y-60702438D01*
X104314285Y-60702438D02*
X104361904Y-60750057D01*
X104361904Y-60750057D02*
X104409523Y-60845295D01*
X104409523Y-60845295D02*
X104409523Y-60940533D01*
X104409523Y-60940533D02*
X104361904Y-61083390D01*
X104361904Y-61083390D02*
X103790476Y-61654819D01*
X103790476Y-61654819D02*
X104409523Y-61654819D01*
X100685714Y-68150057D02*
X100733333Y-68102438D01*
X100733333Y-68102438D02*
X100828571Y-68054819D01*
X100828571Y-68054819D02*
X101066666Y-68054819D01*
X101066666Y-68054819D02*
X101161904Y-68102438D01*
X101161904Y-68102438D02*
X101209523Y-68150057D01*
X101209523Y-68150057D02*
X101257142Y-68245295D01*
X101257142Y-68245295D02*
X101257142Y-68340533D01*
X101257142Y-68340533D02*
X101209523Y-68483390D01*
X101209523Y-68483390D02*
X100638095Y-69054819D01*
X100638095Y-69054819D02*
X101257142Y-69054819D01*
X101685714Y-69054819D02*
X101685714Y-68054819D01*
X101685714Y-68054819D02*
X102257142Y-69054819D01*
X102257142Y-69054819D02*
X102257142Y-68054819D01*
X102638095Y-68054819D02*
X103257142Y-68054819D01*
X103257142Y-68054819D02*
X102923809Y-68435771D01*
X102923809Y-68435771D02*
X103066666Y-68435771D01*
X103066666Y-68435771D02*
X103161904Y-68483390D01*
X103161904Y-68483390D02*
X103209523Y-68531009D01*
X103209523Y-68531009D02*
X103257142Y-68626247D01*
X103257142Y-68626247D02*
X103257142Y-68864342D01*
X103257142Y-68864342D02*
X103209523Y-68959580D01*
X103209523Y-68959580D02*
X103161904Y-69007200D01*
X103161904Y-69007200D02*
X103066666Y-69054819D01*
X103066666Y-69054819D02*
X102780952Y-69054819D01*
X102780952Y-69054819D02*
X102685714Y-69007200D01*
X102685714Y-69007200D02*
X102638095Y-68959580D01*
X103733333Y-69054819D02*
X103923809Y-69054819D01*
X103923809Y-69054819D02*
X104019047Y-69007200D01*
X104019047Y-69007200D02*
X104066666Y-68959580D01*
X104066666Y-68959580D02*
X104161904Y-68816723D01*
X104161904Y-68816723D02*
X104209523Y-68626247D01*
X104209523Y-68626247D02*
X104209523Y-68245295D01*
X104209523Y-68245295D02*
X104161904Y-68150057D01*
X104161904Y-68150057D02*
X104114285Y-68102438D01*
X104114285Y-68102438D02*
X104019047Y-68054819D01*
X104019047Y-68054819D02*
X103828571Y-68054819D01*
X103828571Y-68054819D02*
X103733333Y-68102438D01*
X103733333Y-68102438D02*
X103685714Y-68150057D01*
X103685714Y-68150057D02*
X103638095Y-68245295D01*
X103638095Y-68245295D02*
X103638095Y-68483390D01*
X103638095Y-68483390D02*
X103685714Y-68578628D01*
X103685714Y-68578628D02*
X103733333Y-68626247D01*
X103733333Y-68626247D02*
X103828571Y-68673866D01*
X103828571Y-68673866D02*
X104019047Y-68673866D01*
X104019047Y-68673866D02*
X104114285Y-68626247D01*
X104114285Y-68626247D02*
X104161904Y-68578628D01*
X104161904Y-68578628D02*
X104209523Y-68483390D01*
X104828571Y-68054819D02*
X104923809Y-68054819D01*
X104923809Y-68054819D02*
X105019047Y-68102438D01*
X105019047Y-68102438D02*
X105066666Y-68150057D01*
X105066666Y-68150057D02*
X105114285Y-68245295D01*
X105114285Y-68245295D02*
X105161904Y-68435771D01*
X105161904Y-68435771D02*
X105161904Y-68673866D01*
X105161904Y-68673866D02*
X105114285Y-68864342D01*
X105114285Y-68864342D02*
X105066666Y-68959580D01*
X105066666Y-68959580D02*
X105019047Y-69007200D01*
X105019047Y-69007200D02*
X104923809Y-69054819D01*
X104923809Y-69054819D02*
X104828571Y-69054819D01*
X104828571Y-69054819D02*
X104733333Y-69007200D01*
X104733333Y-69007200D02*
X104685714Y-68959580D01*
X104685714Y-68959580D02*
X104638095Y-68864342D01*
X104638095Y-68864342D02*
X104590476Y-68673866D01*
X104590476Y-68673866D02*
X104590476Y-68435771D01*
X104590476Y-68435771D02*
X104638095Y-68245295D01*
X104638095Y-68245295D02*
X104685714Y-68150057D01*
X104685714Y-68150057D02*
X104733333Y-68102438D01*
X104733333Y-68102438D02*
X104828571Y-68054819D01*
X106019047Y-68054819D02*
X105828571Y-68054819D01*
X105828571Y-68054819D02*
X105733333Y-68102438D01*
X105733333Y-68102438D02*
X105685714Y-68150057D01*
X105685714Y-68150057D02*
X105590476Y-68292914D01*
X105590476Y-68292914D02*
X105542857Y-68483390D01*
X105542857Y-68483390D02*
X105542857Y-68864342D01*
X105542857Y-68864342D02*
X105590476Y-68959580D01*
X105590476Y-68959580D02*
X105638095Y-69007200D01*
X105638095Y-69007200D02*
X105733333Y-69054819D01*
X105733333Y-69054819D02*
X105923809Y-69054819D01*
X105923809Y-69054819D02*
X106019047Y-69007200D01*
X106019047Y-69007200D02*
X106066666Y-68959580D01*
X106066666Y-68959580D02*
X106114285Y-68864342D01*
X106114285Y-68864342D02*
X106114285Y-68626247D01*
X106114285Y-68626247D02*
X106066666Y-68531009D01*
X106066666Y-68531009D02*
X106019047Y-68483390D01*
X106019047Y-68483390D02*
X105923809Y-68435771D01*
X105923809Y-68435771D02*
X105733333Y-68435771D01*
X105733333Y-68435771D02*
X105638095Y-68483390D01*
X105638095Y-68483390D02*
X105590476Y-68531009D01*
X105590476Y-68531009D02*
X105542857Y-68626247D01*
X143233333Y-73284819D02*
X142900000Y-72808628D01*
X142661905Y-73284819D02*
X142661905Y-72284819D01*
X142661905Y-72284819D02*
X143042857Y-72284819D01*
X143042857Y-72284819D02*
X143138095Y-72332438D01*
X143138095Y-72332438D02*
X143185714Y-72380057D01*
X143185714Y-72380057D02*
X143233333Y-72475295D01*
X143233333Y-72475295D02*
X143233333Y-72618152D01*
X143233333Y-72618152D02*
X143185714Y-72713390D01*
X143185714Y-72713390D02*
X143138095Y-72761009D01*
X143138095Y-72761009D02*
X143042857Y-72808628D01*
X143042857Y-72808628D02*
X142661905Y-72808628D01*
X143566667Y-72284819D02*
X144185714Y-72284819D01*
X144185714Y-72284819D02*
X143852381Y-72665771D01*
X143852381Y-72665771D02*
X143995238Y-72665771D01*
X143995238Y-72665771D02*
X144090476Y-72713390D01*
X144090476Y-72713390D02*
X144138095Y-72761009D01*
X144138095Y-72761009D02*
X144185714Y-72856247D01*
X144185714Y-72856247D02*
X144185714Y-73094342D01*
X144185714Y-73094342D02*
X144138095Y-73189580D01*
X144138095Y-73189580D02*
X144090476Y-73237200D01*
X144090476Y-73237200D02*
X143995238Y-73284819D01*
X143995238Y-73284819D02*
X143709524Y-73284819D01*
X143709524Y-73284819D02*
X143614286Y-73237200D01*
X143614286Y-73237200D02*
X143566667Y-73189580D01*
X142161905Y-74750057D02*
X142209524Y-74702438D01*
X142209524Y-74702438D02*
X142304762Y-74654819D01*
X142304762Y-74654819D02*
X142542857Y-74654819D01*
X142542857Y-74654819D02*
X142638095Y-74702438D01*
X142638095Y-74702438D02*
X142685714Y-74750057D01*
X142685714Y-74750057D02*
X142733333Y-74845295D01*
X142733333Y-74845295D02*
X142733333Y-74940533D01*
X142733333Y-74940533D02*
X142685714Y-75083390D01*
X142685714Y-75083390D02*
X142114286Y-75654819D01*
X142114286Y-75654819D02*
X142733333Y-75654819D01*
X143114286Y-74750057D02*
X143161905Y-74702438D01*
X143161905Y-74702438D02*
X143257143Y-74654819D01*
X143257143Y-74654819D02*
X143495238Y-74654819D01*
X143495238Y-74654819D02*
X143590476Y-74702438D01*
X143590476Y-74702438D02*
X143638095Y-74750057D01*
X143638095Y-74750057D02*
X143685714Y-74845295D01*
X143685714Y-74845295D02*
X143685714Y-74940533D01*
X143685714Y-74940533D02*
X143638095Y-75083390D01*
X143638095Y-75083390D02*
X143066667Y-75654819D01*
X143066667Y-75654819D02*
X143685714Y-75654819D01*
X144304762Y-74654819D02*
X144400000Y-74654819D01*
X144400000Y-74654819D02*
X144495238Y-74702438D01*
X144495238Y-74702438D02*
X144542857Y-74750057D01*
X144542857Y-74750057D02*
X144590476Y-74845295D01*
X144590476Y-74845295D02*
X144638095Y-75035771D01*
X144638095Y-75035771D02*
X144638095Y-75273866D01*
X144638095Y-75273866D02*
X144590476Y-75464342D01*
X144590476Y-75464342D02*
X144542857Y-75559580D01*
X144542857Y-75559580D02*
X144495238Y-75607200D01*
X144495238Y-75607200D02*
X144400000Y-75654819D01*
X144400000Y-75654819D02*
X144304762Y-75654819D01*
X144304762Y-75654819D02*
X144209524Y-75607200D01*
X144209524Y-75607200D02*
X144161905Y-75559580D01*
X144161905Y-75559580D02*
X144114286Y-75464342D01*
X144114286Y-75464342D02*
X144066667Y-75273866D01*
X144066667Y-75273866D02*
X144066667Y-75035771D01*
X144066667Y-75035771D02*
X144114286Y-74845295D01*
X144114286Y-74845295D02*
X144161905Y-74750057D01*
X144161905Y-74750057D02*
X144209524Y-74702438D01*
X144209524Y-74702438D02*
X144304762Y-74654819D01*
X86033333Y-92854819D02*
X85700000Y-92378628D01*
X85461905Y-92854819D02*
X85461905Y-91854819D01*
X85461905Y-91854819D02*
X85842857Y-91854819D01*
X85842857Y-91854819D02*
X85938095Y-91902438D01*
X85938095Y-91902438D02*
X85985714Y-91950057D01*
X85985714Y-91950057D02*
X86033333Y-92045295D01*
X86033333Y-92045295D02*
X86033333Y-92188152D01*
X86033333Y-92188152D02*
X85985714Y-92283390D01*
X85985714Y-92283390D02*
X85938095Y-92331009D01*
X85938095Y-92331009D02*
X85842857Y-92378628D01*
X85842857Y-92378628D02*
X85461905Y-92378628D01*
X86985714Y-92854819D02*
X86414286Y-92854819D01*
X86700000Y-92854819D02*
X86700000Y-91854819D01*
X86700000Y-91854819D02*
X86604762Y-91997676D01*
X86604762Y-91997676D02*
X86509524Y-92092914D01*
X86509524Y-92092914D02*
X86414286Y-92140533D01*
X85550057Y-86286666D02*
X85502438Y-86239047D01*
X85502438Y-86239047D02*
X85454819Y-86143809D01*
X85454819Y-86143809D02*
X85454819Y-85905714D01*
X85454819Y-85905714D02*
X85502438Y-85810476D01*
X85502438Y-85810476D02*
X85550057Y-85762857D01*
X85550057Y-85762857D02*
X85645295Y-85715238D01*
X85645295Y-85715238D02*
X85740533Y-85715238D01*
X85740533Y-85715238D02*
X85883390Y-85762857D01*
X85883390Y-85762857D02*
X86454819Y-86334285D01*
X86454819Y-86334285D02*
X86454819Y-85715238D01*
X85550057Y-85334285D02*
X85502438Y-85286666D01*
X85502438Y-85286666D02*
X85454819Y-85191428D01*
X85454819Y-85191428D02*
X85454819Y-84953333D01*
X85454819Y-84953333D02*
X85502438Y-84858095D01*
X85502438Y-84858095D02*
X85550057Y-84810476D01*
X85550057Y-84810476D02*
X85645295Y-84762857D01*
X85645295Y-84762857D02*
X85740533Y-84762857D01*
X85740533Y-84762857D02*
X85883390Y-84810476D01*
X85883390Y-84810476D02*
X86454819Y-85381904D01*
X86454819Y-85381904D02*
X86454819Y-84762857D01*
X86454819Y-84334285D02*
X85454819Y-84334285D01*
X86073866Y-84239047D02*
X86454819Y-83953333D01*
X85788152Y-83953333D02*
X86169104Y-84334285D01*
X102704761Y-73750057D02*
X102609523Y-73702438D01*
X102609523Y-73702438D02*
X102514285Y-73607200D01*
X102514285Y-73607200D02*
X102371428Y-73464342D01*
X102371428Y-73464342D02*
X102276190Y-73416723D01*
X102276190Y-73416723D02*
X102180952Y-73416723D01*
X102228571Y-73654819D02*
X102133333Y-73607200D01*
X102133333Y-73607200D02*
X102038095Y-73511961D01*
X102038095Y-73511961D02*
X101990476Y-73321485D01*
X101990476Y-73321485D02*
X101990476Y-72988152D01*
X101990476Y-72988152D02*
X102038095Y-72797676D01*
X102038095Y-72797676D02*
X102133333Y-72702438D01*
X102133333Y-72702438D02*
X102228571Y-72654819D01*
X102228571Y-72654819D02*
X102419047Y-72654819D01*
X102419047Y-72654819D02*
X102514285Y-72702438D01*
X102514285Y-72702438D02*
X102609523Y-72797676D01*
X102609523Y-72797676D02*
X102657142Y-72988152D01*
X102657142Y-72988152D02*
X102657142Y-73321485D01*
X102657142Y-73321485D02*
X102609523Y-73511961D01*
X102609523Y-73511961D02*
X102514285Y-73607200D01*
X102514285Y-73607200D02*
X102419047Y-73654819D01*
X102419047Y-73654819D02*
X102228571Y-73654819D01*
X103514285Y-72988152D02*
X103514285Y-73654819D01*
X103276190Y-72607200D02*
X103038095Y-73321485D01*
X103038095Y-73321485D02*
X103657142Y-73321485D01*
X100085714Y-80080057D02*
X100133333Y-80032438D01*
X100133333Y-80032438D02*
X100228571Y-79984819D01*
X100228571Y-79984819D02*
X100466666Y-79984819D01*
X100466666Y-79984819D02*
X100561904Y-80032438D01*
X100561904Y-80032438D02*
X100609523Y-80080057D01*
X100609523Y-80080057D02*
X100657142Y-80175295D01*
X100657142Y-80175295D02*
X100657142Y-80270533D01*
X100657142Y-80270533D02*
X100609523Y-80413390D01*
X100609523Y-80413390D02*
X100038095Y-80984819D01*
X100038095Y-80984819D02*
X100657142Y-80984819D01*
X101085714Y-80984819D02*
X101085714Y-79984819D01*
X101085714Y-79984819D02*
X101657142Y-80984819D01*
X101657142Y-80984819D02*
X101657142Y-79984819D01*
X102038095Y-79984819D02*
X102657142Y-79984819D01*
X102657142Y-79984819D02*
X102323809Y-80365771D01*
X102323809Y-80365771D02*
X102466666Y-80365771D01*
X102466666Y-80365771D02*
X102561904Y-80413390D01*
X102561904Y-80413390D02*
X102609523Y-80461009D01*
X102609523Y-80461009D02*
X102657142Y-80556247D01*
X102657142Y-80556247D02*
X102657142Y-80794342D01*
X102657142Y-80794342D02*
X102609523Y-80889580D01*
X102609523Y-80889580D02*
X102561904Y-80937200D01*
X102561904Y-80937200D02*
X102466666Y-80984819D01*
X102466666Y-80984819D02*
X102180952Y-80984819D01*
X102180952Y-80984819D02*
X102085714Y-80937200D01*
X102085714Y-80937200D02*
X102038095Y-80889580D01*
X103133333Y-80984819D02*
X103323809Y-80984819D01*
X103323809Y-80984819D02*
X103419047Y-80937200D01*
X103419047Y-80937200D02*
X103466666Y-80889580D01*
X103466666Y-80889580D02*
X103561904Y-80746723D01*
X103561904Y-80746723D02*
X103609523Y-80556247D01*
X103609523Y-80556247D02*
X103609523Y-80175295D01*
X103609523Y-80175295D02*
X103561904Y-80080057D01*
X103561904Y-80080057D02*
X103514285Y-80032438D01*
X103514285Y-80032438D02*
X103419047Y-79984819D01*
X103419047Y-79984819D02*
X103228571Y-79984819D01*
X103228571Y-79984819D02*
X103133333Y-80032438D01*
X103133333Y-80032438D02*
X103085714Y-80080057D01*
X103085714Y-80080057D02*
X103038095Y-80175295D01*
X103038095Y-80175295D02*
X103038095Y-80413390D01*
X103038095Y-80413390D02*
X103085714Y-80508628D01*
X103085714Y-80508628D02*
X103133333Y-80556247D01*
X103133333Y-80556247D02*
X103228571Y-80603866D01*
X103228571Y-80603866D02*
X103419047Y-80603866D01*
X103419047Y-80603866D02*
X103514285Y-80556247D01*
X103514285Y-80556247D02*
X103561904Y-80508628D01*
X103561904Y-80508628D02*
X103609523Y-80413390D01*
X104228571Y-79984819D02*
X104323809Y-79984819D01*
X104323809Y-79984819D02*
X104419047Y-80032438D01*
X104419047Y-80032438D02*
X104466666Y-80080057D01*
X104466666Y-80080057D02*
X104514285Y-80175295D01*
X104514285Y-80175295D02*
X104561904Y-80365771D01*
X104561904Y-80365771D02*
X104561904Y-80603866D01*
X104561904Y-80603866D02*
X104514285Y-80794342D01*
X104514285Y-80794342D02*
X104466666Y-80889580D01*
X104466666Y-80889580D02*
X104419047Y-80937200D01*
X104419047Y-80937200D02*
X104323809Y-80984819D01*
X104323809Y-80984819D02*
X104228571Y-80984819D01*
X104228571Y-80984819D02*
X104133333Y-80937200D01*
X104133333Y-80937200D02*
X104085714Y-80889580D01*
X104085714Y-80889580D02*
X104038095Y-80794342D01*
X104038095Y-80794342D02*
X103990476Y-80603866D01*
X103990476Y-80603866D02*
X103990476Y-80365771D01*
X103990476Y-80365771D02*
X104038095Y-80175295D01*
X104038095Y-80175295D02*
X104085714Y-80080057D01*
X104085714Y-80080057D02*
X104133333Y-80032438D01*
X104133333Y-80032438D02*
X104228571Y-79984819D01*
X105419047Y-80318152D02*
X105419047Y-80984819D01*
X105180952Y-79937200D02*
X104942857Y-80651485D01*
X104942857Y-80651485D02*
X105561904Y-80651485D01*
X75476191Y-70054819D02*
X75476191Y-69054819D01*
X75952381Y-70054819D02*
X75952381Y-69054819D01*
X75952381Y-69054819D02*
X76523809Y-70054819D01*
X76523809Y-70054819D02*
X76523809Y-69054819D01*
X93504761Y-61750057D02*
X93409523Y-61702438D01*
X93409523Y-61702438D02*
X93314285Y-61607200D01*
X93314285Y-61607200D02*
X93171428Y-61464342D01*
X93171428Y-61464342D02*
X93076190Y-61416723D01*
X93076190Y-61416723D02*
X92980952Y-61416723D01*
X93028571Y-61654819D02*
X92933333Y-61607200D01*
X92933333Y-61607200D02*
X92838095Y-61511961D01*
X92838095Y-61511961D02*
X92790476Y-61321485D01*
X92790476Y-61321485D02*
X92790476Y-60988152D01*
X92790476Y-60988152D02*
X92838095Y-60797676D01*
X92838095Y-60797676D02*
X92933333Y-60702438D01*
X92933333Y-60702438D02*
X93028571Y-60654819D01*
X93028571Y-60654819D02*
X93219047Y-60654819D01*
X93219047Y-60654819D02*
X93314285Y-60702438D01*
X93314285Y-60702438D02*
X93409523Y-60797676D01*
X93409523Y-60797676D02*
X93457142Y-60988152D01*
X93457142Y-60988152D02*
X93457142Y-61321485D01*
X93457142Y-61321485D02*
X93409523Y-61511961D01*
X93409523Y-61511961D02*
X93314285Y-61607200D01*
X93314285Y-61607200D02*
X93219047Y-61654819D01*
X93219047Y-61654819D02*
X93028571Y-61654819D01*
X94409523Y-61654819D02*
X93838095Y-61654819D01*
X94123809Y-61654819D02*
X94123809Y-60654819D01*
X94123809Y-60654819D02*
X94028571Y-60797676D01*
X94028571Y-60797676D02*
X93933333Y-60892914D01*
X93933333Y-60892914D02*
X93838095Y-60940533D01*
X90885714Y-68150057D02*
X90933333Y-68102438D01*
X90933333Y-68102438D02*
X91028571Y-68054819D01*
X91028571Y-68054819D02*
X91266666Y-68054819D01*
X91266666Y-68054819D02*
X91361904Y-68102438D01*
X91361904Y-68102438D02*
X91409523Y-68150057D01*
X91409523Y-68150057D02*
X91457142Y-68245295D01*
X91457142Y-68245295D02*
X91457142Y-68340533D01*
X91457142Y-68340533D02*
X91409523Y-68483390D01*
X91409523Y-68483390D02*
X90838095Y-69054819D01*
X90838095Y-69054819D02*
X91457142Y-69054819D01*
X91885714Y-69054819D02*
X91885714Y-68054819D01*
X91885714Y-68054819D02*
X92457142Y-69054819D01*
X92457142Y-69054819D02*
X92457142Y-68054819D01*
X92838095Y-68054819D02*
X93457142Y-68054819D01*
X93457142Y-68054819D02*
X93123809Y-68435771D01*
X93123809Y-68435771D02*
X93266666Y-68435771D01*
X93266666Y-68435771D02*
X93361904Y-68483390D01*
X93361904Y-68483390D02*
X93409523Y-68531009D01*
X93409523Y-68531009D02*
X93457142Y-68626247D01*
X93457142Y-68626247D02*
X93457142Y-68864342D01*
X93457142Y-68864342D02*
X93409523Y-68959580D01*
X93409523Y-68959580D02*
X93361904Y-69007200D01*
X93361904Y-69007200D02*
X93266666Y-69054819D01*
X93266666Y-69054819D02*
X92980952Y-69054819D01*
X92980952Y-69054819D02*
X92885714Y-69007200D01*
X92885714Y-69007200D02*
X92838095Y-68959580D01*
X93933333Y-69054819D02*
X94123809Y-69054819D01*
X94123809Y-69054819D02*
X94219047Y-69007200D01*
X94219047Y-69007200D02*
X94266666Y-68959580D01*
X94266666Y-68959580D02*
X94361904Y-68816723D01*
X94361904Y-68816723D02*
X94409523Y-68626247D01*
X94409523Y-68626247D02*
X94409523Y-68245295D01*
X94409523Y-68245295D02*
X94361904Y-68150057D01*
X94361904Y-68150057D02*
X94314285Y-68102438D01*
X94314285Y-68102438D02*
X94219047Y-68054819D01*
X94219047Y-68054819D02*
X94028571Y-68054819D01*
X94028571Y-68054819D02*
X93933333Y-68102438D01*
X93933333Y-68102438D02*
X93885714Y-68150057D01*
X93885714Y-68150057D02*
X93838095Y-68245295D01*
X93838095Y-68245295D02*
X93838095Y-68483390D01*
X93838095Y-68483390D02*
X93885714Y-68578628D01*
X93885714Y-68578628D02*
X93933333Y-68626247D01*
X93933333Y-68626247D02*
X94028571Y-68673866D01*
X94028571Y-68673866D02*
X94219047Y-68673866D01*
X94219047Y-68673866D02*
X94314285Y-68626247D01*
X94314285Y-68626247D02*
X94361904Y-68578628D01*
X94361904Y-68578628D02*
X94409523Y-68483390D01*
X95028571Y-68054819D02*
X95123809Y-68054819D01*
X95123809Y-68054819D02*
X95219047Y-68102438D01*
X95219047Y-68102438D02*
X95266666Y-68150057D01*
X95266666Y-68150057D02*
X95314285Y-68245295D01*
X95314285Y-68245295D02*
X95361904Y-68435771D01*
X95361904Y-68435771D02*
X95361904Y-68673866D01*
X95361904Y-68673866D02*
X95314285Y-68864342D01*
X95314285Y-68864342D02*
X95266666Y-68959580D01*
X95266666Y-68959580D02*
X95219047Y-69007200D01*
X95219047Y-69007200D02*
X95123809Y-69054819D01*
X95123809Y-69054819D02*
X95028571Y-69054819D01*
X95028571Y-69054819D02*
X94933333Y-69007200D01*
X94933333Y-69007200D02*
X94885714Y-68959580D01*
X94885714Y-68959580D02*
X94838095Y-68864342D01*
X94838095Y-68864342D02*
X94790476Y-68673866D01*
X94790476Y-68673866D02*
X94790476Y-68435771D01*
X94790476Y-68435771D02*
X94838095Y-68245295D01*
X94838095Y-68245295D02*
X94885714Y-68150057D01*
X94885714Y-68150057D02*
X94933333Y-68102438D01*
X94933333Y-68102438D02*
X95028571Y-68054819D01*
X96219047Y-68054819D02*
X96028571Y-68054819D01*
X96028571Y-68054819D02*
X95933333Y-68102438D01*
X95933333Y-68102438D02*
X95885714Y-68150057D01*
X95885714Y-68150057D02*
X95790476Y-68292914D01*
X95790476Y-68292914D02*
X95742857Y-68483390D01*
X95742857Y-68483390D02*
X95742857Y-68864342D01*
X95742857Y-68864342D02*
X95790476Y-68959580D01*
X95790476Y-68959580D02*
X95838095Y-69007200D01*
X95838095Y-69007200D02*
X95933333Y-69054819D01*
X95933333Y-69054819D02*
X96123809Y-69054819D01*
X96123809Y-69054819D02*
X96219047Y-69007200D01*
X96219047Y-69007200D02*
X96266666Y-68959580D01*
X96266666Y-68959580D02*
X96314285Y-68864342D01*
X96314285Y-68864342D02*
X96314285Y-68626247D01*
X96314285Y-68626247D02*
X96266666Y-68531009D01*
X96266666Y-68531009D02*
X96219047Y-68483390D01*
X96219047Y-68483390D02*
X96123809Y-68435771D01*
X96123809Y-68435771D02*
X95933333Y-68435771D01*
X95933333Y-68435771D02*
X95838095Y-68483390D01*
X95838095Y-68483390D02*
X95790476Y-68531009D01*
X95790476Y-68531009D02*
X95742857Y-68626247D01*
X143313333Y-83054819D02*
X142980000Y-82578628D01*
X142741905Y-83054819D02*
X142741905Y-82054819D01*
X142741905Y-82054819D02*
X143122857Y-82054819D01*
X143122857Y-82054819D02*
X143218095Y-82102438D01*
X143218095Y-82102438D02*
X143265714Y-82150057D01*
X143265714Y-82150057D02*
X143313333Y-82245295D01*
X143313333Y-82245295D02*
X143313333Y-82388152D01*
X143313333Y-82388152D02*
X143265714Y-82483390D01*
X143265714Y-82483390D02*
X143218095Y-82531009D01*
X143218095Y-82531009D02*
X143122857Y-82578628D01*
X143122857Y-82578628D02*
X142741905Y-82578628D01*
X144170476Y-82388152D02*
X144170476Y-83054819D01*
X143932381Y-82007200D02*
X143694286Y-82721485D01*
X143694286Y-82721485D02*
X144313333Y-82721485D01*
X142161905Y-79550057D02*
X142209524Y-79502438D01*
X142209524Y-79502438D02*
X142304762Y-79454819D01*
X142304762Y-79454819D02*
X142542857Y-79454819D01*
X142542857Y-79454819D02*
X142638095Y-79502438D01*
X142638095Y-79502438D02*
X142685714Y-79550057D01*
X142685714Y-79550057D02*
X142733333Y-79645295D01*
X142733333Y-79645295D02*
X142733333Y-79740533D01*
X142733333Y-79740533D02*
X142685714Y-79883390D01*
X142685714Y-79883390D02*
X142114286Y-80454819D01*
X142114286Y-80454819D02*
X142733333Y-80454819D01*
X143114286Y-79550057D02*
X143161905Y-79502438D01*
X143161905Y-79502438D02*
X143257143Y-79454819D01*
X143257143Y-79454819D02*
X143495238Y-79454819D01*
X143495238Y-79454819D02*
X143590476Y-79502438D01*
X143590476Y-79502438D02*
X143638095Y-79550057D01*
X143638095Y-79550057D02*
X143685714Y-79645295D01*
X143685714Y-79645295D02*
X143685714Y-79740533D01*
X143685714Y-79740533D02*
X143638095Y-79883390D01*
X143638095Y-79883390D02*
X143066667Y-80454819D01*
X143066667Y-80454819D02*
X143685714Y-80454819D01*
X144304762Y-79454819D02*
X144400000Y-79454819D01*
X144400000Y-79454819D02*
X144495238Y-79502438D01*
X144495238Y-79502438D02*
X144542857Y-79550057D01*
X144542857Y-79550057D02*
X144590476Y-79645295D01*
X144590476Y-79645295D02*
X144638095Y-79835771D01*
X144638095Y-79835771D02*
X144638095Y-80073866D01*
X144638095Y-80073866D02*
X144590476Y-80264342D01*
X144590476Y-80264342D02*
X144542857Y-80359580D01*
X144542857Y-80359580D02*
X144495238Y-80407200D01*
X144495238Y-80407200D02*
X144400000Y-80454819D01*
X144400000Y-80454819D02*
X144304762Y-80454819D01*
X144304762Y-80454819D02*
X144209524Y-80407200D01*
X144209524Y-80407200D02*
X144161905Y-80359580D01*
X144161905Y-80359580D02*
X144114286Y-80264342D01*
X144114286Y-80264342D02*
X144066667Y-80073866D01*
X144066667Y-80073866D02*
X144066667Y-79835771D01*
X144066667Y-79835771D02*
X144114286Y-79645295D01*
X144114286Y-79645295D02*
X144161905Y-79550057D01*
X144161905Y-79550057D02*
X144209524Y-79502438D01*
X144209524Y-79502438D02*
X144304762Y-79454819D01*
X102904761Y-85150057D02*
X102809523Y-85102438D01*
X102809523Y-85102438D02*
X102714285Y-85007200D01*
X102714285Y-85007200D02*
X102571428Y-84864342D01*
X102571428Y-84864342D02*
X102476190Y-84816723D01*
X102476190Y-84816723D02*
X102380952Y-84816723D01*
X102428571Y-85054819D02*
X102333333Y-85007200D01*
X102333333Y-85007200D02*
X102238095Y-84911961D01*
X102238095Y-84911961D02*
X102190476Y-84721485D01*
X102190476Y-84721485D02*
X102190476Y-84388152D01*
X102190476Y-84388152D02*
X102238095Y-84197676D01*
X102238095Y-84197676D02*
X102333333Y-84102438D01*
X102333333Y-84102438D02*
X102428571Y-84054819D01*
X102428571Y-84054819D02*
X102619047Y-84054819D01*
X102619047Y-84054819D02*
X102714285Y-84102438D01*
X102714285Y-84102438D02*
X102809523Y-84197676D01*
X102809523Y-84197676D02*
X102857142Y-84388152D01*
X102857142Y-84388152D02*
X102857142Y-84721485D01*
X102857142Y-84721485D02*
X102809523Y-84911961D01*
X102809523Y-84911961D02*
X102714285Y-85007200D01*
X102714285Y-85007200D02*
X102619047Y-85054819D01*
X102619047Y-85054819D02*
X102428571Y-85054819D01*
X103761904Y-84054819D02*
X103285714Y-84054819D01*
X103285714Y-84054819D02*
X103238095Y-84531009D01*
X103238095Y-84531009D02*
X103285714Y-84483390D01*
X103285714Y-84483390D02*
X103380952Y-84435771D01*
X103380952Y-84435771D02*
X103619047Y-84435771D01*
X103619047Y-84435771D02*
X103714285Y-84483390D01*
X103714285Y-84483390D02*
X103761904Y-84531009D01*
X103761904Y-84531009D02*
X103809523Y-84626247D01*
X103809523Y-84626247D02*
X103809523Y-84864342D01*
X103809523Y-84864342D02*
X103761904Y-84959580D01*
X103761904Y-84959580D02*
X103714285Y-85007200D01*
X103714285Y-85007200D02*
X103619047Y-85054819D01*
X103619047Y-85054819D02*
X103380952Y-85054819D01*
X103380952Y-85054819D02*
X103285714Y-85007200D01*
X103285714Y-85007200D02*
X103238095Y-84959580D01*
X99885714Y-91550057D02*
X99933333Y-91502438D01*
X99933333Y-91502438D02*
X100028571Y-91454819D01*
X100028571Y-91454819D02*
X100266666Y-91454819D01*
X100266666Y-91454819D02*
X100361904Y-91502438D01*
X100361904Y-91502438D02*
X100409523Y-91550057D01*
X100409523Y-91550057D02*
X100457142Y-91645295D01*
X100457142Y-91645295D02*
X100457142Y-91740533D01*
X100457142Y-91740533D02*
X100409523Y-91883390D01*
X100409523Y-91883390D02*
X99838095Y-92454819D01*
X99838095Y-92454819D02*
X100457142Y-92454819D01*
X100885714Y-92454819D02*
X100885714Y-91454819D01*
X100885714Y-91454819D02*
X101457142Y-92454819D01*
X101457142Y-92454819D02*
X101457142Y-91454819D01*
X101838095Y-91454819D02*
X102457142Y-91454819D01*
X102457142Y-91454819D02*
X102123809Y-91835771D01*
X102123809Y-91835771D02*
X102266666Y-91835771D01*
X102266666Y-91835771D02*
X102361904Y-91883390D01*
X102361904Y-91883390D02*
X102409523Y-91931009D01*
X102409523Y-91931009D02*
X102457142Y-92026247D01*
X102457142Y-92026247D02*
X102457142Y-92264342D01*
X102457142Y-92264342D02*
X102409523Y-92359580D01*
X102409523Y-92359580D02*
X102361904Y-92407200D01*
X102361904Y-92407200D02*
X102266666Y-92454819D01*
X102266666Y-92454819D02*
X101980952Y-92454819D01*
X101980952Y-92454819D02*
X101885714Y-92407200D01*
X101885714Y-92407200D02*
X101838095Y-92359580D01*
X102933333Y-92454819D02*
X103123809Y-92454819D01*
X103123809Y-92454819D02*
X103219047Y-92407200D01*
X103219047Y-92407200D02*
X103266666Y-92359580D01*
X103266666Y-92359580D02*
X103361904Y-92216723D01*
X103361904Y-92216723D02*
X103409523Y-92026247D01*
X103409523Y-92026247D02*
X103409523Y-91645295D01*
X103409523Y-91645295D02*
X103361904Y-91550057D01*
X103361904Y-91550057D02*
X103314285Y-91502438D01*
X103314285Y-91502438D02*
X103219047Y-91454819D01*
X103219047Y-91454819D02*
X103028571Y-91454819D01*
X103028571Y-91454819D02*
X102933333Y-91502438D01*
X102933333Y-91502438D02*
X102885714Y-91550057D01*
X102885714Y-91550057D02*
X102838095Y-91645295D01*
X102838095Y-91645295D02*
X102838095Y-91883390D01*
X102838095Y-91883390D02*
X102885714Y-91978628D01*
X102885714Y-91978628D02*
X102933333Y-92026247D01*
X102933333Y-92026247D02*
X103028571Y-92073866D01*
X103028571Y-92073866D02*
X103219047Y-92073866D01*
X103219047Y-92073866D02*
X103314285Y-92026247D01*
X103314285Y-92026247D02*
X103361904Y-91978628D01*
X103361904Y-91978628D02*
X103409523Y-91883390D01*
X104028571Y-91454819D02*
X104123809Y-91454819D01*
X104123809Y-91454819D02*
X104219047Y-91502438D01*
X104219047Y-91502438D02*
X104266666Y-91550057D01*
X104266666Y-91550057D02*
X104314285Y-91645295D01*
X104314285Y-91645295D02*
X104361904Y-91835771D01*
X104361904Y-91835771D02*
X104361904Y-92073866D01*
X104361904Y-92073866D02*
X104314285Y-92264342D01*
X104314285Y-92264342D02*
X104266666Y-92359580D01*
X104266666Y-92359580D02*
X104219047Y-92407200D01*
X104219047Y-92407200D02*
X104123809Y-92454819D01*
X104123809Y-92454819D02*
X104028571Y-92454819D01*
X104028571Y-92454819D02*
X103933333Y-92407200D01*
X103933333Y-92407200D02*
X103885714Y-92359580D01*
X103885714Y-92359580D02*
X103838095Y-92264342D01*
X103838095Y-92264342D02*
X103790476Y-92073866D01*
X103790476Y-92073866D02*
X103790476Y-91835771D01*
X103790476Y-91835771D02*
X103838095Y-91645295D01*
X103838095Y-91645295D02*
X103885714Y-91550057D01*
X103885714Y-91550057D02*
X103933333Y-91502438D01*
X103933333Y-91502438D02*
X104028571Y-91454819D01*
X105219047Y-91788152D02*
X105219047Y-92454819D01*
X104980952Y-91407200D02*
X104742857Y-92121485D01*
X104742857Y-92121485D02*
X105361904Y-92121485D01*
X111833333Y-72334819D02*
X111500000Y-71858628D01*
X111261905Y-72334819D02*
X111261905Y-71334819D01*
X111261905Y-71334819D02*
X111642857Y-71334819D01*
X111642857Y-71334819D02*
X111738095Y-71382438D01*
X111738095Y-71382438D02*
X111785714Y-71430057D01*
X111785714Y-71430057D02*
X111833333Y-71525295D01*
X111833333Y-71525295D02*
X111833333Y-71668152D01*
X111833333Y-71668152D02*
X111785714Y-71763390D01*
X111785714Y-71763390D02*
X111738095Y-71811009D01*
X111738095Y-71811009D02*
X111642857Y-71858628D01*
X111642857Y-71858628D02*
X111261905Y-71858628D01*
X112214286Y-71430057D02*
X112261905Y-71382438D01*
X112261905Y-71382438D02*
X112357143Y-71334819D01*
X112357143Y-71334819D02*
X112595238Y-71334819D01*
X112595238Y-71334819D02*
X112690476Y-71382438D01*
X112690476Y-71382438D02*
X112738095Y-71430057D01*
X112738095Y-71430057D02*
X112785714Y-71525295D01*
X112785714Y-71525295D02*
X112785714Y-71620533D01*
X112785714Y-71620533D02*
X112738095Y-71763390D01*
X112738095Y-71763390D02*
X112166667Y-72334819D01*
X112166667Y-72334819D02*
X112785714Y-72334819D01*
X111550057Y-80484761D02*
X111502438Y-80437142D01*
X111502438Y-80437142D02*
X111454819Y-80341904D01*
X111454819Y-80341904D02*
X111454819Y-80103809D01*
X111454819Y-80103809D02*
X111502438Y-80008571D01*
X111502438Y-80008571D02*
X111550057Y-79960952D01*
X111550057Y-79960952D02*
X111645295Y-79913333D01*
X111645295Y-79913333D02*
X111740533Y-79913333D01*
X111740533Y-79913333D02*
X111883390Y-79960952D01*
X111883390Y-79960952D02*
X112454819Y-80532380D01*
X112454819Y-80532380D02*
X112454819Y-79913333D01*
X112359580Y-79484761D02*
X112407200Y-79437142D01*
X112407200Y-79437142D02*
X112454819Y-79484761D01*
X112454819Y-79484761D02*
X112407200Y-79532380D01*
X112407200Y-79532380D02*
X112359580Y-79484761D01*
X112359580Y-79484761D02*
X112454819Y-79484761D01*
X111550057Y-79056190D02*
X111502438Y-79008571D01*
X111502438Y-79008571D02*
X111454819Y-78913333D01*
X111454819Y-78913333D02*
X111454819Y-78675238D01*
X111454819Y-78675238D02*
X111502438Y-78580000D01*
X111502438Y-78580000D02*
X111550057Y-78532381D01*
X111550057Y-78532381D02*
X111645295Y-78484762D01*
X111645295Y-78484762D02*
X111740533Y-78484762D01*
X111740533Y-78484762D02*
X111883390Y-78532381D01*
X111883390Y-78532381D02*
X112454819Y-79103809D01*
X112454819Y-79103809D02*
X112454819Y-78484762D01*
X112454819Y-78056190D02*
X111454819Y-78056190D01*
X112073866Y-77960952D02*
X112454819Y-77675238D01*
X111788152Y-77675238D02*
X112169104Y-78056190D01*
D13*
%TO.C,PWR_IN*%
X74670000Y-79795000D02*
X76000000Y-79795000D01*
X74670000Y-81125000D02*
X74670000Y-79795000D01*
X74670000Y-82395000D02*
X74670000Y-84995000D01*
X74670000Y-82395000D02*
X77330000Y-82395000D01*
X74670000Y-84995000D02*
X77330000Y-84995000D01*
X77330000Y-82395000D02*
X77330000Y-84995000D01*
%TO.C,OUT*%
X155670000Y-75170000D02*
X157000000Y-75170000D01*
X155670000Y-76500000D02*
X155670000Y-75170000D01*
X155670000Y-77770000D02*
X155670000Y-77830000D01*
X155670000Y-77770000D02*
X158330000Y-77770000D01*
X155670000Y-77830000D02*
X158330000Y-77830000D01*
X158330000Y-77770000D02*
X158330000Y-77830000D01*
%TO.C,D2*%
X120660000Y-79800000D02*
X121680000Y-79800000D01*
X121680000Y-78330000D02*
X121680000Y-81270000D01*
X121680000Y-81270000D02*
X127120000Y-81270000D01*
X126100000Y-81270000D02*
X126100000Y-78330000D01*
X126220000Y-81270000D02*
X126220000Y-78330000D01*
X126340000Y-81270000D02*
X126340000Y-78330000D01*
X127120000Y-78330000D02*
X121680000Y-78330000D01*
X127120000Y-81270000D02*
X127120000Y-78330000D01*
X128140000Y-79800000D02*
X127120000Y-79800000D01*
%TO.C,Q8*%
X146450000Y-66670000D02*
X146450000Y-63070000D01*
X142000000Y-64870000D02*
G75*
G02*
X146438478Y-63031522I2600000J0D01*
G01*
X146438478Y-66708478D02*
G75*
G02*
X141999999Y-64870000I-1838478J1838478D01*
G01*
%TO.C,Q3*%
X95850000Y-78730000D02*
X95850000Y-75130000D01*
X91400000Y-76930000D02*
G75*
G02*
X95838478Y-75091522I2600000J0D01*
G01*
X95838478Y-78768478D02*
G75*
G02*
X91399999Y-76930000I-1838478J1838478D01*
G01*
%TO.C,Q6*%
X95850000Y-90200000D02*
X95850000Y-86600000D01*
X91400000Y-88400000D02*
G75*
G02*
X95838478Y-86561522I2600000J0D01*
G01*
X95838478Y-90238478D02*
G75*
G02*
X91399999Y-88400000I-1838478J1838478D01*
G01*
%TO.C,Q10*%
X130850000Y-92530000D02*
X130850000Y-88930000D01*
X126400000Y-90730000D02*
G75*
G02*
X130838478Y-88891522I2600000J0D01*
G01*
X130838478Y-92568478D02*
G75*
G02*
X126399999Y-90730000I-1838478J1838478D01*
G01*
%TO.C,Q9*%
X122350000Y-92530000D02*
X122350000Y-88930000D01*
X117900000Y-90730000D02*
G75*
G02*
X122338478Y-88891522I2600000J0D01*
G01*
X122338478Y-92568478D02*
G75*
G02*
X117899999Y-90730000I-1838478J1838478D01*
G01*
%TO.C,Q7*%
X123750000Y-63070000D02*
X123750000Y-66670000D01*
X123761522Y-63031522D02*
G75*
G02*
X128200001Y-64870000I1838478J-1838478D01*
G01*
X128200000Y-64870000D02*
G75*
G02*
X123761522Y-66708478I-2600000J0D01*
G01*
%TO.C,Q11*%
X141950000Y-88400000D02*
X141950000Y-92000000D01*
X141961522Y-88361522D02*
G75*
G02*
X146400001Y-90200000I1838478J-1838478D01*
G01*
X146400000Y-90200000D02*
G75*
G02*
X141961522Y-92038478I-2600000J0D01*
G01*
%TO.C,D1*%
X120660000Y-74200000D02*
X121680000Y-74200000D01*
X121680000Y-72730000D02*
X121680000Y-75670000D01*
X121680000Y-75670000D02*
X127120000Y-75670000D01*
X126100000Y-75670000D02*
X126100000Y-72730000D01*
X126220000Y-75670000D02*
X126220000Y-72730000D01*
X126340000Y-75670000D02*
X126340000Y-72730000D01*
X127120000Y-72730000D02*
X121680000Y-72730000D01*
X127120000Y-75670000D02*
X127120000Y-72730000D01*
X128140000Y-74200000D02*
X127120000Y-74200000D01*
%TO.C,C1*%
X116570000Y-67370000D02*
X116570000Y-67055000D01*
X116570000Y-67370000D02*
X111630000Y-67370000D01*
X116570000Y-64945000D02*
X116570000Y-64630000D01*
X116570000Y-64630000D02*
X111630000Y-64630000D01*
X111630000Y-67370000D02*
X111630000Y-67055000D01*
X111630000Y-64945000D02*
X111630000Y-64630000D01*
%TO.C,Q2*%
X101190000Y-63000000D02*
X101190000Y-66600000D01*
X101201522Y-62961522D02*
G75*
G02*
X105640001Y-64800000I1838478J-1838478D01*
G01*
X105640000Y-64800000D02*
G75*
G02*
X101201522Y-66638478I-2600000J0D01*
G01*
%TO.C,R3*%
X139360000Y-75200000D02*
X140130000Y-75200000D01*
X140130000Y-73830000D02*
X140130000Y-76570000D01*
X140130000Y-76570000D02*
X146670000Y-76570000D01*
X146670000Y-73830000D02*
X140130000Y-73830000D01*
X146670000Y-76570000D02*
X146670000Y-73830000D01*
X147440000Y-75200000D02*
X146670000Y-75200000D01*
%TO.C,R1*%
X84630000Y-81850000D02*
X84630000Y-88390000D01*
X84630000Y-88390000D02*
X87370000Y-88390000D01*
X86000000Y-81080000D02*
X86000000Y-81850000D01*
X86000000Y-89160000D02*
X86000000Y-88390000D01*
X87370000Y-81850000D02*
X84630000Y-81850000D01*
X87370000Y-88390000D02*
X87370000Y-81850000D01*
%TO.C,Q4*%
X105038478Y-78768478D02*
G75*
G02*
X100599999Y-76930000I-1838478J1838478D01*
G01*
X100600000Y-76930000D02*
G75*
G02*
X105038478Y-75091522I2600000J0D01*
G01*
X105050000Y-78730000D02*
X105050000Y-75130000D01*
%TO.C,IN*%
X74670000Y-70930000D02*
X76000000Y-70930000D01*
X74670000Y-72260000D02*
X74670000Y-70930000D01*
X74670000Y-73530000D02*
X74670000Y-76130000D01*
X74670000Y-73530000D02*
X77330000Y-73530000D01*
X74670000Y-76130000D02*
X77330000Y-76130000D01*
X77330000Y-73530000D02*
X77330000Y-76130000D01*
D14*
%TO.C,G\u002A\u002A\u002A*%
G36*
X134790621Y-60585136D02*
G01*
X134846240Y-60611833D01*
X134901933Y-60660817D01*
X134946595Y-60719606D01*
X134969118Y-60775721D01*
X134970000Y-60786689D01*
X134953345Y-60868229D01*
X134909077Y-60936576D01*
X134845741Y-60986102D01*
X134771884Y-61011177D01*
X134696049Y-61006172D01*
X134660247Y-60990738D01*
X134596706Y-60933862D01*
X134558530Y-60858245D01*
X134548679Y-60775562D01*
X134570118Y-60697485D01*
X134581214Y-60679335D01*
X134638754Y-60623770D01*
X134711469Y-60589625D01*
X134783888Y-60583861D01*
X134790621Y-60585136D01*
G37*
G36*
X136853687Y-61696263D02*
G01*
X136907514Y-61701768D01*
X136943403Y-61714090D01*
X136972367Y-61735805D01*
X136980909Y-61744090D01*
X137021910Y-61808968D01*
X137030000Y-61865000D01*
X137014408Y-61944861D01*
X136967690Y-61999636D01*
X136889928Y-62029258D01*
X136820000Y-62035000D01*
X136748296Y-62031525D01*
X136701051Y-62018014D01*
X136663088Y-61989838D01*
X136659090Y-61985909D01*
X136630423Y-61950454D01*
X136615517Y-61908492D01*
X136610294Y-61845901D01*
X136610000Y-61815909D01*
X136610000Y-61695000D01*
X136770909Y-61695000D01*
X136853687Y-61696263D01*
G37*
G36*
X133421309Y-61095181D02*
G01*
X133499858Y-61098690D01*
X133550122Y-61109971D01*
X133577952Y-61133467D01*
X133589197Y-61173624D01*
X133589706Y-61234886D01*
X133586122Y-61305833D01*
X133580000Y-61425000D01*
X133298369Y-61430528D01*
X133185621Y-61432307D01*
X133105432Y-61431942D01*
X133050383Y-61428627D01*
X133013055Y-61421554D01*
X132986029Y-61409916D01*
X132963369Y-61394076D01*
X132920945Y-61343942D01*
X132910000Y-61285184D01*
X132914623Y-61219698D01*
X132931754Y-61170884D01*
X132966281Y-61136412D01*
X133023091Y-61113947D01*
X133107074Y-61101158D01*
X133223118Y-61095712D01*
X133308625Y-61095000D01*
X133421309Y-61095181D01*
G37*
G36*
X133438413Y-61695407D02*
G01*
X133524367Y-61697127D01*
X133583578Y-61700907D01*
X133622674Y-61707494D01*
X133648282Y-61717634D01*
X133667027Y-61732074D01*
X133669491Y-61734491D01*
X133711236Y-61799185D01*
X133723563Y-61871892D01*
X133707775Y-61941217D01*
X133665176Y-61995763D01*
X133637707Y-62012405D01*
X133596746Y-62021584D01*
X133522450Y-62028703D01*
X133421451Y-62033322D01*
X133300382Y-62034999D01*
X133298149Y-62035000D01*
X133184633Y-62034718D01*
X133103977Y-62033183D01*
X133049042Y-62029362D01*
X133012689Y-62022221D01*
X132987778Y-62010726D01*
X132967170Y-61993843D01*
X132959090Y-61985909D01*
X132918089Y-61921031D01*
X132910000Y-61865000D01*
X132926321Y-61788696D01*
X132959090Y-61744090D01*
X132979178Y-61725491D01*
X133000756Y-61712303D01*
X133030639Y-61703597D01*
X133075645Y-61698443D01*
X133142590Y-61695913D01*
X133238290Y-61695076D01*
X133319090Y-61695000D01*
X133438413Y-61695407D01*
G37*
G36*
X135882728Y-59561341D02*
G01*
X135901021Y-59583357D01*
X135914127Y-59625534D01*
X135922797Y-59692360D01*
X135927781Y-59788320D01*
X135929832Y-59917904D01*
X135930000Y-59982052D01*
X135930000Y-60331733D01*
X136021473Y-60438366D01*
X136134128Y-60591193D01*
X136236705Y-60772867D01*
X136311438Y-60942245D01*
X136366923Y-61085000D01*
X136650260Y-61095000D01*
X136761946Y-61099180D01*
X136840846Y-61103466D01*
X136894152Y-61109293D01*
X136929057Y-61118094D01*
X136952752Y-61131305D01*
X136972430Y-61150359D01*
X136981798Y-61161115D01*
X137022395Y-61233247D01*
X137025606Y-61306765D01*
X136991459Y-61374458D01*
X136980909Y-61385909D01*
X136958046Y-61406587D01*
X136933151Y-61420466D01*
X136898174Y-61428895D01*
X136845068Y-61433225D01*
X136765786Y-61434806D01*
X136688292Y-61434999D01*
X136444766Y-61434999D01*
X136456466Y-61500000D01*
X136481333Y-61639614D01*
X136501370Y-61756611D01*
X136518214Y-61862029D01*
X136533500Y-61966909D01*
X136548863Y-62082288D01*
X136565942Y-62219207D01*
X136578739Y-62325000D01*
X136609664Y-62606682D01*
X136630988Y-62860830D01*
X136643331Y-63098583D01*
X136647313Y-63331078D01*
X136645037Y-63515027D01*
X136638703Y-63696154D01*
X136628116Y-63846025D01*
X136611482Y-63973306D01*
X136587008Y-64086664D01*
X136552900Y-64194768D01*
X136507366Y-64306284D01*
X136460908Y-64405000D01*
X136334384Y-64619036D01*
X136178708Y-64807833D01*
X135997082Y-64969665D01*
X135792713Y-65102809D01*
X135568802Y-65205543D01*
X135328554Y-65276142D01*
X135075173Y-65312882D01*
X134811863Y-65314042D01*
X134775932Y-65311395D01*
X134523108Y-65271150D01*
X134282947Y-65194829D01*
X134058942Y-65084878D01*
X133854591Y-64943739D01*
X133673388Y-64773858D01*
X133518829Y-64577678D01*
X133394411Y-64357644D01*
X133386103Y-64339611D01*
X133317660Y-64163727D01*
X133274311Y-63988196D01*
X133253192Y-63799038D01*
X133250000Y-63675000D01*
X133266921Y-63424360D01*
X133318396Y-63192323D01*
X133405486Y-62975618D01*
X133529257Y-62770972D01*
X133555638Y-62735000D01*
X133681373Y-62585256D01*
X133820130Y-62455027D01*
X133977534Y-62340615D01*
X134159215Y-62238326D01*
X134370800Y-62144463D01*
X134561948Y-62074128D01*
X134802017Y-61983983D01*
X135010283Y-61888995D01*
X135183775Y-61790630D01*
X135290000Y-61714951D01*
X135358462Y-61662100D01*
X135422311Y-61616101D01*
X135469706Y-61585414D01*
X135476459Y-61581708D01*
X135550475Y-61562001D01*
X135619871Y-61575294D01*
X135678843Y-61614605D01*
X135721588Y-61672950D01*
X135742305Y-61743347D01*
X135735190Y-61818815D01*
X135713274Y-61866670D01*
X135652093Y-61939032D01*
X135557155Y-62018157D01*
X135433522Y-62101159D01*
X135286259Y-62185155D01*
X135120427Y-62267261D01*
X134941090Y-62344593D01*
X134753309Y-62414267D01*
X134750000Y-62415393D01*
X134641508Y-62453946D01*
X134533054Y-62495377D01*
X134437509Y-62534604D01*
X134369990Y-62565417D01*
X134167351Y-62686357D01*
X133996423Y-62829706D01*
X133858348Y-62993703D01*
X133754267Y-63176582D01*
X133685324Y-63376583D01*
X133652661Y-63591942D01*
X133650000Y-63676472D01*
X133661067Y-63878301D01*
X133696595Y-64054469D01*
X133760072Y-64213356D01*
X133854987Y-64363340D01*
X133984828Y-64512802D01*
X134007829Y-64535988D01*
X134162036Y-64673256D01*
X134317656Y-64777626D01*
X134484725Y-64855262D01*
X134580000Y-64887275D01*
X134673358Y-64906618D01*
X134792329Y-64918903D01*
X134924706Y-64924088D01*
X135058280Y-64922129D01*
X135180843Y-64912982D01*
X135280186Y-64896606D01*
X135305054Y-64889839D01*
X135499728Y-64810293D01*
X135683280Y-64698795D01*
X135848861Y-64561112D01*
X135989622Y-64403014D01*
X136098715Y-64230271D01*
X136106477Y-64214752D01*
X136161834Y-64094158D01*
X136202370Y-63984733D01*
X136230636Y-63875257D01*
X136249184Y-63754510D01*
X136260563Y-63611273D01*
X136264686Y-63518995D01*
X136266029Y-63351389D01*
X136259592Y-63155461D01*
X136246192Y-62937820D01*
X136226648Y-62705070D01*
X136201777Y-62463819D01*
X136172398Y-62220673D01*
X136139329Y-61982238D01*
X136103387Y-61755121D01*
X136065391Y-61545928D01*
X136026159Y-61361267D01*
X135986508Y-61207742D01*
X135973051Y-61163730D01*
X135890824Y-60957864D01*
X135784897Y-60773521D01*
X135658618Y-60614533D01*
X135515336Y-60484735D01*
X135358399Y-60387962D01*
X135260664Y-60347878D01*
X135077273Y-60306348D01*
X134894415Y-60303438D01*
X134716882Y-60337997D01*
X134549467Y-60408872D01*
X134396961Y-60514911D01*
X134338604Y-60569559D01*
X134229290Y-60703061D01*
X134146444Y-60850560D01*
X134093262Y-61004086D01*
X134072941Y-61155669D01*
X134075735Y-61224789D01*
X134101888Y-61346211D01*
X134150739Y-61446726D01*
X134218195Y-61521380D01*
X134300164Y-61565220D01*
X134365000Y-61574925D01*
X134409269Y-61578104D01*
X134429820Y-61585745D01*
X134430000Y-61586610D01*
X134418487Y-61613845D01*
X134388968Y-61661438D01*
X134348966Y-61718956D01*
X134306007Y-61775965D01*
X134267616Y-61822034D01*
X134243322Y-61845426D01*
X134177706Y-61870252D01*
X134096869Y-61871422D01*
X134017855Y-61848919D01*
X134011296Y-61845670D01*
X133943292Y-61796077D01*
X133871717Y-61720330D01*
X133805975Y-61630115D01*
X133755470Y-61537116D01*
X133747531Y-61517941D01*
X133716323Y-61408290D01*
X133698241Y-61271150D01*
X133694696Y-61213947D01*
X133699630Y-61011649D01*
X133736251Y-60827601D01*
X133806961Y-60654566D01*
X133914161Y-60485309D01*
X133953352Y-60434736D01*
X134050000Y-60314798D01*
X134050000Y-59957348D01*
X134050529Y-59825302D01*
X134052409Y-59727770D01*
X134056076Y-59659279D01*
X134061964Y-59614353D01*
X134070511Y-59587518D01*
X134080475Y-59574604D01*
X134097734Y-59563199D01*
X134117355Y-59560277D01*
X134144341Y-59568601D01*
X134183694Y-59590935D01*
X134240416Y-59630041D01*
X134319510Y-59688682D01*
X134406103Y-59754453D01*
X134628231Y-59923907D01*
X134934115Y-59924482D01*
X135042584Y-59925631D01*
X135138205Y-59928414D01*
X135213210Y-59932469D01*
X135259827Y-59937436D01*
X135270000Y-59940115D01*
X135295991Y-59936340D01*
X135346181Y-59909749D01*
X135422322Y-59859239D01*
X135526166Y-59783711D01*
X135564200Y-59755086D01*
X135654363Y-59688124D01*
X135735031Y-59630685D01*
X135800221Y-59586836D01*
X135843948Y-59560647D01*
X135858497Y-59555000D01*
X135882728Y-59561341D01*
G37*
D13*
%TO.C,Q1*%
X91390000Y-63000000D02*
X91390000Y-66600000D01*
X91401522Y-62961522D02*
G75*
G02*
X95840001Y-64800000I1838478J-1838478D01*
G01*
X95840000Y-64800000D02*
G75*
G02*
X91401522Y-66638478I-2600000J0D01*
G01*
%TO.C,R4*%
X139360000Y-80000000D02*
X140130000Y-80000000D01*
X140130000Y-78630000D02*
X140130000Y-81370000D01*
X140130000Y-81370000D02*
X146670000Y-81370000D01*
X146670000Y-78630000D02*
X140130000Y-78630000D01*
X146670000Y-81370000D02*
X146670000Y-78630000D01*
X147440000Y-80000000D02*
X146670000Y-80000000D01*
%TO.C,Q5*%
X104850000Y-90130000D02*
X104850000Y-86530000D01*
X100400000Y-88330000D02*
G75*
G02*
X104838478Y-86491522I2600000J0D01*
G01*
X104838478Y-90168478D02*
G75*
G02*
X100399999Y-88330000I-1838478J1838478D01*
G01*
%TO.C,R2*%
X110630000Y-75810000D02*
X110630000Y-82350000D01*
X110630000Y-82350000D02*
X113370000Y-82350000D01*
X112000000Y-75040000D02*
X112000000Y-75810000D01*
X112000000Y-83120000D02*
X112000000Y-82350000D01*
X113370000Y-75810000D02*
X110630000Y-75810000D01*
X113370000Y-82350000D02*
X113370000Y-75810000D01*
%TD*%
M02*
