%TF.GenerationSoftware,KiCad,Pcbnew,8.0.4*%
%TF.CreationDate,2024-10-21T15:09:54+02:00*%
%TF.ProjectId,GiugAmp_301,47697567-416d-4705-9f33-30312e6b6963,rev?*%
%TF.SameCoordinates,Original*%
%TF.FileFunction,Soldermask,Top*%
%TF.FilePolarity,Negative*%
%FSLAX46Y46*%
G04 Gerber Fmt 4.6, Leading zero omitted, Abs format (unit mm)*
G04 Created by KiCad (PCBNEW 8.0.4) date 2024-10-21 15:09:54*
%MOMM*%
%LPD*%
G01*
G04 APERTURE LIST*
%ADD10R,1.700000X1.700000*%
%ADD11O,1.700000X1.700000*%
%ADD12R,2.200000X2.200000*%
%ADD13O,2.200000X2.200000*%
%ADD14C,3.200000*%
%ADD15R,1.500000X1.050000*%
%ADD16O,1.500000X1.050000*%
%ADD17C,1.600000*%
%ADD18O,1.600000X1.600000*%
G04 APERTURE END LIST*
D10*
%TO.C,PWR_IN*%
X76000000Y-81125000D03*
D11*
X76000000Y-83665000D03*
%TD*%
D10*
%TO.C,OUT*%
X157000000Y-76500000D03*
%TD*%
D12*
%TO.C,D2*%
X129480000Y-79800000D03*
D13*
X119320000Y-79800000D03*
%TD*%
D14*
%TO.C,H1*%
X77800000Y-62400000D03*
%TD*%
D15*
%TO.C,Q8*%
X144600000Y-66140000D03*
D16*
X144600000Y-64870000D03*
X144600000Y-63600000D03*
%TD*%
D15*
%TO.C,Q3*%
X94000000Y-78200000D03*
D16*
X94000000Y-76930000D03*
X94000000Y-75660000D03*
%TD*%
D15*
%TO.C,Q6*%
X94000000Y-89670000D03*
D16*
X94000000Y-88400000D03*
X94000000Y-87130000D03*
%TD*%
D15*
%TO.C,Q10*%
X129000000Y-92000000D03*
D16*
X129000000Y-90730000D03*
X129000000Y-89460000D03*
%TD*%
D15*
%TO.C,Q9*%
X120500000Y-92000000D03*
D16*
X120500000Y-90730000D03*
X120500000Y-89460000D03*
%TD*%
D15*
%TO.C,Q7*%
X125600000Y-63600000D03*
D16*
X125600000Y-64870000D03*
X125600000Y-66140000D03*
%TD*%
D15*
%TO.C,Q11*%
X143800000Y-88930000D03*
D16*
X143800000Y-90200000D03*
X143800000Y-91470000D03*
%TD*%
D12*
%TO.C,D1*%
X129480000Y-74200000D03*
D13*
X119320000Y-74200000D03*
%TD*%
D17*
%TO.C,C1*%
X111600000Y-66000000D03*
X116600000Y-66000000D03*
%TD*%
D15*
%TO.C,Q2*%
X103040000Y-63530000D03*
D16*
X103040000Y-64800000D03*
X103040000Y-66070000D03*
%TD*%
D14*
%TO.C,H2*%
X77800000Y-93800000D03*
%TD*%
D17*
%TO.C,R3*%
X138320000Y-75200000D03*
D18*
X148480000Y-75200000D03*
%TD*%
D17*
%TO.C,R1*%
X86000000Y-80040000D03*
D18*
X86000000Y-90200000D03*
%TD*%
D14*
%TO.C,H3*%
X155600000Y-62200000D03*
%TD*%
D16*
%TO.C,Q4*%
X103200000Y-75660000D03*
X103200000Y-76930000D03*
D15*
X103200000Y-78200000D03*
%TD*%
D10*
%TO.C,IN*%
X76000000Y-72260000D03*
D11*
X76000000Y-74800000D03*
%TD*%
D14*
%TO.C,H4*%
X155600000Y-94200000D03*
%TD*%
D15*
%TO.C,Q1*%
X93240000Y-63530000D03*
D16*
X93240000Y-64800000D03*
X93240000Y-66070000D03*
%TD*%
D17*
%TO.C,R4*%
X148480000Y-80000000D03*
D18*
X138320000Y-80000000D03*
%TD*%
D15*
%TO.C,Q5*%
X103000000Y-89600000D03*
D16*
X103000000Y-88330000D03*
X103000000Y-87060000D03*
%TD*%
D17*
%TO.C,R2*%
X112000000Y-74000000D03*
D18*
X112000000Y-84160000D03*
%TD*%
M02*
