%TF.GenerationSoftware,KiCad,Pcbnew,8.0.4*%
%TF.CreationDate,2024-10-21T15:09:54+02:00*%
%TF.ProjectId,GiugAmp_301,47697567-416d-4705-9f33-30312e6b6963,rev?*%
%TF.SameCoordinates,Original*%
%TF.FileFunction,Copper,L2,Bot*%
%TF.FilePolarity,Positive*%
%FSLAX46Y46*%
G04 Gerber Fmt 4.6, Leading zero omitted, Abs format (unit mm)*
G04 Created by KiCad (PCBNEW 8.0.4) date 2024-10-21 15:09:54*
%MOMM*%
%LPD*%
G01*
G04 APERTURE LIST*
%TA.AperFunction,ComponentPad*%
%ADD10R,1.700000X1.700000*%
%TD*%
%TA.AperFunction,ComponentPad*%
%ADD11O,1.700000X1.700000*%
%TD*%
%TA.AperFunction,ComponentPad*%
%ADD12R,2.200000X2.200000*%
%TD*%
%TA.AperFunction,ComponentPad*%
%ADD13O,2.200000X2.200000*%
%TD*%
%TA.AperFunction,ComponentPad*%
%ADD14R,1.500000X1.050000*%
%TD*%
%TA.AperFunction,ComponentPad*%
%ADD15O,1.500000X1.050000*%
%TD*%
%TA.AperFunction,ComponentPad*%
%ADD16C,1.600000*%
%TD*%
%TA.AperFunction,ComponentPad*%
%ADD17O,1.600000X1.600000*%
%TD*%
%TA.AperFunction,Conductor*%
%ADD18C,0.500000*%
%TD*%
%TA.AperFunction,Conductor*%
%ADD19C,0.400000*%
%TD*%
G04 APERTURE END LIST*
D10*
%TO.P,PWR_IN,1,Pin_1*%
%TO.N,VCC*%
X76000000Y-81125000D03*
D11*
%TO.P,PWR_IN,2,Pin_2*%
%TO.N,VEE*%
X76000000Y-83665000D03*
%TD*%
D10*
%TO.P,OUT,1,Pin_1*%
%TO.N,OUT*%
X157000000Y-76500000D03*
%TD*%
D12*
%TO.P,D2,1,K*%
%TO.N,Net-(D2-K)*%
X129480000Y-79800000D03*
D13*
%TO.P,D2,2,A*%
%TO.N,Net-(D1-K)*%
X119320000Y-79800000D03*
%TD*%
D14*
%TO.P,Q8,1,E*%
%TO.N,Net-(Q8-E)*%
X144600000Y-66140000D03*
D15*
%TO.P,Q8,2,B*%
%TO.N,Net-(D1-A)*%
X144600000Y-64870000D03*
%TO.P,Q8,3,C*%
%TO.N,VCC*%
X144600000Y-63600000D03*
%TD*%
D14*
%TO.P,Q3,1,E*%
%TO.N,Net-(Q3-E)*%
X94000000Y-78200000D03*
D15*
%TO.P,Q3,2,B*%
%TO.N,V-*%
X94000000Y-76930000D03*
%TO.P,Q3,3,C*%
%TO.N,Net-(Q1-B)*%
X94000000Y-75660000D03*
%TD*%
D14*
%TO.P,Q6,1,E*%
%TO.N,VEE*%
X94000000Y-89670000D03*
D15*
%TO.P,Q6,2,B*%
%TO.N,Net-(Q5-B)*%
X94000000Y-88400000D03*
%TO.P,Q6,3,C*%
X94000000Y-87130000D03*
%TD*%
D14*
%TO.P,Q10,1,E*%
%TO.N,VEE*%
X129000000Y-92000000D03*
D15*
%TO.P,Q10,2,B*%
%TO.N,Net-(Q10-B)*%
X129000000Y-90730000D03*
%TO.P,Q10,3,C*%
%TO.N,Net-(D2-K)*%
X129000000Y-89460000D03*
%TD*%
D14*
%TO.P,Q9,1,E*%
%TO.N,VEE*%
X120500000Y-92000000D03*
D15*
%TO.P,Q9,2,B*%
%TO.N,Net-(Q10-B)*%
X120500000Y-90730000D03*
%TO.P,Q9,3,C*%
X120500000Y-89460000D03*
%TD*%
D14*
%TO.P,Q7,1,E*%
%TO.N,VCC*%
X125600000Y-63600000D03*
D15*
%TO.P,Q7,2,B*%
%TO.N,Net-(Q2-C)*%
X125600000Y-64870000D03*
%TO.P,Q7,3,C*%
%TO.N,Net-(D1-A)*%
X125600000Y-66140000D03*
%TD*%
D14*
%TO.P,Q11,1,E*%
%TO.N,Net-(Q11-E)*%
X143800000Y-88930000D03*
D15*
%TO.P,Q11,2,B*%
%TO.N,Net-(D2-K)*%
X143800000Y-90200000D03*
%TO.P,Q11,3,C*%
%TO.N,VEE*%
X143800000Y-91470000D03*
%TD*%
D12*
%TO.P,D1,1,K*%
%TO.N,Net-(D1-K)*%
X129480000Y-74200000D03*
D13*
%TO.P,D1,2,A*%
%TO.N,Net-(D1-A)*%
X119320000Y-74200000D03*
%TD*%
D16*
%TO.P,C1,2*%
%TO.N,Net-(Q2-C)*%
X111600000Y-66000000D03*
%TO.P,C1,1*%
%TO.N,Net-(D1-A)*%
X116600000Y-66000000D03*
%TD*%
D14*
%TO.P,Q2,1,E*%
%TO.N,VCC*%
X103040000Y-63530000D03*
D15*
%TO.P,Q2,2,B*%
%TO.N,Net-(Q1-B)*%
X103040000Y-64800000D03*
%TO.P,Q2,3,C*%
%TO.N,Net-(Q2-C)*%
X103040000Y-66070000D03*
%TD*%
D16*
%TO.P,R3,1*%
%TO.N,Net-(Q8-E)*%
X138320000Y-75200000D03*
D17*
%TO.P,R3,2*%
%TO.N,OUT*%
X148480000Y-75200000D03*
%TD*%
D16*
%TO.P,R1,1*%
%TO.N,VCC*%
X86000000Y-80040000D03*
D17*
%TO.P,R1,2*%
%TO.N,Net-(Q5-B)*%
X86000000Y-90200000D03*
%TD*%
D15*
%TO.P,Q4,3,C*%
%TO.N,Net-(Q2-C)*%
X103200000Y-75660000D03*
%TO.P,Q4,2,B*%
%TO.N,V+*%
X103200000Y-76930000D03*
D14*
%TO.P,Q4,1,E*%
%TO.N,Net-(Q3-E)*%
X103200000Y-78200000D03*
%TD*%
D10*
%TO.P,IN,1,Pin_1*%
%TO.N,V+*%
X76000000Y-72260000D03*
D11*
%TO.P,IN,2,Pin_2*%
%TO.N,V-*%
X76000000Y-74800000D03*
%TD*%
D14*
%TO.P,Q1,1,E*%
%TO.N,VCC*%
X93240000Y-63530000D03*
D15*
%TO.P,Q1,2,B*%
%TO.N,Net-(Q1-B)*%
X93240000Y-64800000D03*
%TO.P,Q1,3,C*%
X93240000Y-66070000D03*
%TD*%
D16*
%TO.P,R4,1*%
%TO.N,OUT*%
X148480000Y-80000000D03*
D17*
%TO.P,R4,2*%
%TO.N,Net-(Q11-E)*%
X138320000Y-80000000D03*
%TD*%
D14*
%TO.P,Q5,1,E*%
%TO.N,VEE*%
X103000000Y-89600000D03*
D15*
%TO.P,Q5,2,B*%
%TO.N,Net-(Q5-B)*%
X103000000Y-88330000D03*
%TO.P,Q5,3,C*%
%TO.N,Net-(Q3-E)*%
X103000000Y-87060000D03*
%TD*%
D16*
%TO.P,R2,1*%
%TO.N,VCC*%
X112000000Y-74000000D03*
D17*
%TO.P,R2,2*%
%TO.N,Net-(Q10-B)*%
X112000000Y-84160000D03*
%TD*%
D18*
%TO.N,VEE*%
X120500000Y-92000000D02*
X129000000Y-92000000D01*
X129000000Y-92000000D02*
X143270000Y-92000000D01*
D19*
X102930000Y-89670000D02*
X103000000Y-89600000D01*
D18*
X105400000Y-92000000D02*
X120500000Y-92000000D01*
X94000000Y-89670000D02*
X102930000Y-89670000D01*
X89920000Y-89670000D02*
X94000000Y-89670000D01*
X143270000Y-92000000D02*
X143800000Y-91470000D01*
X83915000Y-83665000D02*
X89920000Y-89670000D01*
X103000000Y-89600000D02*
X105400000Y-92000000D01*
X76000000Y-83665000D02*
X83915000Y-83665000D01*
%TO.N,VCC*%
X93240000Y-63530000D02*
X103040000Y-63530000D01*
X86000000Y-69620000D02*
X92090000Y-63530000D01*
X86000000Y-80040000D02*
X86000000Y-69620000D01*
X116650000Y-63600000D02*
X112000000Y-68250000D01*
X112000000Y-71340000D02*
X112000000Y-74000000D01*
X104190000Y-63530000D02*
X112000000Y-71340000D01*
X112000000Y-68250000D02*
X112000000Y-71340000D01*
X103040000Y-63530000D02*
X104190000Y-63530000D01*
X92090000Y-63530000D02*
X93240000Y-63530000D01*
X125600000Y-63600000D02*
X144600000Y-63600000D01*
X84915000Y-81125000D02*
X86000000Y-80040000D01*
X76000000Y-81125000D02*
X84915000Y-81125000D01*
X125600000Y-63600000D02*
X116650000Y-63600000D01*
%TD*%
M02*
